<svg xmlns="http://www.w3.org/2000/svg" viewBox="0 0 881.55 881.55"><defs><style>.cls-1{fill:#bcbcbc;}.cls-2{fill:#a5a5a5;}.cls-3{fill:#fff;}.cls-4{fill:#f2f2f2;}</style></defs><title>Recurso 9</title><g id="Capa_2" data-name="Capa 2"><g id="backend"><g id="bubble"><path class="cls-1" d="M549,658.46c-201,0-363.89-162.92-363.89-363.89A363,363,0,0,1,310.78,19.5C130.8,75,0,242.59,0,440.77,0,684.21,197.34,881.55,440.77,881.55c242.85,0,439.81-196.4,440.75-439C824.83,569.76,697.28,658.46,549,658.46Z"/><path class="cls-2" d="M185.11,294.57c0,201,162.92,363.89,363.89,363.89,148.28,0,275.83-88.7,332.52-215.93,0-.59,0-1.17,0-1.76C881.55,197.34,684.21,0,440.77,0a440.46,440.46,0,0,0-130,19.5A363,363,0,0,0,185.11,294.57Z"/></g><g id="languages"><path class="cls-3" d="M187,308.65h3V327h11.37v2.61H187Z"/><path class="cls-3" d="M215.37,315.22a6.26,6.26,0,0,1,1.76,4.83v9.6H214.4v-2.1a4.56,4.56,0,0,1-2.06,1.69,7.82,7.82,0,0,1-3.16.59,6.64,6.64,0,0,1-4.28-1.29,4.13,4.13,0,0,1-1.6-3.39,4.21,4.21,0,0,1,1.52-3.38,7.59,7.59,0,0,1,4.87-1.27h4.56v-.57a3.67,3.67,0,0,0-1.08-2.85,4.58,4.58,0,0,0-3.19-1,8.35,8.35,0,0,0-2.75.46,7.07,7.07,0,0,0-2.29,1.25l-1.19-2.16a8.62,8.62,0,0,1,2.94-1.52,12.19,12.19,0,0,1,3.62-.52A7.19,7.19,0,0,1,215.37,315.22Zm-2.86,11.65a4.19,4.19,0,0,0,1.74-2.08v-2.22h-4.44c-2.45,0-3.66.82-3.66,2.46a2.22,2.22,0,0,0,.92,1.89,4.27,4.27,0,0,0,2.58.69A5.41,5.41,0,0,0,212.51,326.87Z"/><path class="cls-3" d="M235.77,315.35a6.92,6.92,0,0,1,1.79,5.15v9.15h-2.88v-8.82a4.84,4.84,0,0,0-1.12-3.48,4.15,4.15,0,0,0-3.17-1.17,5,5,0,0,0-3.7,1.36,5.38,5.38,0,0,0-1.34,3.92v8.19h-2.88v-15.9h2.76v2.4a5.58,5.58,0,0,1,2.35-1.89,8.22,8.22,0,0,1,3.38-.66A6.55,6.55,0,0,1,235.77,315.35Z"/><path class="cls-3" d="M258.19,313.75v13.74c0,2.78-.68,4.83-2.06,6.16s-3.44,2-6.19,2a14.84,14.84,0,0,1-4.29-.62,8.37,8.37,0,0,1-3.29-1.75l1.37-2.22a8.26,8.26,0,0,0,2.75,1.51,10.42,10.42,0,0,0,3.38.56,5.65,5.65,0,0,0,4.12-1.32,5.43,5.43,0,0,0,1.33-4v-1.26a6.28,6.28,0,0,1-2.5,1.84,8.36,8.36,0,0,1-3.22.62,8.69,8.69,0,0,1-4.13-1,7.33,7.33,0,0,1-2.9-2.73,8.23,8.23,0,0,1,0-8,7.21,7.21,0,0,1,2.9-2.71,8.79,8.79,0,0,1,4.13-1,8.44,8.44,0,0,1,3.34.66,6.22,6.22,0,0,1,2.54,1.95v-2.46Zm-5.47,12.06a4.89,4.89,0,0,0,1.95-1.85,5.14,5.14,0,0,0,.71-2.68,4.91,4.91,0,0,0-1.53-3.74,6.19,6.19,0,0,0-7.89,0,4.88,4.88,0,0,0-1.53,3.74,5.13,5.13,0,0,0,.7,2.68,4.89,4.89,0,0,0,2,1.85,6,6,0,0,0,2.84.66A5.9,5.9,0,0,0,252.72,325.81Z"/><path class="cls-3" d="M278.5,313.75v15.9h-2.73v-2.4a5.76,5.76,0,0,1-2.29,1.9,7.19,7.19,0,0,1-3.11.68,6.94,6.94,0,0,1-5-1.76,6.83,6.83,0,0,1-1.83-5.17v-9.15h2.88v8.82a4.92,4.92,0,0,0,1.11,3.49,4.15,4.15,0,0,0,3.18,1.19,4.75,4.75,0,0,0,3.6-1.38,5.42,5.42,0,0,0,1.32-3.9v-8.22Z"/><path class="cls-3" d="M294.84,315.22a6.25,6.25,0,0,1,1.75,4.83v9.6h-2.73v-2.1a4.53,4.53,0,0,1-2.05,1.69,7.87,7.87,0,0,1-3.17.59,6.61,6.61,0,0,1-4.27-1.29,4.14,4.14,0,0,1-1.61-3.39,4.18,4.18,0,0,1,1.53-3.38q1.53-1.27,4.86-1.27h4.56v-.57a3.67,3.67,0,0,0-1.08-2.85,4.56,4.56,0,0,0-3.18-1,8.41,8.41,0,0,0-2.76.46,7.12,7.12,0,0,0-2.28,1.25l-1.2-2.16a8.72,8.72,0,0,1,2.94-1.52,12.3,12.3,0,0,1,3.63-.52A7.2,7.2,0,0,1,294.84,315.22ZM292,326.87a4.19,4.19,0,0,0,1.74-2.08v-2.22h-4.44q-3.66,0-3.66,2.46a2.23,2.23,0,0,0,.93,1.89,4.25,4.25,0,0,0,2.58.69A5.35,5.35,0,0,0,292,326.87Z"/><path class="cls-3" d="M317.23,313.75v13.74q0,4.17-2.07,6.16t-6.18,2a14.79,14.79,0,0,1-4.29-.62,8.49,8.49,0,0,1-3.3-1.75l1.38-2.22a8.16,8.16,0,0,0,2.75,1.51,10.4,10.4,0,0,0,3.37.56,5.67,5.67,0,0,0,4.13-1.32,5.43,5.43,0,0,0,1.33-4v-1.26a6.35,6.35,0,0,1-2.5,1.84,8.37,8.37,0,0,1-3.23.62,8.67,8.67,0,0,1-4.12-1,7.27,7.27,0,0,1-2.9-2.73,8.16,8.16,0,0,1,0-8,7.15,7.15,0,0,1,2.9-2.71,8.78,8.78,0,0,1,4.12-1,8.45,8.45,0,0,1,3.35.66,6.19,6.19,0,0,1,2.53,1.95v-2.46Zm-5.47,12.06a4.89,4.89,0,0,0,1.95-1.85,5.13,5.13,0,0,0,.7-2.68,4.88,4.88,0,0,0-1.53-3.74,6.19,6.19,0,0,0-7.89,0,4.88,4.88,0,0,0-1.53,3.74,5.14,5.14,0,0,0,.71,2.68,4.89,4.89,0,0,0,1.95,1.85,6.35,6.35,0,0,0,5.64,0Z"/><path class="cls-3" d="M337,322.66h-12.9A5,5,0,0,0,326,326a6,6,0,0,0,3.91,1.28,5.9,5.9,0,0,0,4.59-1.92l1.59,1.86a7,7,0,0,1-2.68,1.92,10.11,10.11,0,0,1-8.06-.38,7.36,7.36,0,0,1-3-2.89,8.3,8.3,0,0,1-1.07-4.2,8.43,8.43,0,0,1,1-4.17,7.43,7.43,0,0,1,2.85-2.9,8.1,8.1,0,0,1,4.09-1,8,8,0,0,1,4.07,1,7.28,7.28,0,0,1,2.79,2.9,8.82,8.82,0,0,1,1,4.26A8.25,8.25,0,0,1,337,322.66Zm-11.26-5.37a5.08,5.08,0,0,0-1.64,3.3h10.2a5.12,5.12,0,0,0-1.63-3.29,5.38,5.38,0,0,0-6.93,0Z"/><path class="cls-3" d="M341.89,329.3a8.23,8.23,0,0,1-2.82-1.33l1.2-2.28a8.61,8.61,0,0,0,2.55,1.2,10.49,10.49,0,0,0,3,.45q3.78,0,3.78-2.16a1.4,1.4,0,0,0-.51-1.14,3.21,3.21,0,0,0-1.27-.62c-.51-.13-1.24-.27-2.18-.43a21.23,21.23,0,0,1-3.13-.69,4.85,4.85,0,0,1-2.09-1.32,3.67,3.67,0,0,1-.87-2.61,4.09,4.09,0,0,1,1.8-3.47,8.06,8.06,0,0,1,4.83-1.3,13.31,13.31,0,0,1,3.18.39A8.55,8.55,0,0,1,352,315l-1.23,2.28a8.27,8.27,0,0,0-4.59-1.26,5.31,5.31,0,0,0-2.79.6,1.81,1.81,0,0,0-1,1.59,1.52,1.52,0,0,0,.54,1.23,3.44,3.44,0,0,0,1.34.66c.53.14,1.27.3,2.23.48a24.47,24.47,0,0,1,3.11.7,4.63,4.63,0,0,1,2,1.28,3.55,3.55,0,0,1,.84,2.52,4,4,0,0,1-1.84,3.43,8.73,8.73,0,0,1-5,1.28A13.33,13.33,0,0,1,341.89,329.3Z"/><path class="cls-3" d="M189.86,348.37v1.38h4.62v2.37h-4.56v13.53H187V352.12h-2.7v-2.37H187v-1.41a5.07,5.07,0,0,1,1.38-3.75,5.23,5.23,0,0,1,3.87-1.38,6.58,6.58,0,0,1,1.8.24,4.38,4.38,0,0,1,1.44.69l-.87,2.19a3.59,3.59,0,0,0-2.22-.75Q189.86,345.58,189.86,348.37Z"/><path class="cls-3" d="M199.52,364.78a7.64,7.64,0,0,1-3-2.9,8.79,8.79,0,0,1,0-8.37,7.52,7.52,0,0,1,3-2.88,8.72,8.72,0,0,1,4.26-1,8.61,8.61,0,0,1,4.24,1,7.54,7.54,0,0,1,2.94,2.88,8.72,8.72,0,0,1,0,8.37,7.66,7.66,0,0,1-2.94,2.9,8.52,8.52,0,0,1-4.24,1.05A8.62,8.62,0,0,1,199.52,364.78Zm7-2.18a5,5,0,0,0,1.91-2,6.54,6.54,0,0,0,0-5.85,4.87,4.87,0,0,0-1.91-2,5.81,5.81,0,0,0-5.49,0,5,5,0,0,0-1.92,2,6.46,6.46,0,0,0,0,5.85,5.08,5.08,0,0,0,1.92,2,5.66,5.66,0,0,0,5.49,0Z"/><path class="cls-3" d="M221,350.32a8,8,0,0,1,3.56-.72v2.79a5.43,5.43,0,0,0-.65,0,4.85,4.85,0,0,0-3.68,1.39,5.53,5.53,0,0,0-1.33,4v7.92H216v-15.9h2.76v2.67A4.86,4.86,0,0,1,221,350.32Z"/><path class="cls-3" d="M261,351.34a7,7,0,0,1,1.75,5.16v9.15H259.9v-8.82a5,5,0,0,0-1.06-3.48,3.91,3.91,0,0,0-3-1.17,4.56,4.56,0,0,0-3.49,1.36,5.5,5.5,0,0,0-1.29,3.92v8.19h-2.87v-8.82a5,5,0,0,0-1.07-3.48,3.91,3.91,0,0,0-3.05-1.17,4.52,4.52,0,0,0-3.47,1.36,5.45,5.45,0,0,0-1.29,3.92v8.19h-2.88v-15.9h2.76v2.37a5.53,5.53,0,0,1,2.28-1.88,7.6,7.6,0,0,1,3.21-.64,7.07,7.07,0,0,1,3.3.75,5.19,5.19,0,0,1,2.21,2.19,6.17,6.17,0,0,1,2.51-2.16,8.17,8.17,0,0,1,3.61-.78A6.47,6.47,0,0,1,261,351.34Z"/><path class="cls-3" d="M278.94,351.22a6.25,6.25,0,0,1,1.75,4.83v9.6H278v-2.1a4.61,4.61,0,0,1-2.06,1.69,7.87,7.87,0,0,1-3.17.59,6.61,6.61,0,0,1-4.27-1.29,4.43,4.43,0,0,1-.07-6.77q1.52-1.27,4.86-1.27h4.55v-.57a3.67,3.67,0,0,0-1.08-2.85,4.53,4.53,0,0,0-3.17-1,8.33,8.33,0,0,0-2.76.46,7,7,0,0,0-2.28,1.25l-1.21-2.16a8.77,8.77,0,0,1,2.95-1.52,12.3,12.3,0,0,1,3.63-.52A7.19,7.19,0,0,1,278.94,351.22Zm-2.87,11.65a4.19,4.19,0,0,0,1.74-2.08v-2.22h-4.44q-3.64,0-3.65,2.46a2.2,2.2,0,0,0,.93,1.89,4.23,4.23,0,0,0,2.58.69A5.34,5.34,0,0,0,276.07,362.87Z"/><path class="cls-3" d="M299.34,351.35a6.91,6.91,0,0,1,1.78,5.15v9.15h-2.88v-8.82a4.93,4.93,0,0,0-1.1-3.48,4.2,4.2,0,0,0-3.19-1.17,4.93,4.93,0,0,0-3.68,1.36,5.31,5.31,0,0,0-1.36,3.92v8.19H286v-15.9h2.77v2.4a5.52,5.52,0,0,1,2.35-1.89,8.24,8.24,0,0,1,3.37-.66A6.58,6.58,0,0,1,299.34,351.35Z"/><path class="cls-3" d="M320.23,349.75l-7.71,17.49a7.8,7.8,0,0,1-2.38,3.42,5.43,5.43,0,0,1-3.28,1,7,7,0,0,1-2.27-.38,4.73,4.73,0,0,1-1.82-1.09L304,368a4,4,0,0,0,2.85,1.17,2.74,2.74,0,0,0,1.75-.56,4.71,4.71,0,0,0,1.28-1.9l.51-1.11-7-15.87h3l5.55,12.72,5.49-12.72Z"/><path class="cls-3" d="M201.44,385.75v15.9h-2.73v-2.4a5.79,5.79,0,0,1-2.3,1.9,7.14,7.14,0,0,1-3.1.68,6.94,6.94,0,0,1-5-1.76,6.83,6.83,0,0,1-1.83-5.17v-9.15h2.88v8.82a4.92,4.92,0,0,0,1.11,3.49,4.13,4.13,0,0,0,3.18,1.19,4.76,4.76,0,0,0,3.6-1.38,5.42,5.42,0,0,0,1.32-3.9v-8.22Z"/><path class="cls-3" d="M207.73,401.3a8.18,8.18,0,0,1-2.81-1.33l1.19-2.28a8.56,8.56,0,0,0,2.56,1.2,10.43,10.43,0,0,0,3,.45c2.53,0,3.79-.72,3.79-2.16A1.4,1.4,0,0,0,215,396a3.33,3.33,0,0,0-1.28-.62c-.51-.13-1.24-.27-2.17-.43a21.11,21.11,0,0,1-3.14-.69A4.76,4.76,0,0,1,206.3,393a3.63,3.63,0,0,1-.87-2.61,4.06,4.06,0,0,1,1.8-3.47,8,8,0,0,1,4.83-1.3,13.29,13.29,0,0,1,3.17.39,8.73,8.73,0,0,1,2.62,1.05l-1.24,2.28a8.27,8.27,0,0,0-4.59-1.26,5.33,5.33,0,0,0-2.79.6,1.83,1.83,0,0,0-1,1.59,1.52,1.52,0,0,0,.54,1.23,3.51,3.51,0,0,0,1.34.66c.53.14,1.28.3,2.24.48a24.67,24.67,0,0,1,3.1.7,4.72,4.72,0,0,1,2,1.28,3.6,3.6,0,0,1,.84,2.52,4,4,0,0,1-1.85,3.43,8.71,8.71,0,0,1-5,1.28A13.43,13.43,0,0,1,207.73,401.3Z"/><path class="cls-3" d="M236.27,394.66H223.36a5,5,0,0,0,1.85,3.37,6,6,0,0,0,3.91,1.28,5.92,5.92,0,0,0,4.6-1.92l1.59,1.86a7.06,7.06,0,0,1-2.69,1.92,10.11,10.11,0,0,1-8.06-.38,7.36,7.36,0,0,1-3-2.89,8.3,8.3,0,0,1-1.07-4.2,8.43,8.43,0,0,1,1-4.17,7.43,7.43,0,0,1,2.85-2.9,8.11,8.11,0,0,1,4.1-1,8,8,0,0,1,4.06,1,7.28,7.28,0,0,1,2.79,2.9,8.82,8.82,0,0,1,1,4.26A7.82,7.82,0,0,1,236.27,394.66ZM225,389.29a5.08,5.08,0,0,0-1.64,3.3h10.2a5.12,5.12,0,0,0-1.63-3.29,5.38,5.38,0,0,0-6.93,0Z"/><path class="cls-3" d="M241.12,401.3a8.09,8.09,0,0,1-2.81-1.33l1.19-2.28a8.56,8.56,0,0,0,2.56,1.2,10.38,10.38,0,0,0,3,.45c2.53,0,3.78-.72,3.78-2.16a1.42,1.42,0,0,0-.5-1.14,3.33,3.33,0,0,0-1.28-.62c-.51-.13-1.24-.27-2.18-.43a21.23,21.23,0,0,1-3.13-.69,4.76,4.76,0,0,1-2.08-1.32,3.63,3.63,0,0,1-.88-2.61,4.09,4.09,0,0,1,1.8-3.47,8.06,8.06,0,0,1,4.83-1.3,13.31,13.31,0,0,1,3.18.39,8.55,8.55,0,0,1,2.61,1.05L250,389.32a8.27,8.27,0,0,0-4.59-1.26,5.31,5.31,0,0,0-2.79.6,1.81,1.81,0,0,0-1,1.59,1.52,1.52,0,0,0,.54,1.23,3.44,3.44,0,0,0,1.34.66c.53.14,1.27.3,2.23.48a24.47,24.47,0,0,1,3.11.7,4.63,4.63,0,0,1,2,1.28,3.55,3.55,0,0,1,.84,2.52,4,4,0,0,1-1.84,3.43,8.73,8.73,0,0,1-5,1.28A13.33,13.33,0,0,1,241.12,401.3Z"/><path class="cls-3" d="M266,400.78a7.72,7.72,0,0,1-3-2.9,8.65,8.65,0,0,1,0-8.37,7.6,7.6,0,0,1,3-2.88,8.91,8.91,0,0,1,4.33-1,8.34,8.34,0,0,1,3.86.87,6.18,6.18,0,0,1,2.62,2.52l-2.19,1.41a4.89,4.89,0,0,0-1.86-1.71,5.31,5.31,0,0,0-2.46-.57,5.67,5.67,0,0,0-2.8.69,4.9,4.9,0,0,0-1.95,2,6.44,6.44,0,0,0,0,5.88,4.93,4.93,0,0,0,1.95,2,5.67,5.67,0,0,0,2.8.69,5.31,5.31,0,0,0,2.46-.57,4.89,4.89,0,0,0,1.86-1.71l2.19,1.38a6.27,6.27,0,0,1-2.62,2.53,8.23,8.23,0,0,1-3.86.89A8.81,8.81,0,0,1,266,400.78Z"/><path class="cls-3" d="M291.39,387.22a6.25,6.25,0,0,1,1.75,4.83v9.6h-2.73v-2.1a4.53,4.53,0,0,1-2.05,1.69,7.87,7.87,0,0,1-3.17.59,6.61,6.61,0,0,1-4.27-1.29,4.14,4.14,0,0,1-1.61-3.39,4.18,4.18,0,0,1,1.53-3.38q1.53-1.27,4.86-1.27h4.56v-.57a3.67,3.67,0,0,0-1.08-2.85,4.56,4.56,0,0,0-3.18-1,8.41,8.41,0,0,0-2.76.46A7.12,7.12,0,0,0,281,389.8l-1.2-2.16a8.72,8.72,0,0,1,2.94-1.52,12.3,12.3,0,0,1,3.63-.52A7.2,7.2,0,0,1,291.39,387.22Zm-2.87,11.65a4.19,4.19,0,0,0,1.74-2.08v-2.22h-4.44q-3.66,0-3.66,2.46a2.23,2.23,0,0,0,.93,1.89,4.25,4.25,0,0,0,2.58.69A5.35,5.35,0,0,0,288.52,398.87Z"/><path class="cls-3" d="M299.29,401.3a8.23,8.23,0,0,1-2.82-1.33l1.2-2.28a8.61,8.61,0,0,0,2.55,1.2,10.49,10.49,0,0,0,3,.45q3.78,0,3.78-2.16a1.4,1.4,0,0,0-.51-1.14,3.21,3.21,0,0,0-1.27-.62c-.51-.13-1.24-.27-2.18-.43a21.23,21.23,0,0,1-3.13-.69,4.85,4.85,0,0,1-2.09-1.32,3.67,3.67,0,0,1-.87-2.61,4.09,4.09,0,0,1,1.8-3.47,8.06,8.06,0,0,1,4.83-1.3,13.31,13.31,0,0,1,3.18.39A8.55,8.55,0,0,1,309.4,387l-1.23,2.28a8.27,8.27,0,0,0-4.59-1.26,5.31,5.31,0,0,0-2.79.6,1.81,1.81,0,0,0-1,1.59,1.52,1.52,0,0,0,.54,1.23,3.44,3.44,0,0,0,1.34.66c.53.14,1.27.3,2.23.48a24.47,24.47,0,0,1,3.11.7,4.63,4.63,0,0,1,2,1.28,3.55,3.55,0,0,1,.84,2.52,4,4,0,0,1-1.84,3.43,8.73,8.73,0,0,1-5,1.28A13.33,13.33,0,0,1,299.29,401.3Z"/><path class="cls-3" d="M327.82,394.66h-12.9a5,5,0,0,0,1.85,3.37,6,6,0,0,0,3.91,1.28,5.9,5.9,0,0,0,4.59-1.92l1.59,1.86a7,7,0,0,1-2.68,1.92,10.11,10.11,0,0,1-8.06-.38,7.36,7.36,0,0,1-3-2.89,8.3,8.3,0,0,1-1.07-4.2,8.43,8.43,0,0,1,1-4.17,7.43,7.43,0,0,1,2.85-2.9,8.1,8.1,0,0,1,4.09-1,8,8,0,0,1,4.07,1,7.28,7.28,0,0,1,2.79,2.9,8.82,8.82,0,0,1,1,4.26A8.25,8.25,0,0,1,327.82,394.66Zm-11.26-5.37a5.08,5.08,0,0,0-1.64,3.3h10.2a5.12,5.12,0,0,0-1.63-3.29,5.38,5.38,0,0,0-6.93,0Z"/><path class="cls-3" d="M332.68,401.3a8.23,8.23,0,0,1-2.82-1.33l1.2-2.28a8.61,8.61,0,0,0,2.55,1.2,10.49,10.49,0,0,0,3,.45q3.78,0,3.78-2.16a1.4,1.4,0,0,0-.51-1.14,3.21,3.21,0,0,0-1.27-.62c-.51-.13-1.24-.27-2.18-.43a21.23,21.23,0,0,1-3.13-.69,4.85,4.85,0,0,1-2.09-1.32,3.67,3.67,0,0,1-.87-2.61,4.09,4.09,0,0,1,1.8-3.47,8.06,8.06,0,0,1,4.83-1.3,13.31,13.31,0,0,1,3.18.39,8.55,8.55,0,0,1,2.61,1.05l-1.23,2.28a8.27,8.27,0,0,0-4.59-1.26,5.31,5.31,0,0,0-2.79.6,1.81,1.81,0,0,0-1,1.59,1.52,1.52,0,0,0,.54,1.23,3.44,3.44,0,0,0,1.34.66c.53.14,1.27.3,2.23.48a24.47,24.47,0,0,1,3.11.7,4.63,4.63,0,0,1,2,1.28,3.55,3.55,0,0,1,.84,2.52,4,4,0,0,1-1.84,3.43,8.73,8.73,0,0,1-5,1.28A13.33,13.33,0,0,1,332.68,401.3Z"/><g id="logos"><path id="nodejs" class="cls-3" d="M116.88,333.06a6.92,6.92,0,0,1-3.45-.93l-11-6.49c-1.64-.92-.84-1.24-.3-1.42a21.3,21.3,0,0,0,5-2.26.81.81,0,0,1,.82.07l8.42,5a1,1,0,0,0,1,0l32.84-18.95a1.07,1.07,0,0,0,.5-.89V269.28a1.08,1.08,0,0,0-.52-.91l-32.82-18.93a1,1,0,0,0-1,0l-32.8,18.95a1,1,0,0,0-.52.91v37.89a1,1,0,0,0,.52.87l9,5.19c4.89,2.44,7.87-.43,7.87-3.32V272.52a1,1,0,0,1,1-.95h4.16a1,1,0,0,1,1,.95v37.42c0,6.51-3.55,10.25-9.72,10.25-1.91,0-3.4,0-7.56-2.07l-8.61-5a6.92,6.92,0,0,1-3.44-6V269.28a6.93,6.93,0,0,1,3.44-6l32.81-19a7.22,7.22,0,0,1,6.9,0l32.84,19a6.91,6.91,0,0,1,3.45,6v37.89a7,7,0,0,1-3.45,6l-32.84,18.95A6.87,6.87,0,0,1,116.88,333.06Zm26.51-37.36c0-7.09-4.8-9-14.88-10.31s-11.24-2.05-11.24-4.43c0-2,.87-4.6,8.43-4.6,6.74,0,9.23,1.45,10.26,6a1,1,0,0,0,.92.74h4.27a.89.89,0,0,0,.69-.3,1,1,0,0,0,.25-.73c-.66-7.84-5.87-11.48-16.39-11.48-9.37,0-15,3.94-15,10.57,0,7.19,5.57,9.18,14.55,10.07,10.76,1.05,11.59,2.63,11.59,4.75,0,3.66-2.95,5.22-9.87,5.22-8.69,0-10.59-2.18-11.23-6.5a.94.94,0,0,0-1-.8h-4.25a.93.93,0,0,0-.94.94c0,5.53,3,12.12,17.39,12.12,10.39,0,16.36-4.12,16.36-11.27Z"/><path id="python" class="cls-3" d="M184.89,178.64c-1.22-4.91-3.55-8.62-8.49-8.62H170v7.54a10.91,10.91,0,0,1-10.62,10.78h-17a8.67,8.67,0,0,0-8.49,8.64v16.18c0,4.61,4,7.32,8.49,8.64a28.6,28.6,0,0,0,17,0c4.28-1.24,8.49-3.74,8.49-8.64v-6.47h-17v-2.16H176.4c4.94,0,6.77-3.45,8.49-8.62,1.78-5.33,1.7-10.45,0-17.27ZM160.47,211a3.24,3.24,0,1,1-3.2,3.23A3.21,3.21,0,0,1,160.47,211Zm-18.83-24.79h17a8.55,8.55,0,0,0,8.49-8.63v-16.2c0-4.62-3.88-8.07-8.49-8.85a52.52,52.52,0,0,0-17,0c-7.19,1.27-8.49,3.93-8.49,8.84v6.47h17V170H126.77a10.62,10.62,0,0,0-10.62,8.62,31.85,31.85,0,0,0,0,17.27c1.21,5,4.09,8.62,9,8.62H131v-7.76a10.8,10.8,0,0,1,10.62-10.56Zm-1.06-22.67a3.24,3.24,0,1,1,3.19-3.23A3.22,3.22,0,0,1,140.58,163.54Z"/><path id="php" class="cls-3" d="M97.7,363.86c28.5,0,50.41,12,50.41,25.18s-21.93,25.19-50.41,25.19-50.41-12-50.41-25.19,21.93-25.18,50.41-25.18m0-2.8c-29.38,0-53.2,12.52-53.2,28s23.82,28,53.2,28,53.2-12.52,53.2-28S127.08,361.06,97.7,361.06ZM80.78,386.8c-1.32,6.73-6,6-11.66,6L71.4,381.1c6.32,0,10.61-.69,9.38,5.7ZM60.69,404.72h6.1l1.45-7.45c6.83,0,11.07.5,15-3.17,4.34-4,5.47-11.09,2.37-14.65-1.61-1.86-4.2-2.78-7.73-2.78H66.13Zm30.88-35.51h6.06l-1.44,7.45c5.23,0,10.09-.39,12.43,1.78s1.28,5.15-1.38,18.8h-6.15c2.56-13.2,3-14.3,2.11-15.3s-2.94-.76-7.88-.76L92.2,397.24H86.13l5.44-28Zm36.89,17.59c-1.33,6.83-6.1,6-11.66,6l2.28-11.73c6.35,0,10.61-.69,9.38,5.7Zm-20.09,17.92h6.12l1.45-7.45c7.18,0,11.15.42,15-3.17,4.34-4,5.47-11.09,2.38-14.65-1.61-1.86-4.21-2.78-7.73-2.78H113.83Z"/><g id="go"><path class="cls-3" d="M50.37,461.55c-.22,0-.27-.11-.17-.27l1.15-1.48a.81.81,0,0,1,.6-.27H71.48c.22,0,.27.16.16.33l-.93,1.42a.85.85,0,0,1-.55.33Z"/><path class="cls-3" d="M42.11,466.58c-.22,0-.27-.1-.16-.27l1.15-1.48a.79.79,0,0,1,.6-.27H68.63a.26.26,0,0,1,.28.33l-.44,1.31a.48.48,0,0,1-.49.33Z"/><path class="cls-3" d="M55.34,471.62c-.21,0-.27-.17-.16-.33l.77-1.37a.72.72,0,0,1,.54-.33H67.43c.22,0,.33.17.33.39l-.11,1.31a.41.41,0,0,1-.38.38Z"/><g id="CXHf1q"><path class="cls-3" d="M112.11,460.57c-3.45.87-5.8,1.53-9.19,2.41-.82.21-.88.27-1.59-.55a7.34,7.34,0,0,0-2.57-2.08,9.51,9.51,0,0,0-9.89.82,11.62,11.62,0,0,0-5.58,10.39,8.57,8.57,0,0,0,7.38,8.59,10.1,10.1,0,0,0,9.3-3.61c.49-.6.93-1.26,1.47-2H90.89c-1.15,0-1.42-.71-1-1.64.71-1.69,2-4.54,2.79-6A1.47,1.47,0,0,1,94,466h19.9c-.11,1.47-.11,2.95-.33,4.43a23.33,23.33,0,0,1-4.48,10.72,22.78,22.78,0,0,1-15.59,9.29,19.39,19.39,0,0,1-14.71-3.61,17.19,17.19,0,0,1-6.94-12.14,21.46,21.46,0,0,1,4.65-16,24.24,24.24,0,0,1,15.31-9.46c5.14-.93,10.06-.33,14.49,2.68a17.07,17.07,0,0,1,6.34,7.71C113,460.13,112.76,460.41,112.11,460.57Z"/><path class="cls-3" d="M130.21,490.81A20.54,20.54,0,0,1,116.86,486a17.16,17.16,0,0,1-5.9-10.56,20.84,20.84,0,0,1,4.43-16.51c4-5.25,8.8-8,15.31-9.13,5.58-1,10.83-.44,15.58,2.79A17,17,0,0,1,154,464.78a21.12,21.12,0,0,1-6.28,18.54,25.1,25.1,0,0,1-13.13,7C133.11,490.59,131.63,490.65,130.21,490.81Zm13-22.09a14.86,14.86,0,0,0-.16-1.81,9,9,0,0,0-11.16-7.27,12,12,0,0,0-9.57,9.51,9,9,0,0,0,5,10.34,10,10,0,0,0,8.92-.33A12,12,0,0,0,143.22,468.72Z"/></g></g></g></g><g id="cloud"><g id="logos-2" data-name="logos"><path id="wordpress" class="cls-4" d="M109.51,611.5l15.13,41.43a31.72,31.72,0,0,1-15.13-41.43Zm50.36,11.31a16.64,16.64,0,0,0-2.61-8.74c-1.61-2.61-3.12-4.83-3.12-7.44a5.49,5.49,0,0,1,5.32-5.63l.42,0A31.7,31.7,0,0,0,112,607c.74,0,1.44,0,2,0,3.31,0,8.45-.4,8.45-.4a1.31,1.31,0,0,1,.21,2.61s-1.72.19-3.62.3l11.55,34.33,6.94-20.8-4.93-13.53c-1.71-.11-3.32-.3-3.32-.3a1.31,1.31,0,0,1,.19-2.61s5.23.4,8.34.4c3.31,0,8.45-.4,8.45-.4a1.31,1.31,0,0,1,.21,2.61s-1.71.19-3.62.3l11.46,34.08,3.16-10.57c1.34-4.38,2.39-7.52,2.39-10.24ZM139,627.18l-9.51,27.65a31.7,31.7,0,0,0,19.48-.51,2.55,2.55,0,0,1-.23-.43Zm27.27-18a25.56,25.56,0,0,1,.21,3.27,29.74,29.74,0,0,1-2.42,11.35l-9.68,28a31.76,31.76,0,0,0,11.89-42.63Zm9.14,15.22a37,37,0,1,1-37-37A37,37,0,0,1,175.43,624.41Zm-1.7,0a35.26,35.26,0,1,0-35.26,35.26A35.3,35.3,0,0,0,173.73,624.41Z"/><path id="aws" class="cls-3" d="M588.77,737.29c-.13,4,1.86,5.72,1.9,6.84a1.42,1.42,0,0,1-.71,1.1l-2.24,1.57a1.86,1.86,0,0,1-1,.33c-.08,0-1.43.32-3.59-4.48a13.74,13.74,0,0,1-11,5.15c-2.85.16-10.57-1.61-10.18-9.84-.28-6.7,6-10.86,12.42-10.51a34.62,34.62,0,0,1,8.23,1.1v-2.74c.47-4.63-2.57-8.23-7.85-7.69a20.78,20.78,0,0,0-8,1.77c-1.29.59-1.46.5-1.88.5-1.3,0-.77-3.77-.52-4.24.91-1.12,6.28-3.21,11.55-3.18a13.42,13.42,0,0,1,9.75,3,12.29,12.29,0,0,1,3.09,9.17v12.13ZM573.64,743c5.68-.08,8.08-3.49,8.63-5.33a17.6,17.6,0,0,0,.36-4.8,29.77,29.77,0,0,0-6.93-.85c-2.65-.2-7.5,1-7.31,5.65A4.87,4.87,0,0,0,573.64,743Zm29.93,4a2,2,0,0,1-2.23-1.82l-8.71-28.83a6.4,6.4,0,0,1-.34-1.5.8.8,0,0,1,.67-.92h3.9a2,2,0,0,1,2.2,1.82l6.25,24.66,5.81-24.66a2,2,0,0,1,2.24-1.8h3a1.94,1.94,0,0,1,2.22,1.82l5.86,25,6.45-25a2.06,2.06,0,0,1,2.22-1.82h3.46c.14,0,1.07-.14.91,1.51-.07.32.6-1.87-9.23,29.75A2,2,0,0,1,626,747h-3.27a2,2,0,0,1-2.22-1.88l-5.81-24-5.74,24a2,2,0,0,1-2.22,1.89Zm47.88,1a23.48,23.48,0,0,1-10-2.15,2.23,2.23,0,0,1-1.37-2.08v-1.89c0-1.48,1.08-1.2,1.54-1a24.12,24.12,0,0,0,5,1.68c6.42,1.32,9.24-.4,9.93-.78a4,4,0,0,0,.92-6.12c-1.84-1.54-2.71-1.6-9.3-3.68-.82-.22-7.65-2.38-7.67-9.16-.11-4.95,4.39-9.84,12.17-9.8,2.22,0,8.13.72,9.73,2.73a2.1,2.1,0,0,1,.34,1.24v1.77c0,.77-.29,1.16-.85,1.16-1.35-.15-3.75-2-8.61-1.88-1.21-.06-7,.16-6.73,4.37-.07,3.32,4.66,4.57,5.2,4.71,6.39,1.92,8.52,2.24,11.06,5.18,3,3.9,1.38,8.46.76,9.71-3.34,6.56-12,6-12.13,6Zm7,18.36c-12.26,9.06-30.06,13.88-45.26,13.88a82.08,82.08,0,0,1-55.55-21.14c-1.15-1-.14-2.44,1.25-1.66a111.58,111.58,0,0,0,55.49,14.73,110.38,110.38,0,0,0,42.3-8.67c2.06-.88,3.81,1.36,1.77,2.86Zm5.11-5.82c-1.57-2-10.38-.95-14.32-.48-1.19.14-1.4-.89-.32-1.65,7-4.94,18.54-3.52,19.86-1.86s-.35,13.2-6.92,18.71c-1,.86-2,.41-1.53-.71C661.85,770.81,665.17,762.53,663.6,760.52Z"/><path id="docker" class="cls-3" d="M727.28,682.52h-9.34v-8.4h9.34v8.4Zm0-28.87h-9.34v8.58h9.34Zm11.05,20.46H729v8.39h9.34v-8.39Zm-22.08-10.19h-9.34v8.5h9.34Zm11,0h-9.34v8.5h9.34Zm39.11,14.13c-2-1.37-6.72-1.86-10.33-1.18-.46-3.4-2.36-6.35-5.8-9l-2-1.32-1.31,2c-2.6,3.93-3.31,10.4-.53,14.67a14.33,14.33,0,0,1-6.84,1.51H678.19a29.68,29.68,0,0,0,6.21,22.9c5.25,6.2,13.1,9.35,23.37,9.35,22.24,0,38.7-10.24,46.4-28.85,3,.06,9.55,0,12.9-6.38.21-.36.93-1.87,1.2-2.42l-1.88-1.26Zm-72.21-3.94h-9.32v8.39h9.33v-8.39Zm11,0h-9.34v8.39h9.34Zm11,0h-9.34v8.39h9.34Zm-11-10.19h-9.34v8.5h9.34Z"/><g id="mysql"><path class="cls-4" d="M184.37,718.7h-4.85q-.26-12.33-1.42-23.17h0l-7.39,23.17H167l-7.35-23.19h0q-.81,10.43-1,23.17h-4.43q.44-15.49,2.15-29.07h6l7,21.36h0l7-21.36h5.75q1.89,15.9,2.24,29.09"/><path class="cls-4" d="M205.42,697.24q-3,16.13-7.82,23.43c-2.51,3.77-5.29,5.64-8.29,5.64a8.26,8.26,0,0,1-3-.72V723a13.34,13.34,0,0,0,2,.13,4.85,4.85,0,0,0,3.39-1.17,4.24,4.24,0,0,0,1.54-3.19,21,21,0,0,0-1.21-4.95l-5.32-16.58h4.76l3.82,12.4q1.29,4.22,1.08,5.9a80.75,80.75,0,0,0,4.38-18.3h4.62"/><path class="cls-4" d="M226.69,710.64a7.7,7.7,0,0,1-2.71,6.07,10.6,10.6,0,0,1-7.25,2.36,14.54,14.54,0,0,1-8.26-2.72l1.25-2.5a14.23,14.23,0,0,0,6.23,1.72,6.51,6.51,0,0,0,4.1-1.16,4,4,0,0,0,1.58-3.23c0-1.74-1.2-3.2-3.4-4.45-2-1.11-6.1-3.45-6.1-3.45a7,7,0,0,1-3.31-6.19,7.24,7.24,0,0,1,2.47-5.71,9.28,9.28,0,0,1,6.38-2.18,13.15,13.15,0,0,1,7.34,2.16l-1.12,2.49a14.26,14.26,0,0,0-5.58-1.21,5,5,0,0,0-3.44,1.08,3.59,3.59,0,0,0-1.3,2.76c0,1.72,1.23,3.22,3.49,4.48,2.06,1.11,6.23,3.5,6.23,3.5,2.27,1.63,3.4,3.35,3.4,6.18"/><path class="cls-4" d="M235.37,712.88c-1.18-1.9-1.76-4.94-1.76-9.12q0-11,6.66-11a5.57,5.57,0,0,1,5.11,2.63q1.76,2.85,1.76,9.05,0,11.07-6.66,11.08a5.64,5.64,0,0,1-5.11-2.65m17.26,6.51-5.32-2.63a10.18,10.18,0,0,0,1.33-1.3c2.26-2.67,3.4-6.61,3.4-11.85q0-14.42-11.29-14.42a10.71,10.71,0,0,0-8.64,3.65c-2.26,2.67-3.39,6.62-3.39,11.8s1,8.86,3,11.25c1.82,2.15,4.6,3.23,8.29,3.23a13.38,13.38,0,0,0,3.8-.51l6.95,4,1.87-3.27"/><path class="cls-4" d="M270,718.7h-13.8V689.61h4.63v25.51H270v3.58"/><path class="cls-4" d="M273.34,718.68h.77v-2.95h1v-.6h-2.82v.6h1v2.95Zm5.85,0h.72v-3.56h-1.09l-.89,2.42-1-2.42h-1.05v3.56h.68V716h0l1,2.7h.53l1-2.7v2.7"/><path class="cls-4" d="M275.85,679.88a16.26,16.26,0,0,0-6.8,1c-.53.2-1.36.2-1.44.87.29.28.32.73.57,1.13A7.81,7.81,0,0,0,270,685c.73.57,1.48,1.12,2.25,1.62,1.36.85,2.91,1.34,4.23,2.18.77.49,1.54,1.13,2.31,1.66.39.28.63.74,1.12.91v-.1c-.24-.32-.32-.77-.56-1.13s-.71-.67-1.06-1a16.34,16.34,0,0,0-3.64-3.55c-1.12-.77-3.58-1.83-4-3.12l-.08-.07a14.08,14.08,0,0,0,2.41-.57c1.2-.32,2.28-.24,3.51-.56.56-.14,1.11-.32,1.68-.49v-.32c-.63-.63-1.09-1.48-1.76-2.07a48.63,48.63,0,0,0-5.78-4.33c-1.09-.7-2.49-1.15-3.64-1.75-.43-.21-1.12-.32-1.36-.67a13.73,13.73,0,0,1-1.44-2.71c-1-1.93-2-4.07-2.88-6.11a36,36,0,0,0-1.78-4,35.47,35.47,0,0,0-13.56-13.15,16.71,16.71,0,0,0-4.48-1.44l-2.63-.14a12.22,12.22,0,0,1-1.61-1.23c-2-1.26-7.15-4-8.62-.39-.95,2.29,1.4,4.54,2.21,5.69a17.12,17.12,0,0,1,1.78,2.63c.25.61.33,1.23.57,1.86a42.91,42.91,0,0,0,1.82,4.71,17.78,17.78,0,0,0,1.3,2.19c.28.38.77.56.87,1.19a10.63,10.63,0,0,0-.81,2.63c-1.25,4-.77,8.89,1,11.81.56.87,1.88,2.81,3.68,2.07,1.58-.63,1.23-2.63,1.68-4.39.11-.43,0-.71.25-1V672c.48,1,1,1.92,1.43,2.91a20.21,20.21,0,0,0,4.56,4.71c.84.63,1.5,1.72,2.56,2.11v-.12h-.07a3.22,3.22,0,0,0-.81-.7,17.85,17.85,0,0,1-1.82-2.11,44.82,44.82,0,0,1-3.93-6.39c-.56-1.09-1-2.29-1.5-3.38-.21-.42-.21-1.05-.56-1.26a13.12,13.12,0,0,0-1.69,2.39,20.4,20.4,0,0,0-1,5.3c-.15,0-.07,0-.15.07-1.11-.29-1.5-1.44-1.92-2.43a15.25,15.25,0,0,1-.32-9.38c.24-.73,1.29-3.06.87-3.76-.22-.67-.91-1.06-1.3-1.58a14.6,14.6,0,0,1-1.25-2.25c-.85-2-1.26-4.15-2.17-6.11a20.81,20.81,0,0,0-1.75-2.71,17.33,17.33,0,0,1-1.92-2.73c-.18-.39-.43-1-.15-1.44a.57.57,0,0,1,.49-.46c.45-.39,1.75.1,2.21.32a17.11,17.11,0,0,1,3.47,1.76c.48.34,1,1,1.64,1.19h.73c1.12.25,2.39.07,3.44.39a22,22,0,0,1,5,2.42,31.12,31.12,0,0,1,10.92,12c.42.81.6,1.54,1,2.39.73,1.72,1.64,3.47,2.39,5.16a22.71,22.71,0,0,0,2.49,4.71c.52.73,2.63,1.11,3.56,1.51a22.68,22.68,0,0,1,2.42,1c1.19.73,2.37,1.58,3.5,2.39.61.42,2.35,1.29,2.45,2"/><path class="cls-4" d="M240.12,649.34a5.82,5.82,0,0,0-1.44.18v.07h.06a11.41,11.41,0,0,0,1.12,1.43c.28.57.53,1.12.81,1.68a.22.22,0,0,0,.06-.07,2,2,0,0,0,.75-1.76,5.59,5.59,0,0,1-.43-.75c-.2-.32-.65-.5-.93-.78"/></g><g id="mongo"><path class="cls-4" d="M250,753.69c-2-5-4.72-9.07-6.16-10.14s-4.28-6.95-4.28-6.95.05,9.3.05,19.83l-.07-19.83s-2.81,5.88-4.27,6.95-4.11,5.12-6.17,10.14-4.89,17.75-1.66,25.22,9.73,13.68,9.82,13.79c.52,2.06,1.53,7.75,1.25,8h3.06l.48-8.2c1.12-1.09,6.77-6.9,9.64-13.59C254.93,771.46,252.1,758.74,250,753.69Z"/><path class="cls-4" d="M268.48,769.45c1.48-1.48,2.37-2.35,2.62-2.56a8.15,8.15,0,0,1,2.17-1.32,6,6,0,0,1,2.31-.48,5,5,0,0,1,3.31,1.12,5.61,5.61,0,0,1,1.85,3.24,15.22,15.22,0,0,1,3.89-3.52,7.09,7.09,0,0,1,3.26-.84,5,5,0,0,1,2.9.84,5.39,5.39,0,0,1,2,2.74,12.54,12.54,0,0,1,.5,4.07v8.79a7.42,7.42,0,0,0,.3,2.63,2.07,2.07,0,0,0,.82.85,4.18,4.18,0,0,0,2,.34v.8h-10.1v-.8h.44a3.54,3.54,0,0,0,2.05-.53,1.87,1.87,0,0,0,.73-1.14,13,13,0,0,0,.09-2.17v-8.79a7.6,7.6,0,0,0-.59-3.52,3,3,0,0,0-2.79-1.44,5.34,5.34,0,0,0-2.37.6,12.26,12.26,0,0,0-2.9,2.19l-.05.25.05,1v9.75a8.48,8.48,0,0,0,.22,2.61,1.89,1.89,0,0,0,.9.86,5,5,0,0,0,2.21.35v.8H273.91v-.78a4.59,4.59,0,0,0,2.33-.41,2.24,2.24,0,0,0,.89-1.21,11.91,11.91,0,0,0,.12-2.22v-8.79a6.74,6.74,0,0,0-.73-3.59,3.15,3.15,0,0,0-2.74-1.44,5,5,0,0,0-2.4.64,9.22,9.22,0,0,0-2.86,2.22v11a7.39,7.39,0,0,0,.28,2.61,1.87,1.87,0,0,0,.82.91,5.12,5.12,0,0,0,2.21.3v.8H261.72v-.78a4.37,4.37,0,0,0,2-.3,1.92,1.92,0,0,0,.85-1,7.74,7.74,0,0,0,.29-2.56V773.7a29.15,29.15,0,0,0-.2-4.36,1.84,1.84,0,0,0-.51-1,1.39,1.39,0,0,0-.91-.27,4.07,4.07,0,0,0-1.48.34l-.35-.8,6.17-2.49h1l0,4.34Z"/><path class="cls-4" d="M308,765.09a9,9,0,0,1,7.45,3.52,10.79,10.79,0,0,1,2.4,6.92,12.86,12.86,0,0,1-1.33,5.55,9.38,9.38,0,0,1-8.77,5.69,8.75,8.75,0,0,1-7.36-3.68,11.46,11.46,0,0,1-2.3-7,12.22,12.22,0,0,1,1.39-5.59,9.55,9.55,0,0,1,3.68-4.12A9.73,9.73,0,0,1,308,765.09Zm-.71,1.46a4.52,4.52,0,0,0-2.37.71,5.06,5.06,0,0,0-1.94,2.47,12,12,0,0,0-.74,4.52A15.71,15.71,0,0,0,304,782c1.18,2.17,2.74,3.24,4.68,3.24a4.33,4.33,0,0,0,3.56-1.78c.94-1.19,1.42-3.25,1.42-6.15q0-5.44-2.35-8.56A4.8,4.8,0,0,0,307.26,766.55Z"/><path class="cls-4" d="M326.79,769.43c2.4-2.88,4.69-4.34,6.86-4.34a4.81,4.81,0,0,1,2.87.84,5.66,5.66,0,0,1,1.92,2.77,12.9,12.9,0,0,1,.5,4.11v8.72a7.41,7.41,0,0,0,.32,2.63,1.87,1.87,0,0,0,.8.87,4.41,4.41,0,0,0,2,.32v.8H332v-.8h.43a3.35,3.35,0,0,0,2-.43,2.36,2.36,0,0,0,.8-1.28,13.06,13.06,0,0,0,.09-2.11v-8.38a8.45,8.45,0,0,0-.73-4,2.58,2.58,0,0,0-2.45-1.26c-1.78,0-3.54,1-5.3,2.9v10.78a7.61,7.61,0,0,0,.25,2.56,2.1,2.1,0,0,0,.87,1,5.18,5.18,0,0,0,2.22.3v.8H320v-.8h.46a2.38,2.38,0,0,0,2.1-.8,5.8,5.8,0,0,0,.55-3v-7.6a33.51,33.51,0,0,0-.16-4.48,2.05,2.05,0,0,0-.51-1.09,1.44,1.44,0,0,0-.93-.3,4.12,4.12,0,0,0-1.49.34l-.34-.8,6.17-2.49h1l0,4.32Z"/><path class="cls-4" d="M349.16,778.68a6.67,6.67,0,0,1-2.88-2.56,6.85,6.85,0,0,1-1-3.63,7,7,0,0,1,2.29-5.23,8.13,8.13,0,0,1,5.87-2.19,9,9,0,0,1,5.07,1.43h4.34a8.55,8.55,0,0,1,1.12,0,.43.43,0,0,1,.23.18,1.37,1.37,0,0,1,.13.71,2,2,0,0,1-.11.8.48.48,0,0,1-.23.18,4.45,4.45,0,0,1-1.12.07h-2.65a6.62,6.62,0,0,1,1.26,4.11,6.41,6.41,0,0,1-2.2,4.89,8.31,8.31,0,0,1-5.87,2,11.74,11.74,0,0,1-3.1-.45,5.57,5.57,0,0,0-1.33,1.48,2.4,2.4,0,0,0-.34,1.08,1,1,0,0,0,.37.73,2.69,2.69,0,0,0,1.43.5c.42.07,1.47.11,3.13.16q4.59.11,6,.32a5.55,5.55,0,0,1,3.31,1.53,4.18,4.18,0,0,1,1.23,3.08,6.45,6.45,0,0,1-2.37,4.73,12.8,12.8,0,0,1-9.1,3.27,13,13,0,0,1-7.28-1.94c-1.12-.76-1.67-1.51-1.67-2.33a2.66,2.66,0,0,1,.25-1.08,13.44,13.44,0,0,1,1.55-2.3c.12-.14.87-.94,2.29-2.43a6.58,6.58,0,0,1-1.65-1.23,1.82,1.82,0,0,1-.48-1.23,3.57,3.57,0,0,1,.64-1.83A15.52,15.52,0,0,1,349.16,778.68Zm-.23,7.47a9.57,9.57,0,0,0-1.58,2.12,3.81,3.81,0,0,0-.52,1.81,2.23,2.23,0,0,0,1.3,1.87,12.39,12.39,0,0,0,6.44,1.39c2.67,0,4.66-.48,5.91-1.41a3.91,3.91,0,0,0,1.92-3,1.67,1.67,0,0,0-1.14-1.64,14.65,14.65,0,0,0-4.59-.57C353.31,786.56,350.73,786.4,348.93,786.15Zm4.11-20a3.46,3.46,0,0,0-2.77,1.33,6.07,6.07,0,0,0-1.11,4,8.72,8.72,0,0,0,1.5,5.46,3.6,3.6,0,0,0,2.95,1.46,3.51,3.51,0,0,0,2.79-1.28,6,6,0,0,0,1.09-4,8.87,8.87,0,0,0-1.53-5.55A3.56,3.56,0,0,0,353,766.16Z"/><path class="cls-4" d="M376.54,765.09a9,9,0,0,1,7.45,3.52,10.79,10.79,0,0,1,2.4,6.92,12.86,12.86,0,0,1-1.33,5.55,9.38,9.38,0,0,1-8.77,5.69,8.72,8.72,0,0,1-7.35-3.68,11.47,11.47,0,0,1-2.31-7,12.35,12.35,0,0,1,1.39-5.59,9.55,9.55,0,0,1,3.68-4.12A9.84,9.84,0,0,1,376.54,765.09Zm-.68,1.46a4.55,4.55,0,0,0-2.38.71,5.06,5.06,0,0,0-1.94,2.47,11.65,11.65,0,0,0-.73,4.52,15.7,15.7,0,0,0,1.78,7.7c1.19,2.17,2.74,3.24,4.68,3.24a4.36,4.36,0,0,0,3.57-1.78c.93-1.19,1.41-3.25,1.41-6.15,0-3.63-.77-6.48-2.35-8.56A4.8,4.8,0,0,0,375.86,766.55Z"/><path class="cls-4" d="M388.58,786.15v-.82h1a4.08,4.08,0,0,0,2-.41,2.3,2.3,0,0,0,1-1.12,10.3,10.3,0,0,0,.21-2.81V761.07a10,10,0,0,0-.25-2.9,2.2,2.2,0,0,0-1-1,4,4,0,0,0-2-.43h-1v-.85h13.55a21.17,21.17,0,0,1,8.72,1.49,13,13,0,0,1,6.12,5.46A17.48,17.48,0,0,1,418,777a13.67,13.67,0,0,1-2.65,4.46,13.13,13.13,0,0,1-3.76,2.81,20.5,20.5,0,0,1-5.21,1.64,24.44,24.44,0,0,1-4.3.27H388.58Zm11.54-28.55v23.62a8.3,8.3,0,0,0,.18,2.3,1.23,1.23,0,0,0,.59.64,3.58,3.58,0,0,0,1.74.34,6.75,6.75,0,0,0,5.69-2.53Q411,778.53,411,771.3a20.31,20.31,0,0,0-1.83-9.32,7.78,7.78,0,0,0-3.72-3.7A13.56,13.56,0,0,0,400.12,757.6Z"/><path class="cls-4" d="M441.35,770.09a15.24,15.24,0,0,1,6,2.45,6.42,6.42,0,0,1,2.49,5.27,7,7,0,0,1-2.74,5.64c-2.24,1.81-5.51,2.7-9.8,2.7H422v-.82a7.2,7.2,0,0,0,2.85-.39,2.24,2.24,0,0,0,1.05-1,9,9,0,0,0,.3-3.08V761.21a9,9,0,0,0-.3-3.09,2.14,2.14,0,0,0-1.05-1,7.15,7.15,0,0,0-2.83-.39v-.85h14.5c3.48,0,5.92.32,7.38.94a7.8,7.8,0,0,1,3.43,2.76,7,7,0,0,1,1.25,3.93,5.61,5.61,0,0,1-1.57,3.91A12.39,12.39,0,0,1,441.35,770.09Zm-8.14,1.14v9.71l0,1.12a2.5,2.5,0,0,0,.62,1.83,2.45,2.45,0,0,0,1.83.61,6.92,6.92,0,0,0,3.28-.8,5.29,5.29,0,0,0,2.31-2.3A7.12,7.12,0,0,0,442,778a7.41,7.41,0,0,0-1-3.81,5.29,5.29,0,0,0-2.7-2.36A14.93,14.93,0,0,0,433.21,771.23Zm0-1.73a11.49,11.49,0,0,0,4.69-.71,5.21,5.21,0,0,0,2.3-2,6.26,6.26,0,0,0,.8-3.31,6.09,6.09,0,0,0-.8-3.29,5.13,5.13,0,0,0-2.26-2,11.9,11.9,0,0,0-4.73-.64V769.5Z"/></g></g><path class="cls-3" d="M332.93,601.52a10.28,10.28,0,0,1-4-3.84,11.24,11.24,0,0,1,0-11,10.24,10.24,0,0,1,4-3.84,11.68,11.68,0,0,1,5.7-1.39,11.9,11.9,0,0,1,4.5.82,9.22,9.22,0,0,1,3.48,2.45l-1.95,1.89a7.82,7.82,0,0,0-5.91-2.49,8.56,8.56,0,0,0-4.23,1,7.59,7.59,0,0,0-2.95,2.89,8.49,8.49,0,0,0,0,8.25,7.61,7.61,0,0,0,2.95,2.9,8.56,8.56,0,0,0,4.23,1,7.84,7.84,0,0,0,5.91-2.52l1.95,1.89a9.31,9.31,0,0,1-3.49,2.46,11.85,11.85,0,0,1-4.52.84A11.58,11.58,0,0,1,332.93,601.52Z"/><path class="cls-3" d="M352.38,601.81a7.61,7.61,0,0,1-2.95-2.9,8.72,8.72,0,0,1,0-8.37,7.5,7.5,0,0,1,2.95-2.88,9.3,9.3,0,0,1,8.51,0,7.54,7.54,0,0,1,2.94,2.88,8.79,8.79,0,0,1,0,8.37,7.66,7.66,0,0,1-2.94,2.9,9.15,9.15,0,0,1-8.51,0Zm7-2.18a5,5,0,0,0,1.9-2,6.54,6.54,0,0,0,0-5.85,4.85,4.85,0,0,0-1.9-2,5.81,5.81,0,0,0-5.49,0,5,5,0,0,0-1.92,2,6.38,6.38,0,0,0,0,5.85,5.08,5.08,0,0,0,1.92,2,5.66,5.66,0,0,0,5.49,0Z"/><path class="cls-3" d="M382.19,588.38a6.91,6.91,0,0,1,1.78,5.15v9.15h-2.88v-8.82a4.88,4.88,0,0,0-1.11-3.48,4.17,4.17,0,0,0-3.18-1.17,5,5,0,0,0-3.69,1.36,5.35,5.35,0,0,0-1.35,3.92v8.19h-2.88v-15.9h2.76v2.4a5.61,5.61,0,0,1,2.36-1.89,8.21,8.21,0,0,1,3.37-.66A6.58,6.58,0,0,1,382.19,588.38Z"/><path class="cls-3" d="M398.25,601.75a4.29,4.29,0,0,1-1.56.82,6.52,6.52,0,0,1-1.92.29,5.1,5.1,0,0,1-3.72-1.29,4.93,4.93,0,0,1-1.32-3.69v-8.73H387v-2.37h2.7V583.3h2.88v3.48h4.56v2.37h-4.56v8.61a2.79,2.79,0,0,0,.65,2,2.39,2.39,0,0,0,1.84.69,3.47,3.47,0,0,0,2.25-.75Z"/><path class="cls-3" d="M415.5,595.69H402.6a5,5,0,0,0,1.85,3.37,6,6,0,0,0,3.91,1.28,5.9,5.9,0,0,0,4.59-1.92l1.59,1.86a7,7,0,0,1-2.68,1.92,10.11,10.11,0,0,1-8.06-.38,7.36,7.36,0,0,1-3-2.89,8.3,8.3,0,0,1-1.07-4.2,8.43,8.43,0,0,1,1-4.17,7.43,7.43,0,0,1,2.85-2.9,8.1,8.1,0,0,1,4.09-1,8,8,0,0,1,4.07,1,7.28,7.28,0,0,1,2.79,2.9,8.82,8.82,0,0,1,1,4.26A8.25,8.25,0,0,1,415.5,595.69Zm-11.26-5.37a5.08,5.08,0,0,0-1.64,3.3h10.2a5.12,5.12,0,0,0-1.63-3.29,5.38,5.38,0,0,0-6.93,0Z"/><path class="cls-3" d="M432.86,588.38a6.91,6.91,0,0,1,1.78,5.15v9.15h-2.88v-8.82a4.88,4.88,0,0,0-1.11-3.48,4.17,4.17,0,0,0-3.18-1.17,5,5,0,0,0-3.69,1.36,5.35,5.35,0,0,0-1.35,3.92v8.19h-2.88v-15.9h2.76v2.4a5.61,5.61,0,0,1,2.36-1.89,8.21,8.21,0,0,1,3.37-.66A6.58,6.58,0,0,1,432.86,588.38Z"/><path class="cls-3" d="M448.92,601.75a4.29,4.29,0,0,1-1.56.82,6.52,6.52,0,0,1-1.92.29,5.1,5.1,0,0,1-3.72-1.29,4.93,4.93,0,0,1-1.32-3.69v-8.73h-2.7v-2.37h2.7V583.3h2.88v3.48h4.56v2.37h-4.56v8.61a2.79,2.79,0,0,0,.65,2,2.39,2.39,0,0,0,1.84.69,3.47,3.47,0,0,0,2.25-.75Z"/><path class="cls-3" d="M480.36,602.68l0-15.3-7.59,12.75h-1.38l-7.59-12.66v15.21h-2.88v-21h2.46l8.76,14.76,8.64-14.76h2.46l0,21Z"/><path class="cls-3" d="M500,588.25a6.25,6.25,0,0,1,1.75,4.83v9.6H499v-2.1a4.53,4.53,0,0,1-2.05,1.69,7.87,7.87,0,0,1-3.17.59,6.61,6.61,0,0,1-4.27-1.29,4.14,4.14,0,0,1-1.61-3.39,4.18,4.18,0,0,1,1.53-3.38q1.53-1.27,4.86-1.27h4.56V593a3.67,3.67,0,0,0-1.08-2.85,4.56,4.56,0,0,0-3.18-1,8.41,8.41,0,0,0-2.76.46,7.12,7.12,0,0,0-2.28,1.25l-1.2-2.16a8.72,8.72,0,0,1,2.94-1.52,12.3,12.3,0,0,1,3.63-.52A7.2,7.2,0,0,1,500,588.25ZM497.1,599.9a4.19,4.19,0,0,0,1.74-2.08V595.6H494.4q-3.66,0-3.66,2.46a2.23,2.23,0,0,0,.93,1.89,4.25,4.25,0,0,0,2.58.69A5.35,5.35,0,0,0,497.1,599.9Z"/><path class="cls-3" d="M520.37,588.38a6.91,6.91,0,0,1,1.78,5.15v9.15h-2.88v-8.82a4.88,4.88,0,0,0-1.11-3.48,4.17,4.17,0,0,0-3.18-1.17,5,5,0,0,0-3.69,1.36,5.35,5.35,0,0,0-1.35,3.92v8.19h-2.88v-15.9h2.76v2.4a5.61,5.61,0,0,1,2.36-1.89,8.21,8.21,0,0,1,3.37-.66A6.58,6.58,0,0,1,520.37,588.38Z"/><path class="cls-3" d="M538.34,588.25a6.25,6.25,0,0,1,1.75,4.83v9.6h-2.73v-2.1a4.53,4.53,0,0,1-2.05,1.69,7.87,7.87,0,0,1-3.17.59,6.61,6.61,0,0,1-4.27-1.29,4.14,4.14,0,0,1-1.61-3.39,4.18,4.18,0,0,1,1.53-3.38q1.53-1.27,4.86-1.27h4.56V593a3.67,3.67,0,0,0-1.08-2.85,4.56,4.56,0,0,0-3.18-1,8.41,8.41,0,0,0-2.76.46,7.12,7.12,0,0,0-2.28,1.25l-1.2-2.16a8.72,8.72,0,0,1,2.94-1.52,12.3,12.3,0,0,1,3.63-.52A7.2,7.2,0,0,1,538.34,588.25Zm-2.87,11.65a4.19,4.19,0,0,0,1.74-2.08V595.6h-4.44q-3.66,0-3.66,2.46A2.23,2.23,0,0,0,530,600a4.25,4.25,0,0,0,2.58.69A5.35,5.35,0,0,0,535.47,599.9Z"/><path class="cls-3" d="M560.73,586.78v13.74q0,4.17-2.07,6.16t-6.18,2a14.79,14.79,0,0,1-4.29-.62,8.49,8.49,0,0,1-3.3-1.75l1.38-2.22A8.16,8.16,0,0,0,549,605.6a10.4,10.4,0,0,0,3.37.56,5.67,5.67,0,0,0,4.13-1.32,5.43,5.43,0,0,0,1.33-4v-1.26a6.35,6.35,0,0,1-2.5,1.84,8.37,8.37,0,0,1-3.23.62,8.67,8.67,0,0,1-4.12-1,7.27,7.27,0,0,1-2.9-2.73,8.16,8.16,0,0,1,0-8,7.15,7.15,0,0,1,2.9-2.71,8.78,8.78,0,0,1,4.12-1,8.45,8.45,0,0,1,3.35.66,6.19,6.19,0,0,1,2.53,2v-2.46Zm-5.47,12.06a4.89,4.89,0,0,0,2-1.85,5.13,5.13,0,0,0,.7-2.68,4.88,4.88,0,0,0-1.53-3.74,6.19,6.19,0,0,0-7.89,0,4.88,4.88,0,0,0-1.53,3.74,5.14,5.14,0,0,0,.71,2.68,4.89,4.89,0,0,0,2,1.85,6.35,6.35,0,0,0,5.64,0Z"/><path class="cls-3" d="M580.53,595.69h-12.9a5,5,0,0,0,1.85,3.37,6,6,0,0,0,3.91,1.28,5.9,5.9,0,0,0,4.59-1.92l1.59,1.86a7,7,0,0,1-2.68,1.92,10.11,10.11,0,0,1-8.06-.38,7.36,7.36,0,0,1-3-2.89,8.3,8.3,0,0,1-1.07-4.2,8.43,8.43,0,0,1,1-4.17,7.43,7.43,0,0,1,2.85-2.9,8.1,8.1,0,0,1,4.09-1,8,8,0,0,1,4.07,1,7.28,7.28,0,0,1,2.79,2.9,8.82,8.82,0,0,1,1,4.26A8.25,8.25,0,0,1,580.53,595.69Zm-11.26-5.37a5.08,5.08,0,0,0-1.64,3.3h10.2a5.12,5.12,0,0,0-1.63-3.29,5.38,5.38,0,0,0-6.93,0Z"/><path class="cls-3" d="M589.56,587.35a8.06,8.06,0,0,1,3.57-.72v2.79a5.62,5.62,0,0,0-.66,0,4.83,4.83,0,0,0-3.67,1.39,5.54,5.54,0,0,0-1.34,4v7.92h-2.88v-15.9h2.76v2.67A4.91,4.91,0,0,1,589.56,587.35Z"/><path class="cls-3" d="M597.6,602.33a8.23,8.23,0,0,1-2.82-1.33l1.2-2.28a8.61,8.61,0,0,0,2.55,1.2,10.49,10.49,0,0,0,3,.45q3.78,0,3.78-2.16a1.4,1.4,0,0,0-.51-1.14,3.21,3.21,0,0,0-1.27-.62c-.51-.13-1.24-.27-2.18-.43a21.23,21.23,0,0,1-3.13-.69,4.85,4.85,0,0,1-2.09-1.32,3.67,3.67,0,0,1-.87-2.61,4.09,4.09,0,0,1,1.8-3.47,8.06,8.06,0,0,1,4.83-1.3,13.31,13.31,0,0,1,3.18.39,8.55,8.55,0,0,1,2.61,1.05l-1.23,2.28a8.27,8.27,0,0,0-4.59-1.26,5.31,5.31,0,0,0-2.79.6,1.81,1.81,0,0,0-1,1.59,1.52,1.52,0,0,0,.54,1.23,3.44,3.44,0,0,0,1.34.66c.53.14,1.27.3,2.23.48a24.47,24.47,0,0,1,3.11.7,4.63,4.63,0,0,1,2,1.28,3.55,3.55,0,0,1,.84,2.52,4,4,0,0,1-1.84,3.43,8.73,8.73,0,0,1-5,1.28A13.33,13.33,0,0,1,597.6,602.33Z"/><path class="cls-3" d="M338.18,637.52a10.28,10.28,0,0,1-4-3.84,11.24,11.24,0,0,1,0-11,10.24,10.24,0,0,1,4-3.84,11.68,11.68,0,0,1,5.7-1.39,11.9,11.9,0,0,1,4.5.82,9.22,9.22,0,0,1,3.48,2.45l-1.95,1.89a7.82,7.82,0,0,0-5.91-2.49,8.56,8.56,0,0,0-4.23,1,7.59,7.59,0,0,0-2.95,2.89,8.49,8.49,0,0,0,0,8.25,7.61,7.61,0,0,0,2.95,2.9,8.56,8.56,0,0,0,4.23,1,7.84,7.84,0,0,0,5.91-2.52l1.95,1.89a9.31,9.31,0,0,1-3.49,2.46,11.85,11.85,0,0,1-4.52.84A11.58,11.58,0,0,1,338.18,637.52Z"/><path class="cls-3" d="M355.74,616.42h2.88v22.26h-2.88Z"/><path class="cls-3" d="M366.66,637.81a7.61,7.61,0,0,1-3-2.9,8.72,8.72,0,0,1,0-8.37,7.5,7.5,0,0,1,3-2.88,9.3,9.3,0,0,1,8.51,0,7.54,7.54,0,0,1,2.94,2.88,8.79,8.79,0,0,1,0,8.37,7.66,7.66,0,0,1-2.94,2.9,9.15,9.15,0,0,1-8.51,0Zm7-2.18a5,5,0,0,0,1.9-2,6.54,6.54,0,0,0,0-5.85,4.85,4.85,0,0,0-1.9-2,5.81,5.81,0,0,0-5.49,0,5,5,0,0,0-1.92,2,6.38,6.38,0,0,0,0,5.85,5.08,5.08,0,0,0,1.92,2,5.66,5.66,0,0,0,5.49,0Z"/><path class="cls-3" d="M398,622.78v15.9h-2.73v-2.4a5.76,5.76,0,0,1-2.29,1.9,7.19,7.19,0,0,1-3.11.68,6.94,6.94,0,0,1-5-1.76,6.83,6.83,0,0,1-1.83-5.17v-9.15h2.88v8.82a4.92,4.92,0,0,0,1.11,3.49,4.15,4.15,0,0,0,3.18,1.19,4.75,4.75,0,0,0,3.6-1.38,5.42,5.42,0,0,0,1.32-3.9v-8.22Z"/><path class="cls-3" d="M418.47,616.42v22.26h-2.76v-2.52a6.24,6.24,0,0,1-2.43,2,7.53,7.53,0,0,1-3.24.69,8.36,8.36,0,0,1-4.14-1A7.31,7.31,0,0,1,403,635a9.14,9.14,0,0,1,0-8.47,7.32,7.32,0,0,1,2.86-2.85,8.36,8.36,0,0,1,4.14-1,7.61,7.61,0,0,1,3.15.64,6.13,6.13,0,0,1,2.4,1.91v-8.76ZM413,635.63a5,5,0,0,0,1.92-2,6.54,6.54,0,0,0,0-5.85,4.83,4.83,0,0,0-1.92-2,5.77,5.77,0,0,0-5.47,0,5,5,0,0,0-1.92,2,6.38,6.38,0,0,0,0,5.85,5.08,5.08,0,0,0,1.92,2,5.62,5.62,0,0,0,5.47,0Z"/><path class="cls-3" d="M436.13,637.52a10.28,10.28,0,0,1-4-3.84,11.24,11.24,0,0,1,0-11,10.24,10.24,0,0,1,4-3.84,11.68,11.68,0,0,1,5.7-1.39,11.9,11.9,0,0,1,4.5.82,9.22,9.22,0,0,1,3.48,2.45l-1.95,1.89a7.82,7.82,0,0,0-5.91-2.49,8.56,8.56,0,0,0-4.23,1,7.59,7.59,0,0,0-3,2.89,8.49,8.49,0,0,0,0,8.25,7.61,7.61,0,0,0,3,2.9,8.56,8.56,0,0,0,4.23,1,7.84,7.84,0,0,0,5.91-2.52l1.95,1.89a9.31,9.31,0,0,1-3.49,2.46,11.85,11.85,0,0,1-4.52.84A11.58,11.58,0,0,1,436.13,637.52Z"/><path class="cls-3" d="M455.58,637.81a7.61,7.61,0,0,1-2.95-2.9,8.72,8.72,0,0,1,0-8.37,7.5,7.5,0,0,1,2.95-2.88,9.3,9.3,0,0,1,8.51,0,7.54,7.54,0,0,1,2.94,2.88,8.79,8.79,0,0,1,0,8.37,7.66,7.66,0,0,1-2.94,2.9,9.15,9.15,0,0,1-8.51,0Zm7-2.18a5,5,0,0,0,1.9-2,6.54,6.54,0,0,0,0-5.85,4.85,4.85,0,0,0-1.9-2,5.81,5.81,0,0,0-5.49,0,5,5,0,0,0-1.92,2,6.38,6.38,0,0,0,0,5.85,5.08,5.08,0,0,0,1.92,2,5.66,5.66,0,0,0,5.49,0Z"/><path class="cls-3" d="M496.73,624.37a7,7,0,0,1,1.75,5.16v9.15H495.6v-8.82a5,5,0,0,0-1.06-3.48,3.92,3.92,0,0,0-3.05-1.17,4.56,4.56,0,0,0-3.48,1.36,5.5,5.5,0,0,0-1.29,3.92v8.19h-2.88v-8.82a5,5,0,0,0-1.06-3.48,3.92,3.92,0,0,0-3-1.17,4.56,4.56,0,0,0-3.48,1.36,5.5,5.5,0,0,0-1.29,3.92v8.19h-2.88v-15.9h2.76v2.37a5.59,5.59,0,0,1,2.28-1.88,7.63,7.63,0,0,1,3.21-.64,7,7,0,0,1,3.3.75,5.21,5.21,0,0,1,2.22,2.19,6.11,6.11,0,0,1,2.51-2.16,8.14,8.14,0,0,1,3.61-.78A6.47,6.47,0,0,1,496.73,624.37Z"/><path class="cls-3" d="M516.36,623.65a7.35,7.35,0,0,1,2.87,2.85,9.22,9.22,0,0,1,0,8.47,7.33,7.33,0,0,1-2.87,2.87,8.36,8.36,0,0,1-4.14,1,7.35,7.35,0,0,1-3.13-.66,6.54,6.54,0,0,1-2.42-1.92v8.22h-2.88V622.78h2.76v2.52a6.13,6.13,0,0,1,2.43-2,7.67,7.67,0,0,1,3.24-.67A8.36,8.36,0,0,1,516.36,623.65Zm-1.63,12a5.08,5.08,0,0,0,1.92-2,6.46,6.46,0,0,0,0-5.85,5,5,0,0,0-1.92-2,5.48,5.48,0,0,0-2.75-.69,5.29,5.29,0,0,0-2.71.7,5.12,5.12,0,0,0-1.92,2,5.86,5.86,0,0,0-.71,2.91,6,6,0,0,0,.69,2.92,5,5,0,0,0,1.92,2,5.64,5.64,0,0,0,5.48,0Z"/><path class="cls-3" d="M539.07,622.78v15.9h-2.73v-2.4a5.76,5.76,0,0,1-2.29,1.9,7.19,7.19,0,0,1-3.11.68,6.94,6.94,0,0,1-5-1.76,6.83,6.83,0,0,1-1.83-5.17v-9.15H527v8.82a4.92,4.92,0,0,0,1.11,3.49,4.15,4.15,0,0,0,3.18,1.19,4.75,4.75,0,0,0,3.6-1.38,5.42,5.42,0,0,0,1.32-3.9v-8.22Z"/><path class="cls-3" d="M553.5,637.75a4.29,4.29,0,0,1-1.56.82,6.52,6.52,0,0,1-1.92.29,5.1,5.1,0,0,1-3.72-1.29,4.93,4.93,0,0,1-1.32-3.69v-8.73h-2.7v-2.37H545V619.3h2.88v3.48h4.56v2.37h-4.56v8.61a2.79,2.79,0,0,0,.65,2,2.39,2.39,0,0,0,1.84.69,3.47,3.47,0,0,0,2.25-.75Z"/><path class="cls-3" d="M557,619.18a1.78,1.78,0,0,1-.56-1.32,1.84,1.84,0,0,1,.56-1.34,1.88,1.88,0,0,1,1.39-.55,2,2,0,0,1,1.4.52,1.73,1.73,0,0,1,.55,1.31,1.84,1.84,0,0,1-.55,1.36,2,2,0,0,1-2.79,0Zm0,3.6h2.88v15.9H557Z"/><path class="cls-3" d="M578.66,624.38a6.91,6.91,0,0,1,1.78,5.15v9.15h-2.88v-8.82a4.88,4.88,0,0,0-1.11-3.48,4.17,4.17,0,0,0-3.18-1.17,5,5,0,0,0-3.69,1.36,5.35,5.35,0,0,0-1.35,3.92v8.19h-2.88v-15.9h2.76v2.4a5.61,5.61,0,0,1,2.36-1.89,8.21,8.21,0,0,1,3.37-.66A6.58,6.58,0,0,1,578.66,624.38Z"/><path class="cls-3" d="M601.08,622.78v13.74q0,4.17-2.07,6.16t-6.18,2a14.79,14.79,0,0,1-4.29-.62,8.49,8.49,0,0,1-3.3-1.75l1.38-2.22a8.16,8.16,0,0,0,2.75,1.51,10.4,10.4,0,0,0,3.37.56,5.67,5.67,0,0,0,4.13-1.32,5.43,5.43,0,0,0,1.33-4v-1.26a6.35,6.35,0,0,1-2.5,1.84,8.37,8.37,0,0,1-3.23.62,8.67,8.67,0,0,1-4.12-1,7.27,7.27,0,0,1-2.9-2.73,8.16,8.16,0,0,1,0-8,7.15,7.15,0,0,1,2.9-2.71,8.78,8.78,0,0,1,4.12-1,8.45,8.45,0,0,1,3.35.66,6.19,6.19,0,0,1,2.53,2v-2.46Zm-5.47,12.06a4.89,4.89,0,0,0,1.95-1.85,5.13,5.13,0,0,0,.7-2.68,4.88,4.88,0,0,0-1.53-3.74,6.19,6.19,0,0,0-7.89,0,4.88,4.88,0,0,0-1.53,3.74A5.14,5.14,0,0,0,588,633a4.89,4.89,0,0,0,2,1.85,6.35,6.35,0,0,0,5.64,0Z"/><path class="cls-3" d="M399.41,675l-2.79-2.79a9.69,9.69,0,0,1-7,2.7,9.87,9.87,0,0,1-3.78-.69,6.15,6.15,0,0,1-2.63-1.94,4.55,4.55,0,0,1-.94-2.83,5.32,5.32,0,0,1,1.18-3.41,13.75,13.75,0,0,1,3.92-3,10.54,10.54,0,0,1-2-2.49,5,5,0,0,1-.57-2.31,4.23,4.23,0,0,1,1.54-3.42,6.24,6.24,0,0,1,4.13-1.29,5.78,5.78,0,0,1,3.81,1.17,4,4,0,0,1,1.41,3.21,4.38,4.38,0,0,1-1,2.85,12.57,12.57,0,0,1-3.43,2.64l5.19,5.16a13.37,13.37,0,0,0,1.29-3.81l2.31.75a13.88,13.88,0,0,1-1.83,4.8l2.82,2.82Zm-4.5-4.47-6-5.94a10.8,10.8,0,0,0-3,2.23,3.56,3.56,0,0,0-.85,2.33,2.85,2.85,0,0,0,1.3,2.43,5.75,5.75,0,0,0,3.41.93A7,7,0,0,0,394.91,670.54Zm-6.62-14.24a2.36,2.36,0,0,0-.79,1.85,3.06,3.06,0,0,0,.43,1.56,11.89,11.89,0,0,0,1.7,2,12.84,12.84,0,0,0,2.86-2,2.62,2.62,0,0,0,.8-1.83,2.11,2.11,0,0,0-.74-1.68,3,3,0,0,0-2.05-.63A3.22,3.22,0,0,0,388.29,656.3Z"/><path class="cls-3" d="M412.7,653.68h8.85a12.79,12.79,0,0,1,5.91,1.32,9.67,9.67,0,0,1,4,3.7,11.2,11.2,0,0,1,0,10.95,9.7,9.7,0,0,1-4,3.71,12.79,12.79,0,0,1-5.91,1.32H412.7Zm8.67,18.39a9.69,9.69,0,0,0,4.48-1,7.18,7.18,0,0,0,3-2.78,8.63,8.63,0,0,0,0-8.25,7.16,7.16,0,0,0-3-2.77,9.69,9.69,0,0,0-4.48-1H415.7v15.78Z"/><path class="cls-3" d="M447.9,660.25a6.26,6.26,0,0,1,1.76,4.83v9.6h-2.73v-2.1a4.56,4.56,0,0,1-2.06,1.69,7.82,7.82,0,0,1-3.16.59,6.64,6.64,0,0,1-4.28-1.29,4.13,4.13,0,0,1-1.6-3.39,4.18,4.18,0,0,1,1.53-3.38q1.53-1.27,4.86-1.27h4.56V665a3.67,3.67,0,0,0-1.08-2.85,4.56,4.56,0,0,0-3.18-1,8.41,8.41,0,0,0-2.76.46,7.12,7.12,0,0,0-2.28,1.25l-1.2-2.16a8.72,8.72,0,0,1,2.94-1.52,12.3,12.3,0,0,1,3.63-.52A7.18,7.18,0,0,1,447.9,660.25ZM445,671.9a4.19,4.19,0,0,0,1.74-2.08V667.6h-4.44q-3.66,0-3.66,2.46a2.23,2.23,0,0,0,.93,1.89,4.25,4.25,0,0,0,2.58.69A5.35,5.35,0,0,0,445,671.9Z"/><path class="cls-3" d="M463.94,673.75a4.29,4.29,0,0,1-1.56.82,6.52,6.52,0,0,1-1.92.29,5.1,5.1,0,0,1-3.72-1.29,4.93,4.93,0,0,1-1.32-3.69v-8.73h-2.7v-2.37h2.7V655.3h2.88v3.48h4.56v2.37H458.3v8.61a2.79,2.79,0,0,0,.64,2,2.41,2.41,0,0,0,1.85.69,3.47,3.47,0,0,0,2.25-.75Z"/><path class="cls-3" d="M478.26,660.25a6.26,6.26,0,0,1,1.76,4.83v9.6h-2.73v-2.1a4.56,4.56,0,0,1-2.06,1.69,7.82,7.82,0,0,1-3.16.59,6.64,6.64,0,0,1-4.28-1.29,4.13,4.13,0,0,1-1.6-3.39,4.18,4.18,0,0,1,1.53-3.38q1.53-1.27,4.86-1.27h4.56V665a3.67,3.67,0,0,0-1.08-2.85,4.56,4.56,0,0,0-3.18-1,8.41,8.41,0,0,0-2.76.46,7.12,7.12,0,0,0-2.28,1.25l-1.2-2.16a8.72,8.72,0,0,1,2.94-1.52,12.3,12.3,0,0,1,3.63-.52A7.18,7.18,0,0,1,478.26,660.25ZM475.4,671.9a4.19,4.19,0,0,0,1.74-2.08V667.6H472.7q-3.66,0-3.66,2.46A2.23,2.23,0,0,0,470,672a4.25,4.25,0,0,0,2.58.69A5.35,5.35,0,0,0,475.4,671.9Z"/><path class="cls-3" d="M497.93,659.65a7.32,7.32,0,0,1,2.86,2.85,9.14,9.14,0,0,1,0,8.47,7.31,7.31,0,0,1-2.86,2.87,8.36,8.36,0,0,1-4.14,1,7.53,7.53,0,0,1-3.24-.69,6.24,6.24,0,0,1-2.43-2v2.52h-2.76V652.42h2.88v8.76a6.13,6.13,0,0,1,2.4-1.91,7.61,7.61,0,0,1,3.15-.64A8.36,8.36,0,0,1,497.93,659.65Zm-1.64,12a5.08,5.08,0,0,0,1.92-2,6.38,6.38,0,0,0,0-5.85,5,5,0,0,0-1.92-2,5.77,5.77,0,0,0-5.47,0,4.83,4.83,0,0,0-1.92,2,6.54,6.54,0,0,0,0,5.85,5,5,0,0,0,1.92,2,5.62,5.62,0,0,0,5.47,0Z"/><path class="cls-3" d="M516.51,660.25a6.26,6.26,0,0,1,1.76,4.83v9.6h-2.73v-2.1a4.56,4.56,0,0,1-2.06,1.69,7.82,7.82,0,0,1-3.16.59,6.64,6.64,0,0,1-4.28-1.29,4.13,4.13,0,0,1-1.6-3.39A4.18,4.18,0,0,1,506,666.8q1.53-1.27,4.86-1.27h4.56V665a3.67,3.67,0,0,0-1.08-2.85,4.56,4.56,0,0,0-3.18-1,8.41,8.41,0,0,0-2.76.46,7.12,7.12,0,0,0-2.28,1.25l-1.2-2.16a8.72,8.72,0,0,1,2.94-1.52,12.3,12.3,0,0,1,3.63-.52A7.18,7.18,0,0,1,516.51,660.25Zm-2.86,11.65a4.19,4.19,0,0,0,1.74-2.08V667.6H511q-3.66,0-3.66,2.46a2.23,2.23,0,0,0,.93,1.89,4.25,4.25,0,0,0,2.58.69A5.35,5.35,0,0,0,513.65,671.9Z"/><path class="cls-3" d="M524.42,674.33A8.23,8.23,0,0,1,521.6,673l1.2-2.28a8.61,8.61,0,0,0,2.55,1.2,10.49,10.49,0,0,0,3,.45q3.78,0,3.78-2.16a1.4,1.4,0,0,0-.51-1.14,3.26,3.26,0,0,0-1.28-.62c-.51-.13-1.23-.27-2.17-.43a21.4,21.4,0,0,1-3.14-.69A4.82,4.82,0,0,1,523,666a3.67,3.67,0,0,1-.87-2.61,4.09,4.09,0,0,1,1.8-3.47,8.06,8.06,0,0,1,4.83-1.3,13.31,13.31,0,0,1,3.18.39,8.55,8.55,0,0,1,2.61,1.05l-1.23,2.28a8.27,8.27,0,0,0-4.59-1.26,5.31,5.31,0,0,0-2.79.6,1.81,1.81,0,0,0-1,1.59,1.52,1.52,0,0,0,.54,1.23,3.39,3.39,0,0,0,1.33.66c.53.14,1.28.3,2.24.48a24.26,24.26,0,0,1,3.1.7,4.66,4.66,0,0,1,2,1.28,3.55,3.55,0,0,1,.84,2.52,4,4,0,0,1-1.85,3.43,8.7,8.7,0,0,1-5,1.28A13.33,13.33,0,0,1,524.42,674.33Z"/><path class="cls-3" d="M553,667.69h-12.9a5,5,0,0,0,1.84,3.37,6,6,0,0,0,3.92,1.28,5.9,5.9,0,0,0,4.59-1.92l1.59,1.86a7,7,0,0,1-2.69,1.92,10.09,10.09,0,0,1-8-.38,7.38,7.38,0,0,1-3-2.89,8.3,8.3,0,0,1-1.06-4.2,8.43,8.43,0,0,1,1-4.17,7.43,7.43,0,0,1,2.85-2.9,8.13,8.13,0,0,1,4.1-1,7.93,7.93,0,0,1,4.06,1,7.28,7.28,0,0,1,2.79,2.9,8.82,8.82,0,0,1,1,4.26A8.25,8.25,0,0,1,553,667.69Zm-11.27-5.37a5.07,5.07,0,0,0-1.63,3.3h10.2a5.13,5.13,0,0,0-1.64-3.29,4.93,4.93,0,0,0-3.46-1.27A5,5,0,0,0,541.68,662.32Z"/></g><g id="main"><path class="cls-3" d="M477.66,356.38a8.45,8.45,0,0,1,1.68,5.4,7.78,7.78,0,0,1-3.29,6.72c-2.19,1.56-5.39,2.35-9.58,2.35h-16v-33.6h15.07q5.76,0,8.91,2.3a7.5,7.5,0,0,1,3.14,6.39,8.35,8.35,0,0,1-1.22,4.56,8,8,0,0,1-3.29,2.92A8.63,8.63,0,0,1,477.66,356.38Zm-22.42-15.24v10.75h9.84a10,10,0,0,0,5.69-1.37,5,5,0,0,0,0-8,10,10,0,0,0-5.69-1.36Zm17.19,24.48a4.7,4.7,0,0,0,2.06-4.23q0-5.61-8.21-5.61h-11V367h11A11.46,11.46,0,0,0,472.43,365.62Z"/><path class="cls-3" d="M503.46,347.76c1.87,1.73,2.8,4.3,2.8,7.73v15.36H501.9v-3.36a7.32,7.32,0,0,1-3.29,2.71,12.64,12.64,0,0,1-5.07.94,10.61,10.61,0,0,1-6.84-2.07,6.6,6.6,0,0,1-2.56-5.42,6.68,6.68,0,0,1,2.44-5.4q2.46-2,7.78-2h7.3v-.91a5.87,5.87,0,0,0-1.73-4.56,7.27,7.27,0,0,0-5.09-1.59,13.41,13.41,0,0,0-4.42.75,11.23,11.23,0,0,0-3.64,2l-1.92-3.46a14,14,0,0,1,4.7-2.42,19.67,19.67,0,0,1,5.81-.84C498.89,345.17,501.58,346,503.46,347.76Zm-4.59,18.65a6.8,6.8,0,0,0,2.79-3.34v-3.55h-7.11q-5.85,0-5.85,3.94a3.54,3.54,0,0,0,1.49,3,6.75,6.75,0,0,0,4.12,1.1A8.59,8.59,0,0,0,498.87,366.41Z"/><path class="cls-3" d="M519.1,369.46a12.3,12.3,0,0,1-4.77-4.64,13.82,13.82,0,0,1,0-13.39,12.16,12.16,0,0,1,4.77-4.61,14.38,14.38,0,0,1,6.94-1.65,13.31,13.31,0,0,1,6.17,1.39,9.9,9.9,0,0,1,4.2,4l-3.51,2.26a7.84,7.84,0,0,0-3-2.74,8.62,8.62,0,0,0-3.94-.91,9.19,9.19,0,0,0-4.49,1.1,8,8,0,0,0-3.12,3.15,9.53,9.53,0,0,0-1.12,4.68,9.64,9.64,0,0,0,1.12,4.73A8,8,0,0,0,521.5,366a9.08,9.08,0,0,0,4.49,1.1,8.5,8.5,0,0,0,3.94-.91,7.89,7.89,0,0,0,3-2.73l3.51,2.2a10,10,0,0,1-4.2,4.06,13.2,13.2,0,0,1-6.17,1.42A14.17,14.17,0,0,1,519.1,369.46Z"/><path class="cls-3" d="M551.91,359l-5.28,4.9v7H542V335.23h4.61v22.85l13.87-12.67h5.57l-10.7,10.51,11.76,14.93h-5.67Z"/><path class="cls-3" d="M593.43,359.66H572.79a8,8,0,0,0,3,5.4,9.59,9.59,0,0,0,6.27,2,9.41,9.41,0,0,0,7.34-3.07l2.55,3a11.23,11.23,0,0,1-4.3,3.07,16.16,16.16,0,0,1-12.89-.6,11.76,11.76,0,0,1-4.82-4.63,13.27,13.27,0,0,1-1.7-6.72,13.49,13.49,0,0,1,1.65-6.67,11.83,11.83,0,0,1,4.56-4.64,13,13,0,0,1,6.55-1.65,12.81,12.81,0,0,1,6.51,1.65,11.65,11.65,0,0,1,4.46,4.64,14.1,14.1,0,0,1,1.61,6.81A11.82,11.82,0,0,1,593.43,359.66Zm-18-8.59a8.17,8.17,0,0,0-2.62,5.28h16.32a8.18,8.18,0,0,0-2.61-5.25,8.6,8.6,0,0,0-11.09,0Z"/><path class="cls-3" d="M621.2,348c1.9,1.87,2.86,4.61,2.86,8.23v14.64h-4.61V356.74a7.78,7.78,0,0,0-1.78-5.57,6.67,6.67,0,0,0-5.09-1.87,7.91,7.91,0,0,0-5.9,2.18,8.53,8.53,0,0,0-2.16,6.26v13.11h-4.61V345.41h4.42v3.84a9,9,0,0,1,3.77-3,13.21,13.21,0,0,1,5.4-1.05A10.47,10.47,0,0,1,621.2,348Z"/><path class="cls-3" d="M656.74,335.23v35.62h-4.41v-4a10,10,0,0,1-3.89,3.21,12,12,0,0,1-5.18,1.11,13.36,13.36,0,0,1-6.63-1.64,11.6,11.6,0,0,1-4.58-4.58,14.68,14.68,0,0,1,0-13.56,11.74,11.74,0,0,1,4.58-4.56,13.35,13.35,0,0,1,6.63-1.63,12.18,12.18,0,0,1,5,1,9.84,9.84,0,0,1,3.84,3.05v-14ZM648,366a8,8,0,0,0,3.07-3.17,10.51,10.51,0,0,0,0-9.36A7.83,7.83,0,0,0,648,350.3a9.27,9.27,0,0,0-8.76,0,8,8,0,0,0-3.07,3.15,10.26,10.26,0,0,0,0,9.36,8.14,8.14,0,0,0,3.07,3.17,9.12,9.12,0,0,0,8.76,0Z"/><path class="cls-3" d="M703.64,371.38l-4.46-4.47a15.51,15.51,0,0,1-11.24,4.32,15.86,15.86,0,0,1-6-1.1,9.73,9.73,0,0,1-4.2-3.1,7.3,7.3,0,0,1-1.52-4.53,8.46,8.46,0,0,1,1.9-5.45,21.72,21.72,0,0,1,6.26-4.87,17,17,0,0,1-3.12-4,8.05,8.05,0,0,1-.91-3.69,6.81,6.81,0,0,1,2.47-5.48,10,10,0,0,1,6.6-2.06,9.24,9.24,0,0,1,6.1,1.87,6.34,6.34,0,0,1,2.26,5.14,7,7,0,0,1-1.66,4.56,20.18,20.18,0,0,1-5.5,4.22l8.31,8.26a21.29,21.29,0,0,0,2.06-6.1l3.7,1.2a22.12,22.12,0,0,1-2.93,7.68l4.51,4.51Zm-7.2-7.16-9.55-9.5a17.17,17.17,0,0,0-4.83,3.58A5.68,5.68,0,0,0,680.7,362a4.55,4.55,0,0,0,2.08,3.88,9.15,9.15,0,0,0,5.45,1.49A11.17,11.17,0,0,0,696.44,364.22Zm-10.58-22.77a3.74,3.74,0,0,0-1.28,2.95,5,5,0,0,0,.7,2.5,19,19,0,0,0,2.71,3.26,20.63,20.63,0,0,0,4.59-3.22,4.2,4.2,0,0,0,1.27-2.92,3.35,3.35,0,0,0-1.18-2.69,4.9,4.9,0,0,0-3.29-1A5.12,5.12,0,0,0,685.86,341.45Z"/><path class="cls-3" d="M491.6,394.85h14.16a20.49,20.49,0,0,1,9.46,2.11,15.43,15.43,0,0,1,6.4,5.93,18,18,0,0,1,0,17.52,15.49,15.49,0,0,1-6.4,5.93,20.62,20.62,0,0,1-9.46,2.11H491.6Zm13.87,29.42a15.65,15.65,0,0,0,7.18-1.58,11.51,11.51,0,0,0,4.77-4.44,13.73,13.73,0,0,0,0-13.2,11.38,11.38,0,0,0-4.77-4.44,15.53,15.53,0,0,0-7.18-1.59H496.4v25.25Z"/><path class="cls-3" d="M553.47,417.26H532.83a8,8,0,0,0,2.95,5.4,9.64,9.64,0,0,0,6.27,2,9.41,9.41,0,0,0,7.34-3.07l2.55,3a11.23,11.23,0,0,1-4.3,3.07,16.16,16.16,0,0,1-12.89-.6,11.76,11.76,0,0,1-4.82-4.63,13.27,13.27,0,0,1-1.71-6.72,13.5,13.5,0,0,1,1.66-6.67,11.83,11.83,0,0,1,4.56-4.64,13,13,0,0,1,6.55-1.65,12.81,12.81,0,0,1,6.51,1.65,11.65,11.65,0,0,1,4.46,4.64,14.1,14.1,0,0,1,1.61,6.81A11.82,11.82,0,0,1,553.47,417.26Zm-18-8.59a8.17,8.17,0,0,0-2.62,5.28h16.32a8.18,8.18,0,0,0-2.61-5.25,8.6,8.6,0,0,0-11.09,0Z"/><path class="cls-3" d="M582,403l-11.13,25.44h-4.7L555,403h4.8l8.73,20.4,8.93-20.4Z"/><path class="cls-3" d="M592.64,426.6a16.47,16.47,0,0,1-6.41-6.17,17.73,17.73,0,0,1,0-17.57,16.44,16.44,0,0,1,6.41-6.16,19.79,19.79,0,0,1,18.29,0,16.25,16.25,0,0,1,6.38,6.14,18,18,0,0,1,0,17.62,16.39,16.39,0,0,1-6.38,6.14,19.87,19.87,0,0,1-18.29,0Zm15.82-3.72a12.23,12.23,0,0,0,4.65-4.63,13.59,13.59,0,0,0,0-13.2,12.23,12.23,0,0,0-4.65-4.63,13.22,13.22,0,0,0-6.65-1.68,13.47,13.47,0,0,0-6.7,1.68,12.16,12.16,0,0,0-4.7,4.63,13.59,13.59,0,0,0,0,13.2,12.16,12.16,0,0,0,4.7,4.63,13.47,13.47,0,0,0,6.7,1.68A13.22,13.22,0,0,0,608.46,422.88Z"/><path class="cls-3" d="M646.4,404.4A11.74,11.74,0,0,1,651,409a14.68,14.68,0,0,1,0,13.56,11.6,11.6,0,0,1-4.58,4.58,13.35,13.35,0,0,1-6.62,1.64,11.85,11.85,0,0,1-5-1.06,10.37,10.37,0,0,1-3.86-3.07v13.15h-4.61V403h4.41v4a9.79,9.79,0,0,1,3.89-3.19,12.3,12.3,0,0,1,5.19-1.08A13.34,13.34,0,0,1,646.4,404.4Zm-2.62,19.18a8.24,8.24,0,0,0,3.08-3.17,10.34,10.34,0,0,0,0-9.36,8,8,0,0,0-3.08-3.15,8.78,8.78,0,0,0-4.39-1.1,8.49,8.49,0,0,0-4.34,1.13,8.13,8.13,0,0,0-3.07,3.14,9.32,9.32,0,0,0-1.13,4.66,9.74,9.74,0,0,0,1.1,4.68,8,8,0,0,0,3.07,3.17,9.12,9.12,0,0,0,8.76,0Z"/><path class="cls-3" d="M660.32,427.9a13.26,13.26,0,0,1-4.51-2.14l1.92-3.65a13.78,13.78,0,0,0,4.08,1.92,16.76,16.76,0,0,0,4.85.72q6,0,6-3.45a2.26,2.26,0,0,0-.81-1.83,5.24,5.24,0,0,0-2-1c-.82-.21-2-.44-3.48-.7a35.1,35.1,0,0,1-5-1.1,7.75,7.75,0,0,1-3.33-2.11,5.88,5.88,0,0,1-1.4-4.18,6.52,6.52,0,0,1,2.88-5.54,12.85,12.85,0,0,1,7.73-2.09,21.61,21.61,0,0,1,5.09.62,13.89,13.89,0,0,1,4.18,1.68l-2,3.65a13.28,13.28,0,0,0-7.35-2,8.47,8.47,0,0,0-4.46,1,2.91,2.91,0,0,0-1.54,2.55,2.42,2.42,0,0,0,.87,2,5.39,5.39,0,0,0,2.13,1.05c.85.23,2,.48,3.58.77a38.63,38.63,0,0,1,5,1.13,7.47,7.47,0,0,1,3.24,2,5.7,5.7,0,0,1,1.34,4,6.36,6.36,0,0,1-2.95,5.5,14,14,0,0,1-8,2A21.32,21.32,0,0,1,660.32,427.9Z"/><path id="logo" class="cls-3" d="M491,205.1a36.1,36.1,0,0,0,27,35.15v1.12a2.78,2.78,0,0,0,2.78,2.79h21.83v3.63H520.7a2.77,2.77,0,0,0-2.78,2.78v28.6A2.78,2.78,0,0,0,520.7,282h59.16v8.42H571.5a2.78,2.78,0,0,0-2.78,2.78v4h-17a2.78,2.78,0,1,0,0,5.56h17v3.95a2.78,2.78,0,0,0,2.78,2.78h22.27a2.78,2.78,0,0,0,2.79-2.78v-3.95h17a2.78,2.78,0,0,0,0-5.56h-17v-4a2.78,2.78,0,0,0-2.79-2.78h-8.35V282h59.16a2.79,2.79,0,0,0,2.79-2.78v-28.6a2.78,2.78,0,0,0-2.79-2.78H622.75v-3.63h21.83a2.79,2.79,0,0,0,2.79-2.79v-1.14A36,36,0,0,0,674.3,205.1c0-17.69-12.23-32.46-28.95-35.61a36.68,36.68,0,0,0,.93-8.19c0-20-16-36.25-35.61-36.25a35.67,35.67,0,0,0-30.72,18,35,35,0,0,0-15.36-3.58,35.7,35.7,0,0,0-35,29.5q-1.59-.15-3-.15C506.94,168.84,491,185.11,491,205.1Zm100,98.75h-16.7v-7.92H591Zm50.81-27.47H523.48v-23H641.8Zm-24.61-28.59H548.1v-3.63h69.09Zm24.61-9.2H523.48v-23H641.8ZM526.58,174.41a31.29,31.29,0,0,1,5,.44,2.78,2.78,0,0,0,3.2-2.46,30.21,30.21,0,0,1,29.85-27.34,29.58,29.58,0,0,1,15.1,4.2,2.78,2.78,0,0,0,3.94-1.2,30.15,30.15,0,0,1,27-17.44c16.57,0,30.05,13.77,30.05,30.69a31.39,31.39,0,0,1-1.54,9.64,2.78,2.78,0,0,0,2.39,3.62c15.49,1.48,27.17,14.6,27.17,30.54a30.53,30.53,0,0,1-21.37,29.36V212.78a2.79,2.79,0,0,0-2.79-2.79H520.7a2.78,2.78,0,0,0-2.78,2.79v21.7a30.6,30.6,0,0,1-21.4-29.38C496.52,188.18,510,174.41,526.58,174.41Z"/></g></g></g></svg>