<svg xmlns="http://www.w3.org/2000/svg" viewBox="0 0 789.81 789.81"><defs><style>.cls-1{fill:#d8a3d8;}.cls-2{fill:#edc3ed;}.cls-3{fill:#33144f;}</style></defs><title>Recurso 1</title><g id="Capa_2" data-name="Capa 2"><g id="conversationals"><g id="bubble"><path class="cls-1" d="M491.87,589.94c-180.06,0-326-146-326-326A325.24,325.24,0,0,1,278.44,17.47C117.19,67.17,0,217.34,0,394.9,0,613,176.8,789.81,394.9,789.81c217.58,0,394-176,394.89-393.34C739,510.46,624.72,589.94,491.87,589.94Z"/><path class="cls-2" d="M165.85,263.92c0,180.05,146,326,326,326,132.85,0,247.12-79.48,297.92-193.47,0-.52,0-1,0-1.57C789.81,176.8,613,0,394.9,0A394.64,394.64,0,0,0,278.44,17.47,325.24,325.24,0,0,0,165.85,263.92Z"/></g><g id="platforms"><g id="fb_messenger" data-name="fb messenger"><path id="logo" class="cls-3" d="M168.33,528.6c-36.38,0-52.7,43-24.37,64.44v13.88l13.24-7.35c24.86,7,49.89-10.47,49.89-34.73C207.11,544.82,189.75,528.6,168.33,528.6Zm4.1,48.61-10-10.41-19.3,10.68L164.26,555l10,10.42,19.3-10.68Z"/><g id="label"><path class="cls-3" d="M255.69,545.88v5.67h8.15v2h-8.15v6.58h-2.32V543.86h11.47v2Z"/><path class="cls-3" d="M275.74,549a4.82,4.82,0,0,1,1.36,3.74v7.43H275v-1.63a3.51,3.51,0,0,1-1.59,1.31,6,6,0,0,1-2.45.46,5.16,5.16,0,0,1-3.31-1,3.44,3.44,0,0,1-.06-5.24,5.81,5.81,0,0,1,3.76-1h3.53v-.44a2.85,2.85,0,0,0-.83-2.2,3.55,3.55,0,0,0-2.47-.77,6.48,6.48,0,0,0-2.13.36,5.54,5.54,0,0,0-1.77,1l-.93-1.67A6.83,6.83,0,0,1,269,548.1a9.55,9.55,0,0,1,2.81-.41A5.54,5.54,0,0,1,275.74,549Zm-2.21,9a3.32,3.32,0,0,0,1.34-1.61v-1.72h-3.43c-1.89,0-2.84.63-2.84,1.9a1.71,1.71,0,0,0,.72,1.46,3.28,3.28,0,0,0,2,.54A4.15,4.15,0,0,0,273.53,558Z"/><path class="cls-3" d="M283.31,559.44A6,6,0,0,1,281,557.2a6.74,6.74,0,0,1,0-6.48,6,6,0,0,1,2.31-2.23,7,7,0,0,1,3.36-.8,6.41,6.41,0,0,1,3,.68,4.78,4.78,0,0,1,2,2L290,551.41a3.77,3.77,0,0,0-1.44-1.32,4,4,0,0,0-1.9-.45,4.4,4.4,0,0,0-2.18.54A3.81,3.81,0,0,0,283,551.7a4.63,4.63,0,0,0-.54,2.26,4.7,4.7,0,0,0,.54,2.29,3.81,3.81,0,0,0,1.51,1.52,4.4,4.4,0,0,0,2.18.54,4,4,0,0,0,1.9-.45,3.77,3.77,0,0,0,1.44-1.32l1.69,1.07a4.86,4.86,0,0,1-2,2,6.3,6.3,0,0,1-3,.69A6.77,6.77,0,0,1,283.31,559.44Z"/><path class="cls-3" d="M305.45,554.71h-10a3.85,3.85,0,0,0,1.43,2.61,4.64,4.64,0,0,0,3,1,4.57,4.57,0,0,0,3.55-1.49l1.23,1.44a5.41,5.41,0,0,1-2.08,1.49,7.79,7.79,0,0,1-6.23-.3,5.68,5.68,0,0,1-2.34-2.24,6.41,6.41,0,0,1-.82-3.25,6.54,6.54,0,0,1,.8-3.22,5.83,5.83,0,0,1,2.21-2.25,6.3,6.3,0,0,1,3.17-.8,6.19,6.19,0,0,1,3.14.8,5.7,5.7,0,0,1,2.16,2.25,6.78,6.78,0,0,1,.78,3.29A4.8,4.8,0,0,1,305.45,554.71Zm-8.72-4.16a3.9,3.9,0,0,0-1.26,2.55h7.89a4,4,0,0,0-1.26-2.54,3.81,3.81,0,0,0-2.68-1A3.87,3.87,0,0,0,296.73,550.55Z"/><path class="cls-3" d="M318.32,548.48a5.75,5.75,0,0,1,2.22,2.21,6.55,6.55,0,0,1,.8,3.27,6.65,6.65,0,0,1-.8,3.29,5.78,5.78,0,0,1-2.22,2.22,6.55,6.55,0,0,1-3.21.79,5.72,5.72,0,0,1-2.5-.54,4.72,4.72,0,0,1-1.88-1.55v2h-2.14V542.89h2.23v6.78a4.73,4.73,0,0,1,1.86-1.48,5.9,5.9,0,0,1,2.43-.5A6.55,6.55,0,0,1,318.32,548.48Zm-1.27,9.28a3.85,3.85,0,0,0,1.49-1.53,4.94,4.94,0,0,0,0-4.53,3.76,3.76,0,0,0-1.49-1.52,4.41,4.41,0,0,0-4.23,0,3.7,3.7,0,0,0-1.49,1.52,5,5,0,0,0,0,4.53,3.79,3.79,0,0,0,1.49,1.53,4.34,4.34,0,0,0,4.23,0Z"/><path class="cls-3" d="M326.4,559.44a5.87,5.87,0,0,1-2.29-2.24,6.81,6.81,0,0,1,0-6.48,5.85,5.85,0,0,1,2.29-2.23,6.8,6.8,0,0,1,3.3-.8,6.69,6.69,0,0,1,3.28.8,5.89,5.89,0,0,1,2.28,2.23,6.81,6.81,0,0,1,0,6.48,5.91,5.91,0,0,1-2.28,2.24,6.49,6.49,0,0,1-3.28.82A6.6,6.6,0,0,1,326.4,559.44Zm5.42-1.68a3.83,3.83,0,0,0,1.48-1.53,5.1,5.1,0,0,0,0-4.53,3.74,3.74,0,0,0-1.48-1.52,4.45,4.45,0,0,0-4.25,0,3.8,3.8,0,0,0-1.48,1.52,4.94,4.94,0,0,0,0,4.53,3.89,3.89,0,0,0,1.48,1.53,4.38,4.38,0,0,0,4.25,0Z"/><path class="cls-3" d="M341.15,559.44a5.87,5.87,0,0,1-2.29-2.24,6.74,6.74,0,0,1,0-6.48,5.85,5.85,0,0,1,2.29-2.23,7.17,7.17,0,0,1,6.58,0,5.86,5.86,0,0,1,2.27,2.23,6.74,6.74,0,0,1,0,6.48,5.89,5.89,0,0,1-2.27,2.24,7,7,0,0,1-6.58,0Zm5.42-1.68a3.8,3.8,0,0,0,1.47-1.53,5,5,0,0,0,0-4.53,3.72,3.72,0,0,0-1.47-1.52,4.22,4.22,0,0,0-2.13-.54,4.15,4.15,0,0,0-2.12.54,3.83,3.83,0,0,0-1.49,1.52,5,5,0,0,0,0,4.53,3.92,3.92,0,0,0,1.49,1.53,4.16,4.16,0,0,0,2.12.55A4.22,4.22,0,0,0,346.57,557.76Z"/><path class="cls-3" d="M358.7,554.38l-2.55,2.37v3.37h-2.23V542.89h2.23v11.05l6.71-6.13h2.69l-5.18,5.08,5.69,7.23h-2.74Z"/><path class="cls-3" d="M268.8,588l0-11.84L262.9,586h-1.07l-5.87-9.8V588h-2.23V571.73h1.9l6.79,11.42,6.68-11.42H271L271,588Z"/><path class="cls-3" d="M286.66,582.57h-10a3.84,3.84,0,0,0,1.43,2.61,4.64,4.64,0,0,0,3,1,4.52,4.52,0,0,0,3.55-1.49l1.23,1.44a5.37,5.37,0,0,1-2.07,1.49,7.86,7.86,0,0,1-6.24-.29,5.72,5.72,0,0,1-2.33-2.24,6.41,6.41,0,0,1-.83-3.25,6.58,6.58,0,0,1,.8-3.23,5.74,5.74,0,0,1,2.21-2.24,6.33,6.33,0,0,1,3.17-.8,6.2,6.2,0,0,1,3.15.8,5.61,5.61,0,0,1,2.16,2.24,6.93,6.93,0,0,1,.77,3.3A6.32,6.32,0,0,1,286.66,582.57Zm-8.72-4.16a4,4,0,0,0-1.27,2.56h7.9a4,4,0,0,0-1.27-2.54,4.15,4.15,0,0,0-5.36,0Z"/><path class="cls-3" d="M290.42,587.71a6.24,6.24,0,0,1-2.18-1l.93-1.76a7.06,7.06,0,0,0,2,.93,8.18,8.18,0,0,0,2.34.34c2,0,2.93-.55,2.93-1.67a1.09,1.09,0,0,0-.39-.88,2.54,2.54,0,0,0-1-.48q-.6-.15-1.68-.33a17.14,17.14,0,0,1-2.43-.54,3.73,3.73,0,0,1-1.62-1,2.88,2.88,0,0,1-.67-2,3.17,3.17,0,0,1,1.39-2.68,6.28,6.28,0,0,1,3.74-1,10.35,10.35,0,0,1,2.46.3,6.61,6.61,0,0,1,2,.81l-1,1.77a6.39,6.39,0,0,0-3.55-1,4.12,4.12,0,0,0-2.16.47,1.41,1.41,0,0,0-.74,1.23,1.17,1.17,0,0,0,.42,1,2.62,2.62,0,0,0,1,.51c.41.11,1,.23,1.73.37a17.51,17.51,0,0,1,2.4.55,3.51,3.51,0,0,1,1.57,1,2.75,2.75,0,0,1,.65,2,3.06,3.06,0,0,1-1.43,2.65,6.73,6.73,0,0,1-3.89,1A10,10,0,0,1,290.42,587.71Z"/><path class="cls-3" d="M302.05,587.71a6.33,6.33,0,0,1-2.18-1l.93-1.76a7.06,7.06,0,0,0,2,.93,8.25,8.25,0,0,0,2.35.34c1.95,0,2.92-.55,2.92-1.67a1.09,1.09,0,0,0-.39-.88,2.41,2.41,0,0,0-1-.48q-.59-.15-1.68-.33a17.47,17.47,0,0,1-2.43-.54,3.76,3.76,0,0,1-1.61-1,2.83,2.83,0,0,1-.67-2,3.15,3.15,0,0,1,1.39-2.68,6.26,6.26,0,0,1,3.74-1,10.35,10.35,0,0,1,2.46.3,6.65,6.65,0,0,1,2,.81l-.95,1.77a6.42,6.42,0,0,0-3.56-1,4.12,4.12,0,0,0-2.16.47,1.41,1.41,0,0,0-.74,1.23,1.17,1.17,0,0,0,.42,1,2.69,2.69,0,0,0,1,.51c.41.11,1,.23,1.73.37a18.07,18.07,0,0,1,2.41.55,3.48,3.48,0,0,1,1.56,1,2.7,2.7,0,0,1,.65,2,3.05,3.05,0,0,1-1.42,2.65,6.75,6.75,0,0,1-3.89,1A10,10,0,0,1,302.05,587.71Z"/><path class="cls-3" d="M324.14,582.57h-10a3.84,3.84,0,0,0,1.43,2.61,4.64,4.64,0,0,0,3,1,4.54,4.54,0,0,0,3.55-1.49l1.23,1.44a5.37,5.37,0,0,1-2.07,1.49,7.86,7.86,0,0,1-6.24-.29,5.66,5.66,0,0,1-2.33-2.24,6.41,6.41,0,0,1-.83-3.25,6.58,6.58,0,0,1,.8-3.23,5.74,5.74,0,0,1,2.21-2.24,6.33,6.33,0,0,1,3.17-.8,6.22,6.22,0,0,1,3.15.8,5.52,5.52,0,0,1,2.15,2.24,6.82,6.82,0,0,1,.78,3.3A6.32,6.32,0,0,1,324.14,582.57Zm-8.72-4.16a3.94,3.94,0,0,0-1.27,2.56h7.9a4,4,0,0,0-1.27-2.54,4.15,4.15,0,0,0-5.36,0Z"/><path class="cls-3" d="M337.57,576.92a5.33,5.33,0,0,1,1.38,4V588h-2.23v-6.83a3.73,3.73,0,0,0-.86-2.69,3.23,3.23,0,0,0-2.46-.9,3.82,3.82,0,0,0-2.85,1.05,4.13,4.13,0,0,0-1.05,3V588h-2.23V575.67h2.14v1.86a4.33,4.33,0,0,1,1.82-1.46,6.4,6.4,0,0,1,2.61-.51A5.06,5.06,0,0,1,337.57,576.92Z"/><path class="cls-3" d="M354.93,575.67v10.64a6.39,6.39,0,0,1-1.6,4.77,6.67,6.67,0,0,1-4.79,1.55,11.34,11.34,0,0,1-3.32-.48,6.59,6.59,0,0,1-2.55-1.36l1.07-1.72a6.28,6.28,0,0,0,2.12,1.18,8.21,8.21,0,0,0,2.61.43,4.41,4.41,0,0,0,3.2-1,4.22,4.22,0,0,0,1-3.11v-1a4.89,4.89,0,0,1-1.94,1.42,6.44,6.44,0,0,1-2.5.48,6.76,6.76,0,0,1-3.19-.75,5.65,5.65,0,0,1-2.24-2.12,6.34,6.34,0,0,1,0-6.2,5.6,5.6,0,0,1,2.24-2.1,6.88,6.88,0,0,1,3.19-.74,6.51,6.51,0,0,1,2.59.51,4.74,4.74,0,0,1,2,1.51v-1.91ZM350.69,585a3.78,3.78,0,0,0,1.51-1.43,4,4,0,0,0,.55-2.08,3.78,3.78,0,0,0-1.19-2.89,4.3,4.3,0,0,0-3-1.1,4.36,4.36,0,0,0-3.07,1.1,3.77,3.77,0,0,0-1.18,2.89,3.92,3.92,0,0,0,.55,2.08,3.76,3.76,0,0,0,1.5,1.43,4.66,4.66,0,0,0,2.2.51A4.57,4.57,0,0,0,350.69,585Z"/><path class="cls-3" d="M370.25,582.57h-10a3.81,3.81,0,0,0,1.43,2.61,4.64,4.64,0,0,0,3,1,4.54,4.54,0,0,0,3.55-1.49l1.23,1.44a5.41,5.41,0,0,1-2.08,1.49,7.84,7.84,0,0,1-6.23-.29,5.68,5.68,0,0,1-2.34-2.24,6.41,6.41,0,0,1-.82-3.25,6.58,6.58,0,0,1,.8-3.23,5.67,5.67,0,0,1,2.21-2.24,6.3,6.3,0,0,1,3.17-.8,6.19,6.19,0,0,1,3.14.8,5.61,5.61,0,0,1,2.16,2.24,6.82,6.82,0,0,1,.78,3.3C370.3,582.07,370.28,582.29,370.25,582.57Zm-8.72-4.16a3.93,3.93,0,0,0-1.26,2.56h7.89a3.9,3.9,0,0,0-1.26-2.54,3.83,3.83,0,0,0-2.68-1A3.87,3.87,0,0,0,361.53,578.41Z"/><path class="cls-3" d="M377.24,576.12a6.14,6.14,0,0,1,2.77-.56v2.16a3.49,3.49,0,0,0-.51,0,3.8,3.8,0,0,0-2.85,1.08,4.28,4.28,0,0,0-1,3.08V588h-2.23V575.67h2.13v2.07A3.81,3.81,0,0,1,377.24,576.12Z"/></g></g><g id="slack"><path id="logo-2" data-name="logo" class="cls-3" d="M506,629.9a8.23,8.23,0,1,1-8.22-8.22H506Zm4.15,0a8.23,8.23,0,0,1,16.45,0v20.6a8.23,8.23,0,1,1-16.45,0Zm8.23-33a8.23,8.23,0,1,1,8.22-8.23v8.23Zm0,4.14a8.23,8.23,0,0,1,0,16.46h-20.6a8.23,8.23,0,1,1,0-16.46Zm33,8.23a8.23,8.23,0,1,1,8.22,8.23h-8.22v-8.23Zm-4.15,0a8.23,8.23,0,0,1-16.46,0v-20.6a8.23,8.23,0,1,1,16.46,0v20.6Zm-8.23,33a8.23,8.23,0,1,1-8.23,8.22v-8.22Zm0-4.15a8.23,8.23,0,1,1,0-16.45h20.6a8.23,8.23,0,1,1,0,16.45Z"/><g id="label-2" data-name="label"><path class="cls-3" d="M616,627.71a7.3,7.3,0,0,1-2.68-1.47l.86-1.82a7.08,7.08,0,0,0,2.38,1.36,8.71,8.71,0,0,0,3,.53,5.33,5.33,0,0,0,3-.69,2.1,2.1,0,0,0,1-1.82,1.81,1.81,0,0,0-.54-1.36,3.64,3.64,0,0,0-1.35-.8,23,23,0,0,0-2.27-.63,23.47,23.47,0,0,1-3-.88,4.93,4.93,0,0,1-1.92-1.36,3.6,3.6,0,0,1-.81-2.47,4.18,4.18,0,0,1,.69-2.35,4.78,4.78,0,0,1,2.08-1.67,8.39,8.39,0,0,1,3.46-.63,11.27,11.27,0,0,1,2.83.37,7.61,7.61,0,0,1,2.39,1.07l-.76,1.86a8.66,8.66,0,0,0-2.19-1,8.26,8.26,0,0,0-2.27-.33,5,5,0,0,0-3,.72,2.2,2.2,0,0,0-1,1.85,1.79,1.79,0,0,0,.56,1.36,3.92,3.92,0,0,0,1.38.82c.55.19,1.3.39,2.24.61a22.76,22.76,0,0,1,2.95.88,5.16,5.16,0,0,1,1.92,1.35,3.57,3.57,0,0,1,.8,2.44,4.17,4.17,0,0,1-.7,2.33,4.62,4.62,0,0,1-2.11,1.67,8.79,8.79,0,0,1-3.49.62A11.12,11.12,0,0,1,616,627.71Z"/><path class="cls-3" d="M628.93,610.86h2.23v17.23h-2.23Z"/><path class="cls-3" d="M643.8,616.92a4.85,4.85,0,0,1,1.36,3.74v7.43h-2.11v-1.62a3.51,3.51,0,0,1-1.59,1.31,6.12,6.12,0,0,1-2.45.45,5.1,5.1,0,0,1-3.31-1,3.19,3.19,0,0,1-1.24-2.62,3.23,3.23,0,0,1,1.18-2.61,5.83,5.83,0,0,1,3.76-1h3.53v-.44a2.87,2.87,0,0,0-.83-2.21,3.54,3.54,0,0,0-2.46-.76,6.54,6.54,0,0,0-2.14.36,5.54,5.54,0,0,0-1.77,1l-.92-1.67a6.68,6.68,0,0,1,2.27-1.17,9.55,9.55,0,0,1,2.81-.41A5.58,5.58,0,0,1,643.8,616.92Zm-2.21,9a3.25,3.25,0,0,0,1.34-1.62v-1.72H639.5c-1.89,0-2.84.64-2.84,1.91a1.72,1.72,0,0,0,.72,1.46,3.28,3.28,0,0,0,2,.53A4.15,4.15,0,0,0,641.59,626Z"/><path class="cls-3" d="M651.37,627.42a6,6,0,0,1-2.31-2.24,6.74,6.74,0,0,1,0-6.48,5.9,5.9,0,0,1,2.31-2.23,7,7,0,0,1,3.36-.8,6.41,6.41,0,0,1,3,.67,4.8,4.8,0,0,1,2,1.95l-1.7,1.1a3.88,3.88,0,0,0-1.44-1.33,4.15,4.15,0,0,0-1.9-.44,4.44,4.44,0,0,0-2.17.53,3.77,3.77,0,0,0-1.51,1.53,4.5,4.5,0,0,0-.55,2.26,4.59,4.59,0,0,0,.55,2.29,3.75,3.75,0,0,0,1.51,1.52,4.44,4.44,0,0,0,2.17.53,4,4,0,0,0,1.9-.44,3.77,3.77,0,0,0,1.44-1.32l1.7,1.07a4.88,4.88,0,0,1-2,2,6.41,6.41,0,0,1-3,.68A6.9,6.9,0,0,1,651.37,627.42Z"/><path class="cls-3" d="M667.25,622.36l-2.56,2.37v3.36h-2.23V610.86h2.23v11.06l6.71-6.13h2.7l-5.18,5.08,5.69,7.22h-2.74Z"/></g></g><g id="instagram"><path id="logo-3" data-name="logo" class="cls-3" d="M92.77,384.4a20.09,20.09,0,1,0,20.09,20.09A20.06,20.06,0,0,0,92.77,384.4Zm0,33.15a13.06,13.06,0,1,1,13.06-13.06,13.08,13.08,0,0,1-13.06,13.06Zm25.59-34a4.69,4.69,0,1,1-4.68-4.69A4.67,4.67,0,0,1,118.36,383.58Zm13.31,4.75c-.3-6.27-1.73-11.83-6.33-16.41s-10.14-6-16.42-6.33c-6.47-.37-25.85-.37-32.32,0-6.26.3-11.82,1.73-16.42,6.31s-6,10.14-6.33,16.42c-.36,6.46-.36,25.85,0,32.32.3,6.28,1.73,11.84,6.33,16.42s10.14,6,16.42,6.32c6.47.37,25.85.37,32.32,0,6.28-.29,11.84-1.73,16.42-6.32s6-10.14,6.33-16.42c.36-6.47.36-25.84,0-32.31Zm-8.36,39.25a13.19,13.19,0,0,1-7.45,7.45c-5.15,2-17.39,1.57-23.09,1.57s-18,.46-23.1-1.57a13.26,13.26,0,0,1-7.44-7.45c-2-5.16-1.58-17.39-1.58-23.09s-.45-18,1.58-23.1A13.21,13.21,0,0,1,69.67,374c5.16-2.05,17.4-1.58,23.1-1.58s18-.45,23.09,1.58a13.2,13.2,0,0,1,7.45,7.44c2,5.16,1.57,17.4,1.57,23.1S125.36,422.44,123.31,427.58Z"/><g id="label-3" data-name="label"><path class="cls-3" d="M177.38,394h2.32v16.25h-2.32Z"/><path class="cls-3" d="M194.55,399.23a5.33,5.33,0,0,1,1.38,4v7.08H193.7v-6.83a3.73,3.73,0,0,0-.86-2.69,3.23,3.23,0,0,0-2.46-.9,3.82,3.82,0,0,0-2.85,1.05,4.13,4.13,0,0,0-1.05,3v6.34h-2.23V398h2.14v1.86a4.33,4.33,0,0,1,1.82-1.46,6.4,6.4,0,0,1,2.61-.51A5.06,5.06,0,0,1,194.55,399.23Z"/><path class="cls-3" d="M200.69,410a6.33,6.33,0,0,1-2.18-1l.93-1.76a7.06,7.06,0,0,0,2,.93,8.25,8.25,0,0,0,2.35.34c2,0,2.92-.55,2.92-1.67a1.09,1.09,0,0,0-.39-.88,2.41,2.41,0,0,0-1-.48q-.59-.15-1.68-.33a17.47,17.47,0,0,1-2.43-.54,3.7,3.7,0,0,1-1.61-1,2.84,2.84,0,0,1-.68-2,3.16,3.16,0,0,1,1.4-2.68,6.26,6.26,0,0,1,3.74-1,10.35,10.35,0,0,1,2.46.3,6.65,6.65,0,0,1,2,.81l-1,1.77a6.42,6.42,0,0,0-3.56-1,4.12,4.12,0,0,0-2.16.47,1.41,1.41,0,0,0-.74,1.23,1.17,1.17,0,0,0,.42.95,2.69,2.69,0,0,0,1,.51c.41.11,1,.23,1.73.37a18.07,18.07,0,0,1,2.41.55,3.55,3.55,0,0,1,1.56,1,2.75,2.75,0,0,1,.65,2,3,3,0,0,1-1.43,2.65,6.69,6.69,0,0,1-3.88,1A10,10,0,0,1,200.69,410Z"/><path class="cls-3" d="M218.62,409.57a3.4,3.4,0,0,1-1.21.64,4.91,4.91,0,0,1-1.48.22,3.93,3.93,0,0,1-2.88-1,3.76,3.76,0,0,1-1-2.85v-6.76h-2.09V398H212v-2.69h2.23V398h3.53v1.84h-3.53v6.66a2.19,2.19,0,0,0,.5,1.54,1.89,1.89,0,0,0,1.43.53,2.67,2.67,0,0,0,1.74-.58Z"/><path class="cls-3" d="M229.71,399.12a4.87,4.87,0,0,1,1.36,3.74v7.43H229v-1.62a3.51,3.51,0,0,1-1.59,1.31,6.09,6.09,0,0,1-2.45.45,5.1,5.1,0,0,1-3.31-1,3.19,3.19,0,0,1-1.24-2.62,3.25,3.25,0,0,1,1.18-2.61,5.85,5.85,0,0,1,3.77-1h3.53v-.44a2.84,2.84,0,0,0-.84-2.21,3.54,3.54,0,0,0-2.46-.76,6.54,6.54,0,0,0-2.14.36,5.59,5.59,0,0,0-1.76,1l-.93-1.67a6.88,6.88,0,0,1,2.27-1.18,9.59,9.59,0,0,1,2.81-.4A5.61,5.61,0,0,1,229.71,399.12Zm-2.22,9a3.24,3.24,0,0,0,1.35-1.61v-1.72H225.4c-1.89,0-2.83.64-2.83,1.91a1.72,1.72,0,0,0,.72,1.46,3.25,3.25,0,0,0,2,.53A4.15,4.15,0,0,0,227.49,408.14Z"/><path class="cls-3" d="M247,398v10.64a6.35,6.35,0,0,1-1.6,4.77,6.64,6.64,0,0,1-4.78,1.55,11.29,11.29,0,0,1-3.32-.48,6.56,6.56,0,0,1-2.56-1.36l1.07-1.72a6.28,6.28,0,0,0,2.12,1.18,8.32,8.32,0,0,0,2.62.43,4.38,4.38,0,0,0,3.19-1,4.18,4.18,0,0,0,1-3.11v-1a4.82,4.82,0,0,1-1.94,1.42,6.39,6.39,0,0,1-2.49.48,6.8,6.8,0,0,1-3.2-.75,5.65,5.65,0,0,1-2.24-2.12,6.34,6.34,0,0,1,0-6.2,5.6,5.6,0,0,1,2.24-2.1,6.92,6.92,0,0,1,3.2-.74,6.54,6.54,0,0,1,2.59.51,4.8,4.8,0,0,1,2,1.51V398Zm-4.24,9.34a3.72,3.72,0,0,0,1.51-1.43,3.92,3.92,0,0,0,.55-2.08,3.78,3.78,0,0,0-1.19-2.89,4.78,4.78,0,0,0-6.1,0,3.78,3.78,0,0,0-1.19,2.89,3.92,3.92,0,0,0,.55,2.08,3.78,3.78,0,0,0,1.51,1.43,4.6,4.6,0,0,0,2.19.51A4.54,4.54,0,0,0,242.8,407.32Z"/><path class="cls-3" d="M255.15,398.43a6.09,6.09,0,0,1,2.76-.56V400a3.49,3.49,0,0,0-.51,0,3.8,3.8,0,0,0-2.85,1.08,4.28,4.28,0,0,0-1,3.08v6.13h-2.23V398h2.14v2.07A3.76,3.76,0,0,1,255.15,398.43Z"/><path class="cls-3" d="M269,399.12a4.83,4.83,0,0,1,1.36,3.74v7.43h-2.11v-1.62a3.59,3.59,0,0,1-1.6,1.31,6.06,6.06,0,0,1-2.45.45,5.08,5.08,0,0,1-3.3-1,3.41,3.41,0,0,1-.06-5.23,5.81,5.81,0,0,1,3.76-1h3.53v-.44a2.84,2.84,0,0,0-.84-2.21,3.52,3.52,0,0,0-2.46-.76,6.44,6.44,0,0,0-2.13.36,5.54,5.54,0,0,0-1.77,1l-.93-1.67a6.94,6.94,0,0,1,2.28-1.18,9.55,9.55,0,0,1,2.81-.4A5.6,5.6,0,0,1,269,399.12Zm-2.22,9a3.24,3.24,0,0,0,1.35-1.61v-1.72h-3.44c-1.89,0-2.83.64-2.83,1.91a1.72,1.72,0,0,0,.72,1.46,3.26,3.26,0,0,0,2,.53A4.12,4.12,0,0,0,266.8,408.14Z"/><path class="cls-3" d="M293.59,399.22a5.38,5.38,0,0,1,1.36,4v7.08h-2.23v-6.83a3.87,3.87,0,0,0-.83-2.69,3,3,0,0,0-2.35-.9,3.56,3.56,0,0,0-2.7,1.05,4.29,4.29,0,0,0-1,3v6.34h-2.23v-6.83a3.87,3.87,0,0,0-.82-2.69,3,3,0,0,0-2.36-.9,3.52,3.52,0,0,0-2.69,1.05,4.24,4.24,0,0,0-1,3v6.34h-2.23V398h2.14v1.84a4.3,4.3,0,0,1,1.76-1.45,5.83,5.83,0,0,1,2.49-.5,5.39,5.39,0,0,1,2.55.58,4,4,0,0,1,1.72,1.69,4.81,4.81,0,0,1,1.94-1.67,6.36,6.36,0,0,1,2.8-.6A5,5,0,0,1,293.59,399.22Z"/></g></g><g id="whatsapp"><path id="logo-4" data-name="logo" class="cls-3" d="M140.92,191.93a38.84,38.84,0,0,0-61.11,46.85l-5.5,20.11,20.58-5.4a38.77,38.77,0,0,0,18.55,4.72h0c21.39,0,39.19-17.42,39.19-38.82A39,39,0,0,0,140.92,191.93Zm-27.46,59.74A32.22,32.22,0,0,1,97,247.17l-1.17-.7-12.21,3.2,3.26-11.9-.77-1.23a32.33,32.33,0,1,1,60-17.15C146.09,237.19,131.25,251.67,113.46,251.67Zm17.7-24.17c-1-.49-5.74-2.83-6.63-3.15s-1.54-.49-2.18.49-2.51,3.15-3.08,3.81-1.14.74-2.1.25c-5.7-2.85-9.44-5.09-13.2-11.54-1-1.72,1-1.59,2.85-5.3a1.83,1.83,0,0,0-.09-1.7c-.25-.49-2.19-5.26-3-7.2s-1.59-1.63-2.19-1.66-1.2,0-1.85,0a3.6,3.6,0,0,0-2.59,1.21,10.9,10.9,0,0,0-3.39,8.09c0,4.78,3.48,9.39,4,10s6.84,10.44,16.58,14.66c6.15,2.66,8.57,2.88,11.65,2.43,1.87-.28,5.73-2.35,6.54-4.62s.8-4.21.56-4.62S132.12,228,131.16,227.5Z"/><g id="label-4" data-name="label"><path class="cls-3" d="M222.77,195.82l-5.44,16.26H214.9l-4.44-13-4.43,13h-2.49l-5.43-16.26h2.39L204.89,209l4.57-13.22h2.14l4.48,13.29,4.48-13.29Z"/><path class="cls-3" d="M235.92,201a5.37,5.37,0,0,1,1.38,4v7.08h-2.22v-6.83a3.78,3.78,0,0,0-.86-2.69,3.24,3.24,0,0,0-2.47-.91,3.8,3.8,0,0,0-2.85,1.06,4.1,4.1,0,0,0-1.05,3v6.34h-2.23V194.85h2.23v6.66a4.63,4.63,0,0,1,1.83-1.37,6.36,6.36,0,0,1,2.52-.49A5.1,5.1,0,0,1,235.92,201Z"/><path class="cls-3" d="M249.83,200.91a4.82,4.82,0,0,1,1.36,3.74v7.43h-2.11v-1.63a3.45,3.45,0,0,1-1.59,1.31,6,6,0,0,1-2.45.46,5.16,5.16,0,0,1-3.31-1,3.44,3.44,0,0,1-.06-5.24,5.82,5.82,0,0,1,3.76-1H249v-.45a2.85,2.85,0,0,0-.83-2.2,3.55,3.55,0,0,0-2.47-.77,6.48,6.48,0,0,0-2.13.36,5.37,5.37,0,0,0-1.77,1l-.93-1.68a6.83,6.83,0,0,1,2.28-1.17,9.55,9.55,0,0,1,2.81-.41A5.54,5.54,0,0,1,249.83,200.91Zm-2.22,9a3.29,3.29,0,0,0,1.35-1.61V206.6h-3.44c-1.88,0-2.83.63-2.83,1.9a1.71,1.71,0,0,0,.72,1.46,3.28,3.28,0,0,0,2,.54A4.12,4.12,0,0,0,247.61,209.93Z"/><path class="cls-3" d="M262.24,211.36a3.27,3.27,0,0,1-1.2.64,5.32,5.32,0,0,1-1.49.22,4,4,0,0,1-2.88-1,3.83,3.83,0,0,1-1-2.86v-6.75h-2.09v-1.84h2.09v-2.69h2.23v2.69h3.53v1.84h-3.53v6.66a2.11,2.11,0,0,0,.5,1.53,1.85,1.85,0,0,0,1.43.54,2.72,2.72,0,0,0,1.74-.58Z"/><path class="cls-3" d="M265.56,211.81a6.42,6.42,0,0,1-2.18-1l.93-1.77a6.54,6.54,0,0,0,2,.93,8.26,8.26,0,0,0,2.35.35c1.95,0,2.93-.56,2.93-1.67a1.08,1.08,0,0,0-.4-.88,2.41,2.41,0,0,0-1-.48c-.39-.1-.95-.21-1.68-.34a16.27,16.27,0,0,1-2.43-.53,3.76,3.76,0,0,1-1.61-1,2.85,2.85,0,0,1-.67-2,3.16,3.16,0,0,1,1.39-2.69,6.26,6.26,0,0,1,3.74-1,10.36,10.36,0,0,1,2.46.31,6.65,6.65,0,0,1,2,.81l-.95,1.76a6.42,6.42,0,0,0-3.56-1,4.13,4.13,0,0,0-2.16.46,1.41,1.41,0,0,0-.74,1.23,1.19,1.19,0,0,0,.42,1,2.69,2.69,0,0,0,1,.51c.41.11,1,.23,1.73.37a20,20,0,0,1,2.41.54,3.66,3.66,0,0,1,1.56,1,2.74,2.74,0,0,1,.65,1.95,3.07,3.07,0,0,1-1.42,2.66,6.75,6.75,0,0,1-3.89,1A10.39,10.39,0,0,1,265.56,211.81Z"/><path class="cls-3" d="M285,200.91a4.85,4.85,0,0,1,1.35,3.74v7.43h-2.11v-1.63a3.45,3.45,0,0,1-1.59,1.31,6,6,0,0,1-2.45.46,5.16,5.16,0,0,1-3.31-1,3.44,3.44,0,0,1-.06-5.24,5.84,5.84,0,0,1,3.76-1h3.53v-.45a2.81,2.81,0,0,0-.83-2.2,3.54,3.54,0,0,0-2.46-.77,6.54,6.54,0,0,0-2.14.36,5.32,5.32,0,0,0-1.76,1l-.93-1.68a6.68,6.68,0,0,1,2.27-1.17,9.55,9.55,0,0,1,2.81-.41A5.56,5.56,0,0,1,285,200.91Zm-2.22,9a3.22,3.22,0,0,0,1.34-1.61V206.6h-3.43c-1.89,0-2.84.63-2.84,1.9a1.71,1.71,0,0,0,.72,1.46,3.28,3.28,0,0,0,2,.54A4.15,4.15,0,0,0,282.75,209.93Z"/><path class="cls-3" d="M300.19,200.44a5.72,5.72,0,0,1,2.21,2.21,6.47,6.47,0,0,1,.81,3.27,6.55,6.55,0,0,1-.81,3.29,5.68,5.68,0,0,1-2.21,2.22,6.58,6.58,0,0,1-3.21.79,5.67,5.67,0,0,1-2.42-.51,5,5,0,0,1-1.87-1.49v6.36h-2.23V199.77h2.13v1.95a4.84,4.84,0,0,1,1.88-1.54,5.94,5.94,0,0,1,2.51-.53A6.58,6.58,0,0,1,300.19,200.44Zm-1.27,9.28a3.92,3.92,0,0,0,1.49-1.53,5,5,0,0,0,0-4.53,3.89,3.89,0,0,0-1.49-1.52,4.17,4.17,0,0,0-2.12-.53,4.1,4.1,0,0,0-2.1.54,3.89,3.89,0,0,0-1.49,1.52,4.47,4.47,0,0,0-.55,2.25,4.65,4.65,0,0,0,.54,2.27,3.76,3.76,0,0,0,1.48,1.53,4.14,4.14,0,0,0,2.12.55A4.09,4.09,0,0,0,298.92,209.72Z"/><path class="cls-3" d="M316,200.44a5.68,5.68,0,0,1,2.22,2.21,6.47,6.47,0,0,1,.8,3.27,6.55,6.55,0,0,1-.8,3.29,5.64,5.64,0,0,1-2.22,2.22,6.51,6.51,0,0,1-3.2.79,5.75,5.75,0,0,1-2.43-.51,5.09,5.09,0,0,1-1.87-1.49v6.36h-2.23V199.77h2.14v1.95a4.77,4.77,0,0,1,1.88-1.54,5.94,5.94,0,0,1,2.51-.53A6.51,6.51,0,0,1,316,200.44Zm-1.26,9.28a3.83,3.83,0,0,0,1.48-1.53,4.94,4.94,0,0,0,0-4.53,3.8,3.8,0,0,0-1.48-1.52,4.21,4.21,0,0,0-2.13-.53,4.16,4.16,0,0,0-2.1.54,3.86,3.86,0,0,0-1.48,1.52,4.47,4.47,0,0,0-.55,2.25,4.75,4.75,0,0,0,.53,2.27,3.85,3.85,0,0,0,1.49,1.53,4.36,4.36,0,0,0,4.24,0Z"/><path class="cls-3" d="M214.67,239.94l0-11.84L208.77,238h-1.06l-5.88-9.8v11.77H199.6V223.69h1.91l6.78,11.42L215,223.69h1.91l0,16.25Z"/><path class="cls-3" d="M232.53,234.53h-10a3.89,3.89,0,0,0,1.43,2.62,4.69,4.69,0,0,0,3,1,4.58,4.58,0,0,0,3.56-1.48l1.23,1.44a5.39,5.39,0,0,1-2.08,1.48,7.28,7.28,0,0,1-2.78.51,7.21,7.21,0,0,1-3.46-.8,5.72,5.72,0,0,1-2.33-2.24,6.41,6.41,0,0,1-.83-3.25,6.48,6.48,0,0,1,.81-3.23,5.64,5.64,0,0,1,2.2-2.24,6.33,6.33,0,0,1,3.17-.8,6.2,6.2,0,0,1,3.15.8,5.61,5.61,0,0,1,2.16,2.24,6.82,6.82,0,0,1,.78,3.3C232.58,234,232.56,234.25,232.53,234.53Zm-8.72-4.15a4,4,0,0,0-1.27,2.55h7.9a4,4,0,0,0-1.27-2.54,4.14,4.14,0,0,0-5.36,0Z"/><path class="cls-3" d="M236.29,239.68a6.24,6.24,0,0,1-2.18-1l.93-1.76a6.79,6.79,0,0,0,2,.93,8.2,8.2,0,0,0,2.35.34c1.95,0,2.92-.55,2.92-1.67a1.09,1.09,0,0,0-.39-.88,2.69,2.69,0,0,0-1-.48c-.39-.1-1-.21-1.68-.33a16.13,16.13,0,0,1-2.43-.54,3.64,3.64,0,0,1-1.61-1,2.84,2.84,0,0,1-.68-2,3.16,3.16,0,0,1,1.4-2.68,6.22,6.22,0,0,1,3.73-1,10.43,10.43,0,0,1,2.47.3,6.65,6.65,0,0,1,2,.81l-1,1.77a6.39,6.39,0,0,0-3.55-1,4.12,4.12,0,0,0-2.16.47,1.41,1.41,0,0,0-.74,1.23,1.17,1.17,0,0,0,.42.95,2.69,2.69,0,0,0,1,.51c.41.11,1,.23,1.73.37a19.14,19.14,0,0,1,2.4.55,3.51,3.51,0,0,1,1.57,1,2.75,2.75,0,0,1,.65,1.95,3.09,3.09,0,0,1-1.43,2.66,6.81,6.81,0,0,1-3.89,1A10.36,10.36,0,0,1,236.29,239.68Z"/><path class="cls-3" d="M247.92,239.68a6.42,6.42,0,0,1-2.18-1l.93-1.76a6.79,6.79,0,0,0,2,.93,8.25,8.25,0,0,0,2.35.34c1.95,0,2.93-.55,2.93-1.67a1.1,1.1,0,0,0-.4-.88,2.54,2.54,0,0,0-1-.48q-.59-.15-1.68-.33a16.13,16.13,0,0,1-2.43-.54,3.76,3.76,0,0,1-1.61-1,2.83,2.83,0,0,1-.67-2,3.15,3.15,0,0,1,1.39-2.68,6.26,6.26,0,0,1,3.74-1,10.35,10.35,0,0,1,2.46.3,6.65,6.65,0,0,1,2,.81l-.95,1.77a6.41,6.41,0,0,0-3.55-1,4.07,4.07,0,0,0-2.16.47,1.4,1.4,0,0,0-.75,1.23,1.17,1.17,0,0,0,.42.95,2.69,2.69,0,0,0,1,.51c.41.11,1,.23,1.73.37a19.35,19.35,0,0,1,2.41.55,3.48,3.48,0,0,1,1.56,1,2.7,2.7,0,0,1,.65,1.95,3.08,3.08,0,0,1-1.42,2.66,6.83,6.83,0,0,1-3.89,1A10.38,10.38,0,0,1,247.92,239.68Z"/><path class="cls-3" d="M270,234.53H260a3.89,3.89,0,0,0,1.43,2.62,4.69,4.69,0,0,0,3,1,4.55,4.55,0,0,0,3.55-1.48l1.23,1.44a5.35,5.35,0,0,1-2.07,1.48,7.28,7.28,0,0,1-2.78.51,7.21,7.21,0,0,1-3.46-.8,5.66,5.66,0,0,1-2.33-2.24,6.41,6.41,0,0,1-.83-3.25,6.58,6.58,0,0,1,.8-3.23,5.74,5.74,0,0,1,2.21-2.24,6.33,6.33,0,0,1,3.17-.8,6.2,6.2,0,0,1,3.15.8,5.61,5.61,0,0,1,2.16,2.24,6.93,6.93,0,0,1,.77,3.3A6.32,6.32,0,0,1,270,234.53Zm-8.72-4.15a4,4,0,0,0-1.27,2.55h7.9a4,4,0,0,0-1.27-2.54,4.14,4.14,0,0,0-5.36,0Z"/><path class="cls-3" d="M283.44,228.88a5.33,5.33,0,0,1,1.38,4v7.08h-2.23v-6.82a3.76,3.76,0,0,0-.86-2.7,3.23,3.23,0,0,0-2.46-.9,3.84,3.84,0,0,0-2.85,1,4.13,4.13,0,0,0-1.05,3v6.34h-2.23v-12.3h2.14v1.85A4.4,4.4,0,0,1,277.1,228a6.4,6.4,0,0,1,2.61-.51A5.06,5.06,0,0,1,283.44,228.88Z"/><path class="cls-3" d="M300.8,227.64v10.63a6.35,6.35,0,0,1-1.6,4.77,6.67,6.67,0,0,1-4.79,1.55,11.39,11.39,0,0,1-3.32-.48,6.59,6.59,0,0,1-2.55-1.36l1.07-1.72a6.28,6.28,0,0,0,2.12,1.18,8.25,8.25,0,0,0,2.61.43,4.37,4.37,0,0,0,3.2-1,4.18,4.18,0,0,0,1-3.11v-1a5,5,0,0,1-1.94,1.43,6.62,6.62,0,0,1-2.5.47,6.76,6.76,0,0,1-3.19-.75,5.58,5.58,0,0,1-2.24-2.12,6.34,6.34,0,0,1,0-6.2,5.6,5.6,0,0,1,2.24-2.1,6.88,6.88,0,0,1,3.19-.74,6.51,6.51,0,0,1,2.59.51,4.77,4.77,0,0,1,2,1.51v-1.9ZM296.56,237a3.78,3.78,0,0,0,1.51-1.43,4,4,0,0,0,.55-2.08,3.78,3.78,0,0,0-1.19-2.89,4.3,4.3,0,0,0-3-1.1,4.36,4.36,0,0,0-3.07,1.1,3.8,3.8,0,0,0-1.18,2.89,3.92,3.92,0,0,0,.55,2.08A3.72,3.72,0,0,0,292.2,237a4.6,4.6,0,0,0,2.19.51A4.54,4.54,0,0,0,296.56,237Z"/><path class="cls-3" d="M316.12,234.53h-10a3.85,3.85,0,0,0,1.43,2.62,4.69,4.69,0,0,0,3,1,4.56,4.56,0,0,0,3.55-1.48l1.23,1.44a5.39,5.39,0,0,1-2.08,1.48,7.84,7.84,0,0,1-6.23-.29,5.68,5.68,0,0,1-2.34-2.24,6.51,6.51,0,0,1-.82-3.25,6.58,6.58,0,0,1,.8-3.23,5.74,5.74,0,0,1,2.21-2.24,6.3,6.3,0,0,1,3.17-.8,6.19,6.19,0,0,1,3.14.8,5.61,5.61,0,0,1,2.16,2.24,6.82,6.82,0,0,1,.78,3.3A4.68,4.68,0,0,1,316.12,234.53Zm-8.71-4.15a3.87,3.87,0,0,0-1.27,2.55H314a3.92,3.92,0,0,0-1.26-2.54,4.14,4.14,0,0,0-5.36,0Z"/><path class="cls-3" d="M323.11,228.08a6.27,6.27,0,0,1,2.77-.56v2.16a3.71,3.71,0,0,0-.51,0,3.76,3.76,0,0,0-2.85,1.08,4.25,4.25,0,0,0-1,3.07v6.13h-2.23v-12.3h2.14v2.06A3.78,3.78,0,0,1,323.11,228.08Z"/></g></g><g id="telegram"><path id="logo-5" data-name="logo" class="cls-3" d="M289.23,670.36a39.17,39.17,0,1,0,39.17,39.17A39.16,39.16,0,0,0,289.23,670.36Zm19.24,26.83L302,727.49c-.47,2.14-1.75,2.67-3.54,1.65l-9.79-7.21L284,726.48a2.5,2.5,0,0,1-2,1l.7-10,18.14-16.39c.79-.7-.17-1.09-1.21-.4L277.21,714.8l-9.67-3c-2.1-.67-2.14-2.1.45-3.12l37.76-14.56C307.5,693.48,309,694.54,308.47,697.19Z"/><g id="label-5" data-name="label"><path class="cls-3" d="M379.69,687.65h-5.57v-2h13.44v2H382v14.24h-2.3Z"/><path class="cls-3" d="M399.57,696.48h-10a3.89,3.89,0,0,0,1.43,2.61,4.64,4.64,0,0,0,3,1,4.55,4.55,0,0,0,3.55-1.49l1.23,1.44a5.37,5.37,0,0,1-2.07,1.49,7.86,7.86,0,0,1-6.24-.29,5.78,5.78,0,0,1-2.33-2.24,6.45,6.45,0,0,1-.83-3.26,6.54,6.54,0,0,1,.8-3.22,5.74,5.74,0,0,1,2.21-2.24,6.23,6.23,0,0,1,3.17-.81,6.11,6.11,0,0,1,3.15.81,5.61,5.61,0,0,1,2.16,2.24,6.8,6.8,0,0,1,.77,3.29A6.49,6.49,0,0,1,399.57,696.48Zm-8.72-4.16a4,4,0,0,0-1.27,2.56h7.9a4,4,0,0,0-1.27-2.55,4.17,4.17,0,0,0-5.36,0Z"/><path class="cls-3" d="M402.7,684.66h2.23v17.23H402.7Z"/><path class="cls-3" d="M420.26,696.48h-10a3.89,3.89,0,0,0,1.43,2.61,4.64,4.64,0,0,0,3,1,4.55,4.55,0,0,0,3.55-1.49l1.24,1.44a5.48,5.48,0,0,1-2.08,1.49,7.86,7.86,0,0,1-6.24-.29,5.78,5.78,0,0,1-2.33-2.24,6.45,6.45,0,0,1-.83-3.26,6.54,6.54,0,0,1,.8-3.22,5.74,5.74,0,0,1,2.21-2.24,6.23,6.23,0,0,1,3.17-.81,6.11,6.11,0,0,1,3.15.81,5.61,5.61,0,0,1,2.16,2.24,6.8,6.8,0,0,1,.77,3.29A6.49,6.49,0,0,1,420.26,696.48Zm-8.72-4.16a4,4,0,0,0-1.27,2.56h7.9a4,4,0,0,0-1.27-2.55,4.17,4.17,0,0,0-5.36,0Z"/><path class="cls-3" d="M435.17,689.58v10.64a6.35,6.35,0,0,1-1.61,4.77,6.62,6.62,0,0,1-4.78,1.54,11.68,11.68,0,0,1-3.32-.47,6.59,6.59,0,0,1-2.55-1.36L424,703a6.32,6.32,0,0,0,2.13,1.17,7.94,7.94,0,0,0,2.61.43,4.36,4.36,0,0,0,3.19-1,4.2,4.2,0,0,0,1-3.11v-1A5,5,0,0,1,431,700.9a6.44,6.44,0,0,1-2.5.48,6.65,6.65,0,0,1-3.19-.76,5.62,5.62,0,0,1-2.24-2.11,6.34,6.34,0,0,1,0-6.2,5.47,5.47,0,0,1,2.24-2.1,6.76,6.76,0,0,1,3.19-.75,6.55,6.55,0,0,1,2.59.52,4.8,4.8,0,0,1,2,1.5v-1.9Zm-4.24,9.34a3.85,3.85,0,0,0,1.51-1.43,4,4,0,0,0,.54-2.08,3.75,3.75,0,0,0-1.18-2.89,4.76,4.76,0,0,0-6.11,0,3.75,3.75,0,0,0-1.18,2.89,4,4,0,0,0,.54,2.08,3.85,3.85,0,0,0,1.51,1.43,4.66,4.66,0,0,0,2.2.51A4.57,4.57,0,0,0,430.93,698.92Z"/><path class="cls-3" d="M443.27,690a6.26,6.26,0,0,1,2.76-.56v2.16l-.51,0a3.74,3.74,0,0,0-2.84,1.08,4.28,4.28,0,0,0-1,3.08v6.13h-2.22V689.58h2.13v2.07A3.83,3.83,0,0,1,443.27,690Z"/><path class="cls-3" d="M457.15,690.72a4.85,4.85,0,0,1,1.35,3.74v7.43h-2.11v-1.63a3.45,3.45,0,0,1-1.59,1.31,6,6,0,0,1-2.45.46,5.16,5.16,0,0,1-3.31-1,3.44,3.44,0,0,1-.06-5.24,5.84,5.84,0,0,1,3.76-1h3.53v-.45a2.81,2.81,0,0,0-.83-2.2,3.54,3.54,0,0,0-2.46-.77,6.54,6.54,0,0,0-2.14.36,5.32,5.32,0,0,0-1.76,1l-.93-1.68a6.68,6.68,0,0,1,2.27-1.17,9.55,9.55,0,0,1,2.81-.41A5.58,5.58,0,0,1,457.15,690.72Zm-2.22,9a3.22,3.22,0,0,0,1.34-1.61v-1.72h-3.43c-1.89,0-2.84.63-2.84,1.9a1.71,1.71,0,0,0,.72,1.46,3.28,3.28,0,0,0,2,.54A4.15,4.15,0,0,0,454.93,699.74Z"/><path class="cls-3" d="M481.71,690.81a5.38,5.38,0,0,1,1.36,4v7.08h-2.23v-6.83a3.87,3.87,0,0,0-.82-2.69,3,3,0,0,0-2.36-.91,3.5,3.5,0,0,0-2.69,1.06,4.21,4.21,0,0,0-1,3v6.34h-2.23v-6.83a3.92,3.92,0,0,0-.82-2.69,3,3,0,0,0-2.36-.91,3.53,3.53,0,0,0-2.7,1.06,4.25,4.25,0,0,0-1,3v6.34h-2.23V689.58h2.13v1.83a4.42,4.42,0,0,1,1.77-1.45,5.94,5.94,0,0,1,2.48-.5,5.58,5.58,0,0,1,2.56.58,4.14,4.14,0,0,1,1.72,1.7,4.71,4.71,0,0,1,1.93-1.67,6.39,6.39,0,0,1,2.8-.61A5,5,0,0,1,481.71,690.81Z"/><path class="cls-3" d="M388.93,729.75l0-11.84L383,727.78H382l-5.87-9.8v11.77h-2.23V713.5h1.9l6.78,11.42,6.69-11.42h1.91l0,16.25Z"/><path class="cls-3" d="M406.79,724.34h-10a3.84,3.84,0,0,0,1.43,2.61,4.64,4.64,0,0,0,3,1,4.56,4.56,0,0,0,3.55-1.48L406,727.9a5.35,5.35,0,0,1-2.07,1.48,7.28,7.28,0,0,1-2.78.51,7.21,7.21,0,0,1-3.46-.8,5.66,5.66,0,0,1-2.33-2.24,6.41,6.41,0,0,1-.83-3.25,6.58,6.58,0,0,1,.8-3.23,5.74,5.74,0,0,1,2.21-2.24,6.33,6.33,0,0,1,3.17-.8,6.25,6.25,0,0,1,3.15.8,5.52,5.52,0,0,1,2.15,2.24,6.82,6.82,0,0,1,.78,3.3A6.32,6.32,0,0,1,406.79,724.34Zm-8.72-4.15a3.91,3.91,0,0,0-1.27,2.55h7.9a4,4,0,0,0-1.27-2.54,4.14,4.14,0,0,0-5.36,0Z"/><path class="cls-3" d="M410.55,729.49a6.24,6.24,0,0,1-2.18-1l.92-1.76a6.86,6.86,0,0,0,2,.93,8.13,8.13,0,0,0,2.34.34c1.95,0,2.93-.55,2.93-1.67a1.07,1.07,0,0,0-.4-.88,2.57,2.57,0,0,0-1-.48c-.4-.1-1-.21-1.69-.33a15.69,15.69,0,0,1-2.42-.54,3.73,3.73,0,0,1-1.62-1,2.83,2.83,0,0,1-.67-2,3.15,3.15,0,0,1,1.39-2.68,6.28,6.28,0,0,1,3.74-1,10.35,10.35,0,0,1,2.46.3,6.54,6.54,0,0,1,2,.81l-.95,1.77a6.39,6.39,0,0,0-3.55-1,4.07,4.07,0,0,0-2.16.47,1.39,1.39,0,0,0-.74,1.23,1.19,1.19,0,0,0,.41,1,2.74,2.74,0,0,0,1,.51c.41.11,1,.23,1.73.37a19.14,19.14,0,0,1,2.4.55,3.57,3.57,0,0,1,1.57,1,2.75,2.75,0,0,1,.65,2,3.09,3.09,0,0,1-1.43,2.66,6.81,6.81,0,0,1-3.89,1A10.31,10.31,0,0,1,410.55,729.49Z"/><path class="cls-3" d="M422.18,729.49a6.33,6.33,0,0,1-2.18-1l.93-1.76a6.79,6.79,0,0,0,2,.93,8.25,8.25,0,0,0,2.35.34c1.95,0,2.92-.55,2.92-1.67a1.09,1.09,0,0,0-.39-.88,2.62,2.62,0,0,0-1-.48c-.39-.1-1-.21-1.68-.33a16.13,16.13,0,0,1-2.43-.54,3.7,3.7,0,0,1-1.61-1,2.84,2.84,0,0,1-.68-2,3.16,3.16,0,0,1,1.4-2.68,6.26,6.26,0,0,1,3.74-1,10.35,10.35,0,0,1,2.46.3,6.65,6.65,0,0,1,2,.81l-1,1.77a6.39,6.39,0,0,0-3.55-1,4.12,4.12,0,0,0-2.16.47,1.41,1.41,0,0,0-.74,1.23,1.17,1.17,0,0,0,.42,1,2.69,2.69,0,0,0,1,.51c.41.11,1,.23,1.73.37a19.14,19.14,0,0,1,2.4.55,3.46,3.46,0,0,1,1.57,1,2.7,2.7,0,0,1,.65,2,3.07,3.07,0,0,1-1.43,2.66,6.81,6.81,0,0,1-3.89,1A10.36,10.36,0,0,1,422.18,729.49Z"/><path class="cls-3" d="M444.26,724.34h-10a3.81,3.81,0,0,0,1.43,2.61,4.64,4.64,0,0,0,3,1,4.56,4.56,0,0,0,3.55-1.48l1.23,1.44a5.39,5.39,0,0,1-2.08,1.48,7.84,7.84,0,0,1-6.23-.29,5.68,5.68,0,0,1-2.34-2.24,6.51,6.51,0,0,1-.82-3.25,6.58,6.58,0,0,1,.8-3.23,5.74,5.74,0,0,1,2.21-2.24,6.3,6.3,0,0,1,3.17-.8,6.19,6.19,0,0,1,3.14.8,5.61,5.61,0,0,1,2.16,2.24,6.82,6.82,0,0,1,.78,3.3A4.68,4.68,0,0,1,444.26,724.34Zm-8.71-4.15a3.91,3.91,0,0,0-1.27,2.55h7.89a3.92,3.92,0,0,0-1.26-2.54,4.14,4.14,0,0,0-5.36,0Z"/><path class="cls-3" d="M457.7,718.69a5.33,5.33,0,0,1,1.38,4v7.08h-2.23v-6.82a3.81,3.81,0,0,0-.86-2.7,3.23,3.23,0,0,0-2.46-.9,3.86,3.86,0,0,0-2.86,1,4.17,4.17,0,0,0-1,3v6.34H447.4v-12.3h2.14v1.85a4.33,4.33,0,0,1,1.82-1.46,6.4,6.4,0,0,1,2.61-.51A5.08,5.08,0,0,1,457.7,718.69Z"/><path class="cls-3" d="M475.06,717.45v10.63a6.35,6.35,0,0,1-1.61,4.77,6.62,6.62,0,0,1-4.78,1.55,11.34,11.34,0,0,1-3.32-.48,6.59,6.59,0,0,1-2.55-1.36l1.06-1.72A6.33,6.33,0,0,0,466,732a8.21,8.21,0,0,0,2.61.43,4.32,4.32,0,0,0,3.19-1,4.18,4.18,0,0,0,1-3.11v-1a5.09,5.09,0,0,1-1.94,1.43,6.62,6.62,0,0,1-2.5.47,6.76,6.76,0,0,1-3.19-.75,5.65,5.65,0,0,1-2.24-2.12,6.34,6.34,0,0,1,0-6.2,5.6,5.6,0,0,1,2.24-2.1,6.88,6.88,0,0,1,3.19-.74,6.54,6.54,0,0,1,2.59.51,4.74,4.74,0,0,1,2,1.51v-1.9Zm-4.24,9.33a3.85,3.85,0,0,0,1.51-1.43,4,4,0,0,0,.54-2.08,3.77,3.77,0,0,0-1.18-2.89,4.79,4.79,0,0,0-6.11,0,3.77,3.77,0,0,0-1.18,2.89,4,4,0,0,0,.54,2.08,3.85,3.85,0,0,0,1.51,1.43,4.66,4.66,0,0,0,2.2.51A4.57,4.57,0,0,0,470.82,726.78Z"/><path class="cls-3" d="M490.38,724.34h-10a3.81,3.81,0,0,0,1.43,2.61,4.64,4.64,0,0,0,3,1,4.56,4.56,0,0,0,3.55-1.48l1.23,1.44a5.39,5.39,0,0,1-2.08,1.48,7.84,7.84,0,0,1-6.23-.29,5.68,5.68,0,0,1-2.34-2.24,6.41,6.41,0,0,1-.82-3.25,6.48,6.48,0,0,1,.8-3.23,5.71,5.71,0,0,1,2.2-2.24,6.35,6.35,0,0,1,3.17-.8,6.2,6.2,0,0,1,3.15.8,5.61,5.61,0,0,1,2.16,2.24,6.82,6.82,0,0,1,.78,3.3C490.43,723.84,490.41,724.06,490.38,724.34Zm-8.72-4.15a3.9,3.9,0,0,0-1.26,2.55h7.89A3.92,3.92,0,0,0,487,720.2a4.15,4.15,0,0,0-5.37,0Z"/><path class="cls-3" d="M497.37,717.89a6.27,6.27,0,0,1,2.77-.56v2.16a3.79,3.79,0,0,0-.52,0,3.75,3.75,0,0,0-2.84,1.08,4.25,4.25,0,0,0-1,3.07v6.13h-2.23v-12.3h2.13v2.06A3.81,3.81,0,0,1,497.37,717.89Z"/></g></g></g><g id="main"><g id="logo-6" data-name="logo"><path class="cls-3" d="M516,319.6a20.72,20.72,0,0,0-20.7-20.7H481.83a20.73,20.73,0,0,0-20.71,20.7h5.31a15.41,15.41,0,0,1,15.4-15.4h13.44a15.42,15.42,0,0,1,15.4,15.4H516Z"/><path class="cls-3" d="M470,296.6H506a8,8,0,0,0,8-8V272.06a8,8,0,0,0-8-8H470a8,8,0,0,0-8,8v16.58A8,8,0,0,0,470,296.6Zm-2.65-24.54A2.66,2.66,0,0,1,470,269.4H506a2.66,2.66,0,0,1,2.66,2.66v16.58a2.66,2.66,0,0,1-2.66,2.65H470a2.65,2.65,0,0,1-2.65-2.65Z"/><rect class="cls-3" x="476.02" y="274.09" width="5.31" height="12.52"/><rect class="cls-3" x="495.5" y="274.09" width="5.31" height="12.52"/><rect class="cls-3" x="454.29" y="274.34" width="5.31" height="12.02"/><rect class="cls-3" x="517.5" y="274.34" width="5.31" height="12.02"/><path class="cls-3" d="M547.36,319.6a15.42,15.42,0,0,1,15.4-15.4H576.2a15.42,15.42,0,0,1,15.4,15.4h5.31a20.73,20.73,0,0,0-20.71-20.7H562.76a20.73,20.73,0,0,0-20.7,20.7Z"/><path class="cls-3" d="M550.9,264.1a8,8,0,0,0-7.95,8v16.58a8,8,0,0,0,7.95,8H587a8,8,0,0,0,8-8V272.06a8,8,0,0,0-8-8Zm38.72,8v16.58a2.65,2.65,0,0,1-2.65,2.65H550.9a2.65,2.65,0,0,1-2.65-2.65V272.06a2.66,2.66,0,0,1,2.65-2.66H587A2.66,2.66,0,0,1,589.62,272.06Z"/><rect class="cls-3" x="556.95" y="274.09" width="5.31" height="12.52"/><rect class="cls-3" x="576.43" y="274.09" width="5.31" height="12.52"/><rect class="cls-3" x="535.23" y="274.34" width="5.31" height="12.02"/><rect class="cls-3" x="598.43" y="274.34" width="5.31" height="12.02"/><path class="cls-3" d="M543.53,256.48a41.84,41.84,0,0,0,8.66.9,41.13,41.13,0,0,0,16.16-3.28l19.88,7a2.71,2.71,0,0,0,.88.15,2.65,2.65,0,0,0,2.49-3.56l-6.27-17.26a35.33,35.33,0,0,0,6.44-20.31c0-13.66-7.86-25.62-19.55-32.1a2.64,2.64,0,0,0-3.69,3.35l0,.08a2.62,2.62,0,0,0,1.13,1.24c10,5.58,16.77,15.78,16.77,27.43a30.23,30.23,0,0,1-6.19,18.26,2.72,2.72,0,0,0-.41,2.55l4.84,13.3L569.76,249a2.65,2.65,0,0,0-2.53-.18,35.78,35.78,0,0,1-22.49,2.48,2.54,2.54,0,0,0-1.56.16l-.08,0A2.64,2.64,0,0,0,543.53,256.48Z"/><path class="cls-3" d="M563.71,205A43.32,43.32,0,0,0,562,193a46.87,46.87,0,0,0-23.57-28.36,51.21,51.21,0,0,0-23.79-5.81c-27,0-49,20.68-49,46.11a43.86,43.86,0,0,0,8.16,25.42l-8,22a2.65,2.65,0,0,0,3.37,3.41l4.53-1.6,8.07-2.84,12.62-4.46.54.22a51.55,51.55,0,0,0,37.12.95C550.54,241.46,563.71,224.64,563.71,205Zm-49,40.8a45.92,45.92,0,0,1-19.18-4.18,2.56,2.56,0,0,0-2.43.16l-20.36,7.18,6.57-18.05a2.66,2.66,0,0,0-.37-2.51A38.61,38.61,0,0,1,471,205c0-22.5,19.61-40.8,43.72-40.8s43.73,18.3,43.73,40.8S538.79,245.77,514.67,245.77Z"/><circle class="cls-3" cx="491.15" cy="204.92" r="6.04"/><circle class="cls-3" cx="514.67" cy="204.92" r="6.04"/><circle class="cls-3" cx="538.2" cy="204.92" r="6.04"/></g><g id="label-6" data-name="label"><path class="cls-3" d="M374.05,378a13.85,13.85,0,0,1-5.39-5.21,15.2,15.2,0,0,1,0-14.93,13.84,13.84,0,0,1,5.41-5.21,15.83,15.83,0,0,1,7.73-1.89,16,16,0,0,1,6.1,1.12,12.48,12.48,0,0,1,4.72,3.31L390,357.75a10.64,10.64,0,0,0-8-3.38,11.71,11.71,0,0,0-5.74,1.42,10.35,10.35,0,0,0-4,3.93,11.52,11.52,0,0,0,0,11.19,10.25,10.25,0,0,0,4,3.92,11.61,11.61,0,0,0,5.74,1.43,10.64,10.64,0,0,0,8-3.42l2.64,2.56a12.58,12.58,0,0,1-4.74,3.34,16,16,0,0,1-6.12,1.14A15.72,15.72,0,0,1,374.05,378Z"/><path class="cls-3" d="M400.43,378.37a10.28,10.28,0,0,1-4-3.92,11.9,11.9,0,0,1,0-11.35,10.26,10.26,0,0,1,4-3.91,12.59,12.59,0,0,1,11.54,0,10.24,10.24,0,0,1,4,3.91,11.83,11.83,0,0,1,0,11.35,10.27,10.27,0,0,1-4,3.92,12.36,12.36,0,0,1-11.54,0Zm9.5-2.95a6.75,6.75,0,0,0,2.59-2.68,8.92,8.92,0,0,0,0-7.93,6.66,6.66,0,0,0-2.59-2.67,7.91,7.91,0,0,0-7.44,0,6.77,6.77,0,0,0-2.61,2.67,8.75,8.75,0,0,0,0,7.93,6.87,6.87,0,0,0,2.61,2.68,7.69,7.69,0,0,0,7.44,0Z"/><path class="cls-3" d="M440.85,360.17c1.62,1.58,2.42,3.91,2.42,7v12.4h-3.9v-12a6.64,6.64,0,0,0-1.51-4.72,5.68,5.68,0,0,0-4.31-1.58,6.72,6.72,0,0,0-5,1.85,7.22,7.22,0,0,0-1.83,5.31v11.1h-3.9V358h3.74v3.26a7.57,7.57,0,0,1,3.2-2.57,11.22,11.22,0,0,1,4.57-.89A8.89,8.89,0,0,1,440.85,360.17Z"/><path class="cls-3" d="M469.19,358l-9.44,21.56h-4L446.32,358h4.07l7.41,17.29L465.36,358Z"/><path class="cls-3" d="M491.65,370.07h-17.5a6.81,6.81,0,0,0,2.5,4.58,8.15,8.15,0,0,0,5.31,1.73,8,8,0,0,0,6.23-2.6l2.16,2.52a9.42,9.42,0,0,1-3.65,2.6,13.66,13.66,0,0,1-10.92-.51,10,10,0,0,1-4.09-3.92,12.05,12.05,0,0,1,0-11.35,10.08,10.08,0,0,1,3.87-3.93,11.05,11.05,0,0,1,5.55-1.4,10.83,10.83,0,0,1,5.51,1.4,9.89,9.89,0,0,1,3.79,3.93,12,12,0,0,1,1.36,5.77C491.73,369.19,491.7,369.59,491.65,370.07Zm-15.28-7.28a6.91,6.91,0,0,0-2.22,4.48H488a7,7,0,0,0-2.22-4.46,7.28,7.28,0,0,0-9.4,0Z"/><path class="cls-3" d="M503.89,358.76a11,11,0,0,1,4.84-1v3.78a6.9,6.9,0,0,0-.89,0,6.55,6.55,0,0,0-5,1.89,7.48,7.48,0,0,0-1.81,5.39v10.74h-3.91V358h3.74v3.62A6.65,6.65,0,0,1,503.89,358.76Z"/><path class="cls-3" d="M514.8,379.09a11.3,11.3,0,0,1-3.83-1.81l1.63-3.1a11.69,11.69,0,0,0,3.46,1.63,14.06,14.06,0,0,0,4.11.61c3.41,0,5.12-1,5.12-2.93a1.89,1.89,0,0,0-.69-1.54,4.44,4.44,0,0,0-1.73-.84c-.69-.17-1.67-.37-3-.59a29.37,29.37,0,0,1-4.25-.93,6.65,6.65,0,0,1-2.83-1.79,5,5,0,0,1-1.18-3.54,5.54,5.54,0,0,1,2.44-4.7,11,11,0,0,1,6.56-1.77,17.72,17.72,0,0,1,4.31.53,11.51,11.51,0,0,1,3.54,1.42l-1.67,3.09a11.21,11.21,0,0,0-6.23-1.71,7.22,7.22,0,0,0-3.78.82,2.44,2.44,0,0,0-1.3,2.15,2.05,2.05,0,0,0,.73,1.67,4.6,4.6,0,0,0,1.81.9c.72.19,1.73.4,3,.65a34.72,34.72,0,0,1,4.21.95,6.36,6.36,0,0,1,2.75,1.73,4.84,4.84,0,0,1,1.14,3.42,5.39,5.39,0,0,1-2.5,4.66,11.85,11.85,0,0,1-6.82,1.73A18.18,18.18,0,0,1,514.8,379.09Z"/><path class="cls-3" d="M548.79,360q2.38,2.2,2.38,6.55v13h-3.7v-2.84a6.11,6.11,0,0,1-2.79,2.29,10.63,10.63,0,0,1-4.29.8,9,9,0,0,1-5.8-1.75,5.63,5.63,0,0,1-2.18-4.6,5.69,5.69,0,0,1,2.08-4.58q2.07-1.72,6.59-1.72h6.18v-.78a5,5,0,0,0-1.46-3.86,6.17,6.17,0,0,0-4.31-1.35,11.44,11.44,0,0,0-3.75.63,9.92,9.92,0,0,0-3.09,1.69L533,360.55a11.77,11.77,0,0,1,4-2.05,16.87,16.87,0,0,1,4.92-.71C544.92,357.79,547.2,358.52,548.79,360Zm-3.89,15.81a5.63,5.63,0,0,0,2.36-2.83v-3h-6c-3.31,0-5,1.12-5,3.34a3,3,0,0,0,1.26,2.56,5.73,5.73,0,0,0,3.5.94A7.18,7.18,0,0,0,544.9,375.79Z"/><path class="cls-3" d="M570.53,378.29a5.82,5.82,0,0,1-2.11,1.12,8.76,8.76,0,0,1-2.6.39,6.91,6.91,0,0,1-5.05-1.75,6.71,6.71,0,0,1-1.79-5V361.21h-3.66V358H559v-4.72h3.91V358h6.18v3.22h-6.18v11.67a3.82,3.82,0,0,0,.87,2.69,3.27,3.27,0,0,0,2.5.93,4.73,4.73,0,0,0,3-1Z"/><path class="cls-3" d="M575.31,353.11a2.42,2.42,0,0,1-.75-1.79,2.46,2.46,0,0,1,.75-1.81,2.83,2.83,0,0,1,3.79,0,2.33,2.33,0,0,1,.75,1.77,2.52,2.52,0,0,1-.75,1.85,2.56,2.56,0,0,1-1.89.75A2.63,2.63,0,0,1,575.31,353.11Zm-.06,4.88h3.91v21.56h-3.91Z"/><path class="cls-3" d="M590.06,378.37a10.19,10.19,0,0,1-4-3.92,11.83,11.83,0,0,1,0-11.35,10.16,10.16,0,0,1,4-3.91,12.59,12.59,0,0,1,11.54,0,10.24,10.24,0,0,1,4,3.91,11.83,11.83,0,0,1,0,11.35,10.27,10.27,0,0,1-4,3.92,12.36,12.36,0,0,1-11.54,0Zm9.5-2.95a6.75,6.75,0,0,0,2.59-2.68,8.92,8.92,0,0,0,0-7.93,6.66,6.66,0,0,0-2.59-2.67,7.9,7.9,0,0,0-7.44,0,6.77,6.77,0,0,0-2.61,2.67,8.75,8.75,0,0,0,0,7.93,6.87,6.87,0,0,0,2.61,2.68,7.69,7.69,0,0,0,7.44,0Z"/><path class="cls-3" d="M630.48,360.17c1.62,1.58,2.42,3.91,2.42,7v12.4H629v-12a6.59,6.59,0,0,0-1.51-4.72,5.68,5.68,0,0,0-4.31-1.58,6.68,6.68,0,0,0-5,1.85,7.23,7.23,0,0,0-1.84,5.31v11.1h-3.9V358h3.74v3.26a7.57,7.57,0,0,1,3.2-2.57,11.22,11.22,0,0,1,4.57-.89A8.89,8.89,0,0,1,630.48,360.17Z"/><path class="cls-3" d="M654.85,360q2.39,2.2,2.38,6.55v13h-3.7v-2.84a6.11,6.11,0,0,1-2.79,2.29,10.56,10.56,0,0,1-4.29.8,9,9,0,0,1-5.8-1.75,5.62,5.62,0,0,1-2.17-4.6,5.68,5.68,0,0,1,2.07-4.58c1.39-1.15,3.58-1.72,6.59-1.72h6.19v-.78a5,5,0,0,0-1.47-3.86,6.14,6.14,0,0,0-4.31-1.35,11.43,11.43,0,0,0-3.74.63,9.92,9.92,0,0,0-3.09,1.69l-1.63-2.93a11.81,11.81,0,0,1,4-2.05,16.89,16.89,0,0,1,4.93-.71C651,357.79,653.27,358.52,654.85,360ZM651,375.79a5.73,5.73,0,0,0,2.36-2.83v-3h-6c-3.31,0-5,1.12-5,3.34a3,3,0,0,0,1.26,2.56,5.73,5.73,0,0,0,3.5.94A7.24,7.24,0,0,0,651,375.79Z"/><path class="cls-3" d="M664.47,349.37h3.91v30.18h-3.91Z"/><path class="cls-3" d="M676.92,379.09a11.33,11.33,0,0,1-3.82-1.81l1.63-3.1a11.69,11.69,0,0,0,3.46,1.63,14,14,0,0,0,4.1.61c3.42,0,5.13-1,5.13-2.93a1.89,1.89,0,0,0-.69-1.54,4.44,4.44,0,0,0-1.73-.84c-.69-.17-1.67-.37-3-.59a29.07,29.07,0,0,1-4.25-.93A6.65,6.65,0,0,1,675,367.8a5,5,0,0,1-1.18-3.54,5.51,5.51,0,0,1,2.44-4.7,10.94,10.94,0,0,1,6.55-1.77,17.74,17.74,0,0,1,4.32.53,11.44,11.44,0,0,1,3.53,1.42L689,362.83a11.24,11.24,0,0,0-6.23-1.71,7.22,7.22,0,0,0-3.78.82,2.44,2.44,0,0,0-1.3,2.15,2.05,2.05,0,0,0,.73,1.67,4.6,4.6,0,0,0,1.81.9c.72.19,1.73.4,3,.65a34.72,34.72,0,0,1,4.21.95,6.36,6.36,0,0,1,2.75,1.73,4.84,4.84,0,0,1,1.14,3.42,5.39,5.39,0,0,1-2.51,4.66A11.81,11.81,0,0,1,682,379.8,18.3,18.3,0,0,1,676.92,379.09Z"/><path class="cls-3" d="M503.1,408.21a10,10,0,0,1,3.88,3.87,12.41,12.41,0,0,1,0,11.49,9.88,9.88,0,0,1-3.88,3.89,11.39,11.39,0,0,1-5.62,1.38,10.25,10.25,0,0,1-4.39-.93,8.47,8.47,0,0,1-3.29-2.73v3.42h-3.75V398.41H490v11.88a8.26,8.26,0,0,1,3.25-2.58,10.26,10.26,0,0,1,4.27-.88A11.39,11.39,0,0,1,503.1,408.21Zm-2.22,16.26a6.89,6.89,0,0,0,2.61-2.69,8.75,8.75,0,0,0,0-7.93,6.84,6.84,0,0,0-2.61-2.67,7.87,7.87,0,0,0-7.42,0,6.64,6.64,0,0,0-2.61,2.67,8.92,8.92,0,0,0,0,7.93,6.69,6.69,0,0,0,2.61,2.69,7.72,7.72,0,0,0,7.42,0Z"/><path class="cls-3" d="M517.26,427.42a10.31,10.31,0,0,1-4-3.93,11.9,11.9,0,0,1,0-11.35,10.19,10.19,0,0,1,4-3.91,11.87,11.87,0,0,1,5.77-1.4,11.75,11.75,0,0,1,5.76,1.4,10.2,10.2,0,0,1,4,3.91,11.9,11.9,0,0,1,0,11.35,10.32,10.32,0,0,1-4,3.93,11.55,11.55,0,0,1-5.76,1.42A11.67,11.67,0,0,1,517.26,427.42Zm9.5-2.95a6.69,6.69,0,0,0,2.58-2.69,8.83,8.83,0,0,0,0-7.93,6.64,6.64,0,0,0-2.58-2.67,7.93,7.93,0,0,0-7.45,0,6.75,6.75,0,0,0-2.6,2.67,8.67,8.67,0,0,0,0,7.93,6.8,6.8,0,0,0,2.6,2.69,7.78,7.78,0,0,0,7.45,0Z"/><path class="cls-3" d="M551.76,427.34a6,6,0,0,1-2.12,1.12,9.09,9.09,0,0,1-2.6.38,6.92,6.92,0,0,1-5-1.75,6.67,6.67,0,0,1-1.79-5V410.25h-3.66V407h3.66v-4.72h3.91V407h6.18v3.22h-6.18v11.67a3.8,3.8,0,0,0,.87,2.69,3.3,3.3,0,0,0,2.51.94,4.7,4.7,0,0,0,3-1Z"/><path class="cls-3" d="M557.58,428.13a11.3,11.3,0,0,1-3.83-1.81l1.63-3.09a11.44,11.44,0,0,0,3.46,1.62,14.06,14.06,0,0,0,4.11.61q5.12,0,5.12-2.92a1.9,1.9,0,0,0-.69-1.55,4.29,4.29,0,0,0-1.73-.83c-.69-.18-1.67-.38-2.95-.59a30.61,30.61,0,0,1-4.25-.94,6.55,6.55,0,0,1-2.83-1.79,5,5,0,0,1-1.18-3.54,5.55,5.55,0,0,1,2.44-4.7,10.94,10.94,0,0,1,6.55-1.77,18.24,18.24,0,0,1,4.32.53,11.87,11.87,0,0,1,3.54,1.42l-1.67,3.1a11.24,11.24,0,0,0-6.23-1.71,7.22,7.22,0,0,0-3.78.81,2.45,2.45,0,0,0-1.3,2.16,2,2,0,0,0,.73,1.66,4.6,4.6,0,0,0,1.81.9c.72.19,1.73.41,3,.65a32.69,32.69,0,0,1,4.21,1,6.27,6.27,0,0,1,2.75,1.73,4.8,4.8,0,0,1,1.14,3.41,5.4,5.4,0,0,1-2.5,4.66,11.77,11.77,0,0,1-6.82,1.73A18.18,18.18,0,0,1,557.58,428.13Z"/></g></g></g></g></svg>