<svg xmlns="http://www.w3.org/2000/svg" viewBox="0 0 845.62 1214.43"><defs><style>.cls-1{fill:#fff;}.cls-2{fill:none;stroke:#fff;stroke-width:18px;}.cls-2,.cls-4{stroke-miterlimit:10;}.cls-3,.cls-4{fill:#203479;}.cls-4{stroke:#203479;}.cls-5{fill:#480439;}.cls-6{fill:#73050c;}.cls-7{fill:#951237;}.cls-8{fill:#45558f;}.cls-9{fill:#bf217c;}</style></defs><title>Recurso 13</title><g id="Capa_2" data-name="Capa 2"><g id="backogrund"><g id="iceber"><path class="cls-1" d="M597.71,1030.86a75,75,0,0,0-17.59,9L355.74,1203.76c-4.44,3.25-9.44,1.62-11.12-3.62L197,738.13c-1.67-5.24-5.81-6-9.18-1.63l-80,102.83c-3.38,4.34-7.45,3.59-9.06-1.67L10.11,547.07a36.32,36.32,0,0,1,.33-19l92.35-268.84A15.23,15.23,0,0,1,116,249.63l160.12-2c5.5-.06,11.77-4.26,13.93-9.31L385.47,15.12a10.15,10.15,0,0,1,13.17-5.35l229.75,95.56a38.08,38.08,0,0,1,14.68,12.22l189,290.76a33.25,33.25,0,0,1,4.47,18.33L814.32,652.76a42.25,42.25,0,0,1-7,18l-111,148.72c-3.29,4.41-4.69,12.33-3.12,17.6l41.5,139a10.31,10.31,0,0,1-6.65,12.66Z"/><path class="cls-2" d="M597.71,1030.86a75,75,0,0,0-17.59,9L355.74,1203.76c-4.44,3.25-9.44,1.62-11.12-3.62L197,738.13c-1.67-5.24-5.81-6-9.18-1.63l-80,102.83c-3.38,4.34-7.45,3.59-9.06-1.67L10.11,547.07a36.32,36.32,0,0,1,.33-19l92.35-268.84A15.23,15.23,0,0,1,116,249.63l160.12-2c5.5-.06,11.77-4.26,13.93-9.31L385.47,15.12a10.15,10.15,0,0,1,13.17-5.35l229.75,95.56a38.08,38.08,0,0,1,14.68,12.22l189,290.76a33.25,33.25,0,0,1,4.47,18.33L814.32,652.76a42.25,42.25,0,0,1-7,18l-111,148.72c-3.29,4.41-4.69,12.33-3.12,17.6l41.5,139a10.31,10.31,0,0,1-6.65,12.66Z"/></g><g id="logo"><g id="Body"><path id="Dentrite_6" data-name="Dentrite 6" class="cls-3" d="M310,445.84a141.63,141.63,0,0,1,29.18-25.36l-54.38-57.07a11.52,11.52,0,0,0-19.64,11.52l-.08.05.42.72a12.9,12.9,0,0,0,.88,1.53l41.21,71.45C308.41,447.72,309.21,446.77,310,445.84Z"/><path id="Dentrite_5" data-name="Dentrite 5" class="cls-3" d="M453.42,402.54,456,347.18h-.09A9.41,9.41,0,0,0,456,346a8.81,8.81,0,0,0-17.6-.63l-14.06,52.47A141.08,141.08,0,0,1,453.42,402.54Z"/><path id="Dentrite_4" data-name="Dentrite 4" class="cls-3" d="M616.38,436.46a8.73,8.73,0,0,0-3.65.79l-.05-.14-66.61,24.8a150.12,150.12,0,0,1,13,29.17l61.36-37.74a8.92,8.92,0,0,0-4-16.88Z"/><path id="Dentrite_3" data-name="Dentrite 3" class="cls-3" d="M563.25,651.16l-30.76-32.95A149,149,0,0,1,515,638.89l36.3,27.18,0-.05a9.53,9.53,0,1,0,11.9-14.86Z"/><path id="Dentrite_2" data-name="Dentrite 2" class="cls-3" d="M361.77,668.73l-2.92,64a13.6,13.6,0,0,0-.12,1.7c0,.13,0,.26,0,.39l0,.42h0a13.13,13.13,0,0,0,12.9,12.57,13,13,0,0,0,12.23-9l.12,0L406,679.27A140.15,140.15,0,0,1,361.77,668.73Z"/><path id="Dentrite_1" data-name="Dentrite 1" class="cls-3" d="M268,566.26l-39.74,17a11.46,11.46,0,0,0-3.44,1.47l0,0h0a11.75,11.75,0,0,0,9.91,21.09l43.74-6.18A148.63,148.63,0,0,1,268,566.26Z"/><path id="Background" class="cls-4" d="M416.25,397.58a141.05,141.05,0,0,0-66.67,265.34v-5.87A18.08,18.08,0,0,1,367.66,639h13.62a4.63,4.63,0,0,0,2.12,1.4c.18.1.36.2.54.32a4.72,4.72,0,0,0,2.07,2.17l0,0,.08.17a7.36,7.36,0,0,1,.24.8,15.34,15.34,0,0,0-23.21,13.2h0L362.29,669a141,141,0,1,0,54-271.37Zm-83.18,78.95c-17.73,23-36.68,38.06-42.33,33.7s4.15-26.52,21.88-49.49c.34-.45.68-.88,1-1.32a15.14,15.14,0,0,0,3.84,4.52c6.78,5.32,17.18,4,26.12-2.39C340.54,466.38,337,471.43,333.07,476.53Z"/></g><g id="Star_2" data-name="Star 2"><path class="cls-5" d="M383.87,582.56l-2.69-11c1.71-4.5,2-9.33,3-14,1.53-7,3.23-13.9,4.05-21V536c2.54-1.63,3.82-4.41,5.93-6.44a6.9,6.9,0,0,1,.61,1.39c1.23,6.21,1.87,12.54,3.85,18.59a70.12,70.12,0,0,0,2.85,10.78c2.47,8.06,6,15.7,9.43,23.39a34.24,34.24,0,0,1-3.51,0C399.57,582.93,391.72,582.81,383.87,582.56Z"/><path class="cls-5" d="M365.71,547.52c-4-1.18-7.12-3.88-10.64-5.89-5.68-3.25-11.26-6.7-16.91-10-1.51-.88-2-1.61-.07-2.56l36.66-17.56a2,2,0,0,1,.64-.07c.56.28.56.81.59,1.33l-.82-.25c-.1-.14-.22-.15-.35,0Z"/><path class="cls-6" d="M383.87,582.56c7.85.25,15.7.36,23.52,1.15a34.24,34.24,0,0,0,3.51,0,3.31,3.31,0,0,0,.62.09c.68,2.63,2.28,4.83,3.38,7.27a191.35,191.35,0,0,1-16.25,10.78c-4.83,0-9.44,1.67-14.23,1.94C384.59,596.7,383.22,589.66,383.87,582.56Z"/><path class="cls-7" d="M376,512.77c0-.52,0-1-.6-1.32,1.75-4.05,5-7,7.6-10.46,1.18-1.57,2-3.54,4-4.42h0c1.68,2.21,4.48,2.83,6.48,4.59,0,4.95-.36,9.91.05,14.82.34,4.13,0,8.34,1.2,12.4l-.58,1.22c-2.14,2-3.37,4.82-5.91,6.44a34.39,34.39,0,0,0-1.49-3.54C383.06,525.94,379.19,519.54,376,512.77Z"/><path class="cls-6" d="M376,512.77c3.2,6.78,7.08,13.19,10.76,19.7a30.47,30.47,0,0,1,1.49,3.54v.56l-22,11a1.27,1.27,0,0,1-.55-.07q4.56-17.53,9.1-35l.18,0h.17Z"/><path class="cls-7" d="M366.25,547.6l22-11c-.82,7.11-2.52,14.05-4.05,21-1,4.66-1.28,9.49-3,14-5.32-6.66-9.25-14.21-13.8-21.38A4.64,4.64,0,0,1,366.25,547.6Z"/><path class="cls-6" d="M414.91,591.06c-1.1-2.43-2.7-4.63-3.38-7.27h13c1.54-.12,2.44-1.55,3.85-1.93.7,1,1.5.43,2.3.16,3.85-1.4,7.63-2.91,11.51-4.13,4.48-1.4,8.61-3.9,13.4-4.32-1.61,3.81-4.62,6.68-6.67,10.2l-3.11.09c-6.53.2-13.05.43-19.58.58-2,.06-3.24,1.52-4.75,2.48-2.07,1.33-4.07,2.77-6.11,4.16l-.24-.06Z"/><path class="cls-6" d="M387,496.56c.79-5.34,3.12-10.21,4.68-15.3,2.17-7.07,4.57-14.05,6.84-21.09a9,9,0,0,1,3.3-4.94c.06.86-.26,1.83.53,2.57v3.71a1.72,1.72,0,0,0-1.28,1.29,125,125,0,0,0-6.32,28.59l0,.68c-3.05.68-4.62,3.9-7.7,4.48Z"/><path class="cls-8" d="M384.44,603.78c4.8-.27,9.41-1.93,14.23-1.94-4,4.62-9.2,7.79-13.83,11.64-.43.34-1,.74-1.38.27a2.1,2.1,0,0,1-.23-1.49C383.6,609.41,384,606.61,384.44,603.78Z"/><path class="cls-7" d="M402.37,457.78c-.79-.72-.46-1.68-.53-2.56l1.26.6a4.85,4.85,0,0,1,.09.55C403.13,457,403,457.52,402.37,457.78Z"/><path class="cls-8" d="M456.81,497.26c0-.22,0-.43,0-.64,5.67,0,11.33-.14,17-.07,4.58.05,9.11-1.08,13.71-.67,1.19.11,3-.42,2.24,1.93a.66.66,0,0,0-.67.64v0l0,0a.66.66,0,0,0-.68.64v0l0,0c-1.71.54-2.74,2-4,3.12-5.37,4.74-10.26,10-16,14.3Z"/><path class="cls-9" d="M468.45,516.52c5.79-4.28,10.69-9.56,16-14.31,1.28-1.12,2.29-2.56,4-3.11-.57,3.18-2.67,5.6-4.21,8.27s-3.64,4.92-5,7.7l-8.45,12.4-10,7.17-9.95-2.09C456.32,526.73,462.46,521.71,468.45,516.52Z"/><path d="M489.11,498.49a.65.65,0,0,1,.63-.67h0C489.71,498.2,489.6,498.53,489.11,498.49Z"/><path d="M488.47,499.13a.66.66,0,0,1,.63-.68h0C489.17,498.92,489.08,499.28,488.47,499.13Z"/><path class="cls-9" d="M468.82,540.07q.85,14.11,1.74,28.22l-.76.73c-5.39-1.24-10.65-3.09-16.22-3.45h-1.26A151.41,151.41,0,0,0,433,561.09a3.71,3.71,0,0,0-.82-.47L406,555.28c-2-.4-3.91-.93-4.74-3.11h0a10.5,10.5,0,0,1,2.74-.74c6.61-1.33,13.35-2,19.87-3.83a20.09,20.09,0,0,0,3.46-.35c7-1.25,14-2.38,21-3.55l2.13-.65.67-.43h.08c1.37-.21,2.73-.49,4.11-.61C459.82,541.62,464.16,539.8,468.82,540.07Z"/><path class="cls-5" d="M469.8,569l.76-.72c4.18,8.23,7.35,16.92,11.12,25.34a2.77,2.77,0,0,1,.12,1.84c-.23.68-.88.37-1.36.13-4.77-2.41-9.66-4.61-14-7.85v-1.09C468.35,580.91,469,574.94,469.8,569Z"/><path class="cls-8" d="M466.5,586.66v1.08l-17.59-4c2-3.52,5.07-6.42,6.68-10.2l0,0,.64-.7.71-.76c1.11.6,1.48,1.78,2.1,2.75C461.55,578.74,464,582.71,466.5,586.66Z"/><path class="cls-5" d="M468.82,540.07c-4.65-.28-9,1.55-13.56,1.94-1.38.11-2.75.4-4.12.61,2.72-3.29,7-4.7,9.71-8l10-7.17C471.08,531.81,469.1,535.8,468.82,540.07Z"/><path class="cls-7" d="M402.37,457.78a1.44,1.44,0,0,0,.82-1.39c3.43,2.72,6.28,6.06,9.3,9.21,7,7.34,14,14.77,20.95,22.19a18.69,18.69,0,0,1,1.49,2c-1.71,1.56-3.38,3.23-5.2,4.68-6.76,5.36-13.68,10.5-20.1,16.29l-.67.51a4.68,4.68,0,0,0,0-.53c-.7-5.48-1.21-11-2.17-16.41-.59-3.42-.34-7-1.71-10.26-.26-7.62-1.82-15.08-2.72-22.62Z"/><path class="cls-9" d="M409.63,510.8c6.42-5.79,13.35-10.93,20.1-16.29,1.82-1.45,3.46-3.11,5.19-4.68,6.68,2.57,13.69,4.2,20.18,7.31h-.29l-.7.56c-5.63,1.24-10.82,3.67-16.07,5.92l-11.52,4.06a5.34,5.34,0,0,0-2.83.1C419,508.83,414.32,509.8,409.63,510.8Z"/><path class="cls-6" d="M468.45,516.52c-6,5.19-12.13,10.21-17.53,16a.77.77,0,0,1-.63,0q1.63-9.59,3.26-19.18,1.33-8,2.63-16.05a2.81,2.81,0,0,1,.65-.05Z"/><path class="cls-7" d="M456.18,497.31q-1.31,8-2.63,16.05c-1.07,6.41-2.17,12.79-3.26,19.18l-8.93-1.24c2-6.2,5.13-12,7.38-18.08,1.88-5.2,5.15-9.86,6.13-15.42h0l.64-.67Z"/><path d="M455.5,497.15l-.65.65,0-.67h.29A.65.65,0,0,1,455.5,497.15Z"/><path class="cls-5" d="M401.26,552.18c.83,2.18,2.74,2.71,4.74,3.12q13.11,2.66,26.21,5.34a3,3,0,0,1,.82.46l-8.51,22.67h-13a3.2,3.2,0,0,1-.62-.09c-3.43-7.7-7-15.33-9.43-23.39a72,72,0,0,1-2.86-10.78Z"/><path class="cls-6" d="M401.26,552.18l-2.64-2.63c-2-6-2.63-12.41-3.84-18.6a7.2,7.2,0,0,0-.62-1.39l.59-1.22a14.39,14.39,0,0,0,2.65-2.75c3.59-4.35,7.27-8.62,10.9-12.91a1.73,1.73,0,0,1,.57,2c-.72,3.42-1.46,6.84-2.14,10.29q-2.75,13.59-5.47,27.19Z"/><path d="M375.16,512.51H375l-.17,0C374.94,512.34,375.06,512.37,375.16,512.51Z"/><path class="cls-7" d="M408.29,512.67c-3.64,4.27-7.31,8.55-10.9,12.91a14.1,14.1,0,0,1-2.65,2.75c-1.21-4-.86-8.26-1.21-12.4-.42-4.9-.06-9.87,0-14.82a3,3,0,0,1,.6,0A113.73,113.73,0,0,0,409,510.76a4.69,4.69,0,0,1,0,.53Z"/><path class="cls-6" d="M424.54,583.79l8.51-22.66a150,150,0,0,1,19.29,4.41c-.92.72-1.78,1.49-2.74,2.14l-21.21,14.18C427,582.24,426.08,583.66,424.54,583.79Z"/><path class="cls-7" d="M428.39,581.86l21.19-14.18c1-.65,1.83-1.42,2.74-2.14h1.25c.9,2.29,2.74,4.09,3.35,6.52l-.71.76-.64.69,0,0c-4.79.42-8.92,2.92-13.4,4.32-3.89,1.21-7.7,2.73-11.51,4.12C429.89,582.31,429.09,582.83,428.39,581.86Z"/><path class="cls-5" d="M394.7,492.06c-3,.68-4.6,3.9-7.7,4.48,1.68,2.21,4.48,2.84,6.48,4.59a2.38,2.38,0,0,1,.59,0A37.43,37.43,0,0,1,394.7,492.06Z"/><path class="cls-5" d="M406.82,494.38c-.62-3.43-.36-7-1.71-10.27l-10.35,7.27,0,.68a36.45,36.45,0,0,0-.65,9A113.63,113.63,0,0,0,409,510.78C408.28,505.31,407.77,499.8,406.82,494.38Z"/><path class="cls-6" d="M405.11,484.12l-10.34,7.27a125.17,125.17,0,0,1,6.35-28.61,1.71,1.71,0,0,1,1.28-1.28C403.29,469,404.84,476.5,405.11,484.12Z"/><path class="cls-8" d="M441.35,531.3l8.92,1.24a.77.77,0,0,0,.63,0l10,2.09c-2.72,3.28-7,4.7-9.71,8h-.07l-.67.43-2.14.65-1.09-1.29c-1.48-4-4.67-7-6.08-11Z"/><path class="cls-5" d="M408.29,512.67l.68-1.36.67-.51c4.7-1,9.41-2,14.07-3a5.34,5.34,0,0,1,2.83-.1l0,.31c-4.34,5.3-6.62,11.83-10.35,17.49a1.58,1.58,0,0,0,0,2l7.69,20.06c-6.52,1.79-13.25,2.5-19.87,3.83a10.32,10.32,0,0,0-2.73.74q2.73-13.6,5.47-27.2c.69-3.42,1.43-6.84,2.13-10.29A1.71,1.71,0,0,0,408.29,512.67Z"/><path class="cls-6" d="M423.84,547.6l-7.69-20.06c6.41,2.54,12.31,6.08,18.54,9,4.18,1.94,8.07,4.49,12.5,5.89l1.1,1.28c-7,1.17-14,2.3-21,3.55A20.35,20.35,0,0,1,423.84,547.6Z"/><path class="cls-7" d="M456.92,572.08c-.6-2.44-2.45-4.24-3.35-6.52,5.56.36,10.84,2.21,16.22,3.44-.78,5.94-1.45,11.91-3.3,17.65-2.48-3.94-4.94-7.91-7.47-11.83C458.4,573.86,458,572.67,456.92,572.08Z"/><path d="M450.4,543.05l.67-.43Z"/><path d="M455.58,573.53l.64-.7Z"/><path class="cls-6" d="M438,503.63c5.26-2.25,10.45-4.68,16.08-5.92l.1.12a23.73,23.73,0,0,1-1.53,2.44q-8.64,10.75-17.32,21.48l-.55-1.25c1.57-4.84,3.06-9.7,4.71-14.5C440.11,504.34,439.93,503.56,438,503.63Z"/><path class="cls-5" d="M438,503.63c1.88-.07,2.07.71,1.5,2.37-1.66,4.8-3.15,9.66-4.7,14.5-3.46-3.71-5.17-8.58-8.34-12.5l0-.31Z"/><path d="M454.82,497.15l0,.68h0a4.52,4.52,0,0,0-.64,0l-.11-.12Z"/><path class="cls-5" d="M454.23,497.83c.21,0,.43,0,.64,0-1,5.56-4.23,10.23-6.14,15.42-2.25,6.11-5.34,11.87-7.38,18.08l-.26.15a40.24,40.24,0,0,1-5.71-9.7Q444,511,452.69,500.27A23.82,23.82,0,0,0,454.23,497.83Z"/><path class="cls-7" d="M435.38,521.75a40.63,40.63,0,0,0,5.71,9.7c1.41,4,4.6,7,6.09,11-4.44-1.41-8.33-3.95-12.5-5.89-6.23-2.9-12.15-6.44-18.55-9a1.63,1.63,0,0,1,0-2c3.73-5.67,6-12.19,10.36-17.5,3.18,3.93,4.89,8.8,8.33,12.51Z"/></g></g></g></g></svg>