<svg xmlns="http://www.w3.org/2000/svg" viewBox="0 0 827.62 1196.43"><defs><style>.cls-1{fill:#84bdf4;}.cls-2{fill:#fff;}</style></defs><title>Recurso 1</title><g id="Capa_2" data-name="Capa 2"><g id="Capa_1-2" data-name="Capa 1"><g id="backogrund"><path class="cls-1" d="M1.92,517.64,1.44,519a36.21,36.21,0,0,0-.33,19L89.73,828.65c1.61,5.26,5.68,6,9.06,1.67l80-102.83c3.37-4.34,7.51-3.61,9.18,1.63l147.67,462c1.68,5.24,6.68,6.87,11.12,3.63l224.38-163.93a74.68,74.68,0,0,1,17.59-9L719,979.67A10.31,10.31,0,0,0,725.69,967l-41.5-139c-1.58-5.27-.17-13.18,3.12-17.59l111-148.72a42.46,42.46,0,0,0,7-18L817.7,517.64Z"/><path class="cls-2" d="M634.07,108.54a37.93,37.93,0,0,0-14.68-12.22L389.64.76a10.15,10.15,0,0,0-13.16,5.36L281.1,229.35c-2.16,5.06-8.43,9.25-13.93,9.32l-160.12,2A15.26,15.26,0,0,0,93.8,250.2L1.93,517.64H817.71l9.82-100a33.27,33.27,0,0,0-4.47-18.34Z"/></g></g></g></svg>