<svg xmlns="http://www.w3.org/2000/svg" viewBox="0 0 846.02 846.02"><defs><style>.cls-1{fill:#b267ab;}.cls-2{fill:#9d00a5;}.cls-3,.cls-4{fill:#fff;}.cls-3{fill-rule:evenodd;}</style></defs><title>Recurso 8</title><g id="Capa_2" data-name="Capa 2"><g id="web"><g id="bubble"><path class="cls-1" d="M526.87,631.93C334,631.93,177.65,475.57,177.65,282.7a348.41,348.41,0,0,1,120.61-264C125.53,72,0,232.81,0,423,0,656.63,189.39,846,423,846c233.06,0,422.08-188.48,423-421.33C791.59,546.8,669.18,631.93,526.87,631.93Z"/><path class="cls-2" d="M177.65,282.7c0,192.87,156.35,349.23,349.22,349.23,142.31,0,264.72-85.13,319.13-207.24,0-.56,0-1.12,0-1.68C846,189.39,656.63,0,423,0A422.69,422.69,0,0,0,298.26,18.71,348.41,348.41,0,0,0,177.65,282.7Z"/></g><g id="main"><g id="logo"><path class="cls-3" d="M471.57,259.86H651.73v-6.44H582.54a8,8,0,0,1-6.41,3.22H550.39a8,8,0,0,1-6.41-3.22H471.57Zm181.52,6.43H470.21a5.08,5.08,0,0,1-5.08-5.07v-9.15a5.09,5.09,0,0,1,5.08-5.08h77.92l.76,2.13a1.61,1.61,0,0,0,1.5,1.09h25.74a1.64,1.64,0,0,0,1.5-1.09l.76-2.13h74.7a5.09,5.09,0,0,1,5.08,5.08v9.15a5.08,5.08,0,0,1-5.08,5.07Z"/><path class="cls-3" d="M648.51,253.42a3.21,3.21,0,0,1-3.21-3.21V137.61a6.45,6.45,0,0,0-6.44-6.44H484.44a6.45,6.45,0,0,0-6.44,6.44v112.6a3.22,3.22,0,0,1-6.43,0V137.61a12.88,12.88,0,0,1,12.87-12.87H638.86a12.88,12.88,0,0,1,12.87,12.87v112.6a3.21,3.21,0,0,1-3.22,3.21"/><path class="cls-3" d="M490.87,234.12H632.43V144H490.87Zm144.78,6.44h-148a3.22,3.22,0,0,1-3.21-3.22V140.82a3.21,3.21,0,0,1,3.21-3.21h148a3.21,3.21,0,0,1,3.21,3.21v96.52a3.22,3.22,0,0,1-3.21,3.22Z"/><path class="cls-3" d="M545.56,205.17a3.22,3.22,0,1,1-3.21-3.22,3.21,3.21,0,0,1,3.21,3.22"/><path class="cls-3" d="M529.48,208.38a3.21,3.21,0,0,1-2.51-1.2L514.1,191.11a3.2,3.2,0,0,1,0-4L527,171a3.22,3.22,0,1,1,5,4l-11.26,14.1L532,203.16a3.21,3.21,0,0,1-.5,4.52,3.18,3.18,0,0,1-2,.7"/><path class="cls-3" d="M593.82,208.38a3.18,3.18,0,0,1-2-.7,3.21,3.21,0,0,1-.5-4.52l11.26-14.06L591.31,175a3.22,3.22,0,1,1,5-4L609.2,187.1a3.2,3.2,0,0,1,0,4l-12.87,16.07a3.21,3.21,0,0,1-2.51,1.2"/><path class="cls-3" d="M542.35,195.52a3.22,3.22,0,0,1-3.22-3.22V173a3.22,3.22,0,1,1,6.43,0v19.3a3.22,3.22,0,0,1-3.21,3.22"/><path class="cls-3" d="M561.65,208.38h-6.43a3.22,3.22,0,1,1,0-6.43h6.43a3.22,3.22,0,1,1,0,6.43"/><path class="cls-3" d="M581,208.38h-6.43a3.22,3.22,0,1,1,0-6.43H581a3.22,3.22,0,1,1,0,6.43"/></g><path class="cls-4" d="M557.58,315.46l-10.76,32.2H542l-8.78-25.72-8.79,25.72h-4.92l-10.76-32.2h4.74l8.69,26.17,9.06-26.17h4.23l8.88,26.31,8.88-26.31Z"/><path class="cls-4" d="M582.65,336.94H562.87a7.65,7.65,0,0,0,2.83,5.17,9.19,9.19,0,0,0,6,2,9,9,0,0,0,7-2.95l2.44,2.86a10.77,10.77,0,0,1-4.12,2.94,14.22,14.22,0,0,1-5.5,1,14.48,14.48,0,0,1-6.85-1.58,11.3,11.3,0,0,1-4.62-4.44,12.72,12.72,0,0,1-1.64-6.44,12.93,12.93,0,0,1,1.59-6.4,11.38,11.38,0,0,1,4.37-4.44,12.54,12.54,0,0,1,6.28-1.58,12.25,12.25,0,0,1,6.23,1.58,11.16,11.16,0,0,1,4.28,4.44,13.49,13.49,0,0,1,1.54,6.53A13,13,0,0,1,582.65,336.94Zm-17.27-8.24a7.77,7.77,0,0,0-2.51,5.06h15.64a7.83,7.83,0,0,0-2.51-5,7.53,7.53,0,0,0-5.31-2A7.64,7.64,0,0,0,565.38,328.7Z"/><path class="cls-4" d="M608.13,324.61a11.27,11.27,0,0,1,4.4,4.37,13,13,0,0,1,1.58,6.49,13.18,13.18,0,0,1-1.58,6.51,11.26,11.26,0,0,1-4.4,4.39,12.82,12.82,0,0,1-6.35,1.56,11.46,11.46,0,0,1-5-1.06,9.46,9.46,0,0,1-3.73-3.08v3.87h-4.23V313.52h4.41V327A9.44,9.44,0,0,1,597,324a11.72,11.72,0,0,1,4.83-1A12.82,12.82,0,0,1,608.13,324.61ZM605.63,343a7.75,7.75,0,0,0,2.94-3,9.85,9.85,0,0,0,0-9,7.61,7.61,0,0,0-2.94-3,8.85,8.85,0,0,0-8.4,0,7.35,7.35,0,0,0-2.94,3,10,10,0,0,0,0,9,7.49,7.49,0,0,0,2.94,3,8.71,8.71,0,0,0,8.4,0Z"/><path class="cls-4" d="M432.37,368.72v34.14h-4.23V399a9.6,9.6,0,0,1-3.73,3.08,11.48,11.48,0,0,1-5,1.06,12.85,12.85,0,0,1-6.35-1.56,11.23,11.23,0,0,1-4.39-4.39,13.08,13.08,0,0,1-1.59-6.51,12.92,12.92,0,0,1,1.59-6.49,11.25,11.25,0,0,1,4.39-4.37,12.85,12.85,0,0,1,6.35-1.56,11.81,11.81,0,0,1,4.83,1,9.39,9.39,0,0,1,3.68,2.93V368.72ZM424,398.19a7.68,7.68,0,0,0,2.94-3,10,10,0,0,0,0-9,7.48,7.48,0,0,0-2.94-3,8.85,8.85,0,0,0-8.4,0,7.61,7.61,0,0,0-2.94,3,9.85,9.85,0,0,0,0,9,7.82,7.82,0,0,0,2.94,3,8.71,8.71,0,0,0,8.4,0Z"/><path class="cls-4" d="M462.68,392.14H442.9a7.67,7.67,0,0,0,2.83,5.17,9.19,9.19,0,0,0,6,2,9,9,0,0,0,7-2.95l2.44,2.86a10.69,10.69,0,0,1-4.12,2.94,15.57,15.57,0,0,1-12.35-.57,11.36,11.36,0,0,1-4.62-4.44,12.74,12.74,0,0,1-1.63-6.44,13,13,0,0,1,1.58-6.4,11.44,11.44,0,0,1,4.37-4.44,12.44,12.44,0,0,1,6.28-1.58,12.15,12.15,0,0,1,6.23,1.58,11.09,11.09,0,0,1,4.28,4.44,13.49,13.49,0,0,1,1.54,6.53A13,13,0,0,1,462.68,392.14Zm-17.27-8.24A7.81,7.81,0,0,0,442.9,389h15.64a7.79,7.79,0,0,0-2.51-5,7.53,7.53,0,0,0-5.31-2A7.66,7.66,0,0,0,445.41,383.9Z"/><path class="cls-4" d="M490,378.48l-10.68,24.38h-4.5l-10.68-24.38h4.6L477.13,398l8.55-19.55Z"/><path class="cls-4" d="M515.4,392.14H495.62a7.63,7.63,0,0,0,2.83,5.17,9.19,9.19,0,0,0,6,2,9,9,0,0,0,7-2.95l2.44,2.86a10.77,10.77,0,0,1-4.12,2.94,15.57,15.57,0,0,1-12.35-.57,11.33,11.33,0,0,1-4.63-4.44,13.61,13.61,0,0,1,0-12.84,11.38,11.38,0,0,1,4.37-4.44,12.42,12.42,0,0,1,6.28-1.58,12.15,12.15,0,0,1,6.23,1.58,11.22,11.22,0,0,1,4.28,4.44,13.49,13.49,0,0,1,1.54,6.53A13,13,0,0,1,515.4,392.14Zm-17.28-8.24a7.8,7.8,0,0,0-2.5,5.06h15.64a7.83,7.83,0,0,0-2.51-5,7.56,7.56,0,0,0-5.31-2A7.69,7.69,0,0,0,498.12,383.9Z"/><path class="cls-4" d="M521.61,368.72H526v34.14h-4.41Z"/><path class="cls-4" d="M538.35,401.52a11.65,11.65,0,0,1-4.53-4.44,13.44,13.44,0,0,1,0-12.83,11.53,11.53,0,0,1,4.53-4.42,13.34,13.34,0,0,1,6.53-1.58,13.18,13.18,0,0,1,6.51,1.58,11.54,11.54,0,0,1,4.51,4.42,13.44,13.44,0,0,1,0,12.83,11.66,11.66,0,0,1-4.51,4.44,13,13,0,0,1-6.51,1.61A13.14,13.14,0,0,1,538.35,401.52Zm10.74-3.33a7.63,7.63,0,0,0,2.92-3,10,10,0,0,0,0-9,7.43,7.43,0,0,0-2.92-3,8.89,8.89,0,0,0-8.42,0,7.61,7.61,0,0,0-2.94,3,9.85,9.85,0,0,0,0,9,7.82,7.82,0,0,0,2.94,3,8.75,8.75,0,0,0,8.42,0Z"/><path class="cls-4" d="M582.92,379.81a11.27,11.27,0,0,1,4.4,4.37,12.92,12.92,0,0,1,1.58,6.49,13.08,13.08,0,0,1-1.58,6.51,11.26,11.26,0,0,1-4.4,4.39,12.81,12.81,0,0,1-6.34,1.56,11.39,11.39,0,0,1-4.81-1,10,10,0,0,1-3.7-2.94v12.6h-4.42v-33.3h4.23v3.86a9.39,9.39,0,0,1,3.73-3.06,11.76,11.76,0,0,1,5-1A12.81,12.81,0,0,1,582.92,379.81Zm-2.5,18.38a7.82,7.82,0,0,0,2.94-3,9.85,9.85,0,0,0,0-9,7.61,7.61,0,0,0-2.94-3,8.33,8.33,0,0,0-4.21-1.06,8.11,8.11,0,0,0-4.16,1.08,7.83,7.83,0,0,0-2.95,3,9,9,0,0,0-1.08,4.47,9.21,9.21,0,0,0,1.06,4.48,7.62,7.62,0,0,0,2.94,3,8.71,8.71,0,0,0,8.4,0Z"/><path class="cls-4" d="M632.81,380.91c1.8,1.78,2.69,4.42,2.69,7.92v14h-4.41V389.33a7.66,7.66,0,0,0-1.64-5.33,6,6,0,0,0-4.67-1.8,7,7,0,0,0-5.33,2.1,8.38,8.38,0,0,0-2,6v12.56h-4.42V389.33a7.66,7.66,0,0,0-1.63-5.33,6,6,0,0,0-4.67-1.8,7,7,0,0,0-5.33,2.1,8.38,8.38,0,0,0-2,6v12.56H595V378.48h4.23v3.63a8.58,8.58,0,0,1,3.5-2.88,11.84,11.84,0,0,1,4.92-1,10.75,10.75,0,0,1,5.06,1.15,8,8,0,0,1,3.41,3.35,9.36,9.36,0,0,1,3.84-3.31,12.48,12.48,0,0,1,5.54-1.19A9.92,9.92,0,0,1,632.81,380.91Z"/><path class="cls-4" d="M665.72,392.14H645.94a7.67,7.67,0,0,0,2.83,5.17,9.2,9.2,0,0,0,6,2,9,9,0,0,0,7-2.95l2.44,2.86a10.69,10.69,0,0,1-4.12,2.94,15.57,15.57,0,0,1-12.35-.57,11.36,11.36,0,0,1-4.62-4.44,12.74,12.74,0,0,1-1.63-6.44,13,13,0,0,1,1.58-6.4,11.44,11.44,0,0,1,4.37-4.44,12.44,12.44,0,0,1,6.28-1.58,12.21,12.21,0,0,1,6.24,1.58,11.13,11.13,0,0,1,4.27,4.44,13.22,13.22,0,0,1,1.45,7.87Zm-17.27-8.24a7.81,7.81,0,0,0-2.51,5.06h15.64a7.82,7.82,0,0,0-2.5-5,7.57,7.57,0,0,0-5.32-2A7.68,7.68,0,0,0,648.45,383.9Z"/><path class="cls-4" d="M692.33,380.94q2.74,2.69,2.74,7.89v14h-4.41V389.33A7.44,7.44,0,0,0,689,384a6.38,6.38,0,0,0-4.87-1.8,7.59,7.59,0,0,0-5.66,2.1,8.16,8.16,0,0,0-2.07,6v12.56h-4.42V378.48h4.24v3.68a8.46,8.46,0,0,1,3.61-2.9,12.49,12.49,0,0,1,5.17-1A10,10,0,0,1,692.33,380.94Z"/><path class="cls-4" d="M717,401.43a6.64,6.64,0,0,1-2.39,1.26,9.81,9.81,0,0,1-3,.44,7.81,7.81,0,0,1-5.7-2,7.53,7.53,0,0,1-2-5.65V382.11h-4.14v-3.63h4.14v-5.34h4.42v5.34h7v3.63h-7v13.2a4.3,4.3,0,0,0,1,3,3.7,3.7,0,0,0,2.83,1.06,5.36,5.36,0,0,0,3.45-1.15Z"/></g><g id="standards"><g id="standards-2" data-name="standards"><path class="cls-4" d="M76.3,476.94v65.55h65.55V476.94ZM112,528.07c0,6.38-3.75,9.29-9.2,9.29a9.57,9.57,0,0,1-9.25-5.64l5-3c1,1.72,1.84,3.17,4,3.17s3.31-.79,3.31-3.88V507H112v21Zm14.58,9.29c-5.73,0-9.43-2.72-11.23-6.29l5-2.9c1.32,2.15,3,3.74,6.07,3.74,2.55,0,4.19-1.27,4.19-3,0-2.11-1.67-2.85-4.49-4.1l-1.54-.66c-4.45-1.88-7.39-4.27-7.39-9.29,0-4.62,3.53-8.13,9-8.13,3.93,0,6.74,1.36,8.76,4.93l-4.8,3.07c-1.06-1.89-2.2-2.63-4-2.63a2.67,2.67,0,0,0-2.94,2.63c0,1.84,1.14,2.59,3.79,3.75l1.54.66c5.23,2.23,8.18,4.53,8.18,9.68,0,5.53-4.37,8.58-10.2,8.58Z"/><path class="cls-4" d="M78.84,255.3l5.41,61.36,24.28,8.1,24.43-8.1,5.41-61.36Zm47.78,19.83H98.12l.64,7.66H126l-2.11,23L108.7,310v0h-.17L93.22,305.8,92.29,294h7.4l.54,5.91,8.3,2.25,8.32-2.25.93-9.64H91.91l-2-22.57H127.3Z"/><path class="cls-4" d="M49.54,365.15,55,426.51l24.36,8.09,24.35-8.09,5.41-61.36Zm48.54,12.4-.74,7.33-17.88,7.64,0,0H96.7l-2,22.73-15.23,4.45-15.31-4.53-1-11.46h7.58l.49,5.94,8.16,2.06,8.48-2.39.57-9.55-25.78-.07v0l0,0-.56-7.18,17.38-7.24,1-.42H61.43l-.9-7.33Z"/></g><path class="cls-4" d="M149.84,359.74h3.88v23.85h14.75V387H149.84Z"/><path class="cls-4" d="M186.58,368.26q2.26,2.1,2.27,6.26V387h-3.54v-2.72a5.93,5.93,0,0,1-2.66,2.2,10.29,10.29,0,0,1-4.11.75,8.57,8.57,0,0,1-5.54-1.67,5.35,5.35,0,0,1-2.08-4.39,5.42,5.42,0,0,1,2-4.38q2-1.65,6.31-1.65h5.91v-.74a4.79,4.79,0,0,0-1.4-3.7,5.88,5.88,0,0,0-4.12-1.28,10.94,10.94,0,0,0-3.58.6,9.2,9.2,0,0,0-3,1.61l-1.56-2.8a11.41,11.41,0,0,1,3.82-2,16,16,0,0,1,4.7-.68C182.88,366.16,185.06,366.86,186.58,368.26Zm-3.72,15.11a5.42,5.42,0,0,0,2.26-2.7v-2.88h-5.76q-4.74,0-4.74,3.19a2.89,2.89,0,0,0,1.2,2.45,5.49,5.49,0,0,0,3.35.9A6.9,6.9,0,0,0,182.86,383.37Z"/><path class="cls-4" d="M207.37,385.76a5.41,5.41,0,0,1-2,1.07,8.39,8.39,0,0,1-2.49.37,6.6,6.6,0,0,1-4.83-1.67,6.38,6.38,0,0,1-1.71-4.78V369.43h-3.5v-3.08h3.5v-4.51h3.74v4.51H206v3.08h-5.91v11.16a3.66,3.66,0,0,0,.83,2.57,3.12,3.12,0,0,0,2.4.89,4.46,4.46,0,0,0,2.91-1Z"/><path class="cls-4" d="M229.74,377.91H213a6.5,6.5,0,0,0,2.39,4.37,7.8,7.8,0,0,0,5.08,1.66,7.63,7.63,0,0,0,6-2.49l2.07,2.41a9.08,9.08,0,0,1-3.49,2.49,13.16,13.16,0,0,1-10.44-.49,9.49,9.49,0,0,1-3.91-3.75,11.52,11.52,0,0,1,0-10.86,9.6,9.6,0,0,1,3.7-3.75,10.53,10.53,0,0,1,5.31-1.34,10.38,10.38,0,0,1,5.27,1.34,9.38,9.38,0,0,1,3.61,3.75,11.44,11.44,0,0,1,1.31,5.53C229.82,377.06,229.79,377.44,229.74,377.91Zm-14.61-7a6.64,6.64,0,0,0-2.12,4.28h13.23a6.68,6.68,0,0,0-2.12-4.26,7,7,0,0,0-9,0Z"/><path class="cls-4" d="M236,386.52a10.76,10.76,0,0,1-3.66-1.73l1.56-3a11.41,11.41,0,0,0,3.31,1.55,13.57,13.57,0,0,0,3.93.59q4.9,0,4.9-2.81a1.8,1.8,0,0,0-.66-1.47,4.09,4.09,0,0,0-1.66-.8q-1-.25-2.82-.57a26.11,26.11,0,0,1-4.06-.89,6.4,6.4,0,0,1-2.71-1.71,4.78,4.78,0,0,1-1.12-3.39,5.28,5.28,0,0,1,2.33-4.49,10.44,10.44,0,0,1,6.26-1.69,17.67,17.67,0,0,1,4.13.5,10.92,10.92,0,0,1,3.38,1.37l-1.59,3a10.73,10.73,0,0,0-6-1.63,6.84,6.84,0,0,0-3.61.78,2.34,2.34,0,0,0-1.25,2.06,2,2,0,0,0,.7,1.59,4.47,4.47,0,0,0,1.73.86c.69.18,1.66.39,2.9.62a31.43,31.43,0,0,1,4,.92,5.92,5.92,0,0,1,2.62,1.65,4.6,4.6,0,0,1,1.09,3.27,5.14,5.14,0,0,1-2.39,4.45,11.3,11.3,0,0,1-6.51,1.65A17.11,17.11,0,0,1,236,386.52Z"/><path class="cls-4" d="M266.07,385.76a5.41,5.41,0,0,1-2,1.07,8.3,8.3,0,0,1-2.49.37,6.59,6.59,0,0,1-4.82-1.67,6.38,6.38,0,0,1-1.71-4.78V369.43h-3.51v-3.08H255v-4.51h3.73v4.51h5.91v3.08h-5.91v11.16a3.62,3.62,0,0,0,.84,2.57,3.08,3.08,0,0,0,2.39.89,4.51,4.51,0,0,0,2.92-1Z"/><path class="cls-4" d="M153.49,437.38a10.8,10.8,0,0,1-3.65-1.73l1.55-3a11.17,11.17,0,0,0,3.31,1.56,14,14,0,0,0,3.93.58q4.91,0,4.9-2.8a1.82,1.82,0,0,0-.66-1.48,4.22,4.22,0,0,0-1.66-.8c-.66-.17-1.6-.35-2.82-.56a27.18,27.18,0,0,1-4.06-.9,6.12,6.12,0,0,1-2.7-1.71,4.72,4.72,0,0,1-1.13-3.38,5.31,5.31,0,0,1,2.33-4.5,10.51,10.51,0,0,1,6.26-1.69,17.17,17.17,0,0,1,4.13.51,11.18,11.18,0,0,1,3.38,1.36l-1.59,3a10.73,10.73,0,0,0-5.95-1.64,6.86,6.86,0,0,0-3.62.78,2.36,2.36,0,0,0-1.25,2.06,2,2,0,0,0,.7,1.6,4.45,4.45,0,0,0,1.73.85c.69.18,1.66.39,2.9.63a31.65,31.65,0,0,1,4,.91,6,6,0,0,1,2.63,1.65,4.64,4.64,0,0,1,1.08,3.27,5.13,5.13,0,0,1-2.39,4.45,11.23,11.23,0,0,1-6.51,1.66A17.47,17.47,0,0,1,153.49,437.38Z"/><path class="cls-4" d="M183.53,436.62a5.61,5.61,0,0,1-2,1.07,8.63,8.63,0,0,1-2.49.37,6.63,6.63,0,0,1-4.82-1.67,6.4,6.4,0,0,1-1.71-4.79V420.28H169v-3.07h3.5v-4.52h3.73v4.52h5.91v3.07h-5.91v11.16a3.6,3.6,0,0,0,.84,2.57,3.08,3.08,0,0,0,2.39.9,4.52,4.52,0,0,0,2.92-1Z"/><path class="cls-4" d="M202.1,419.11q2.28,2.1,2.28,6.27v12.44h-3.54V435.1a6,6,0,0,1-2.67,2.2,10.07,10.07,0,0,1-4.1.76,8.64,8.64,0,0,1-5.55-1.67,5.75,5.75,0,0,1-.09-8.78q2-1.65,6.3-1.65h5.91v-.74a4.75,4.75,0,0,0-1.4-3.7,5.93,5.93,0,0,0-4.12-1.28,11,11,0,0,0-3.58.6,9.33,9.33,0,0,0-3,1.62l-1.55-2.8a11.28,11.28,0,0,1,3.81-2,16.11,16.11,0,0,1,4.71-.68Q199.83,417,202.1,419.11Zm-3.71,15.12a5.47,5.47,0,0,0,2.25-2.71v-2.88h-5.76c-3.16,0-4.74,1.07-4.74,3.19a2.88,2.88,0,0,0,1.2,2.45,5.51,5.51,0,0,0,3.35.9A7,7,0,0,0,198.39,434.23Z"/><path class="cls-4" d="M228.55,419.29c1.55,1.51,2.32,3.74,2.32,6.67v11.86h-3.74V426.39a6.35,6.35,0,0,0-1.43-4.52,5.43,5.43,0,0,0-4.13-1.51,6.41,6.41,0,0,0-4.78,1.77A6.89,6.89,0,0,0,215,427.2v10.62H211.3V417.21h3.58v3.11a7.25,7.25,0,0,1,3.06-2.45,10.65,10.65,0,0,1,4.37-.86A8.49,8.49,0,0,1,228.55,419.29Z"/><path class="cls-4" d="M257.36,409v28.86h-3.58v-3.26a8,8,0,0,1-3.15,2.6,9.71,9.71,0,0,1-4.2.9,10.85,10.85,0,0,1-5.37-1.32,9.48,9.48,0,0,1-3.71-3.72,11.86,11.86,0,0,1,0-11,9.56,9.56,0,0,1,3.71-3.7,10.85,10.85,0,0,1,5.37-1.32,9.8,9.8,0,0,1,4.08.84,7.93,7.93,0,0,1,3.12,2.47V409Zm-7.08,24.92a6.48,6.48,0,0,0,2.49-2.57,8.45,8.45,0,0,0,0-7.59,6.37,6.37,0,0,0-2.49-2.55,7.53,7.53,0,0,0-7.1,0,6.5,6.5,0,0,0-2.49,2.55,8.37,8.37,0,0,0,0,7.59,6.62,6.62,0,0,0,2.49,2.57,7.38,7.38,0,0,0,7.1,0Z"/><path class="cls-4" d="M278.51,419.11q2.26,2.1,2.27,6.27v12.44h-3.54V435.1a5.93,5.93,0,0,1-2.66,2.2,10.15,10.15,0,0,1-4.11.76,8.61,8.61,0,0,1-5.54-1.67,5.76,5.76,0,0,1-.1-8.78q2-1.65,6.3-1.65h5.92v-.74a4.79,4.79,0,0,0-1.4-3.7,6,6,0,0,0-4.13-1.28,11,11,0,0,0-3.58.6,9.27,9.27,0,0,0-2.95,1.62l-1.56-2.8a11.28,11.28,0,0,1,3.81-2A16.11,16.11,0,0,1,272,417Q276.23,417,278.51,419.11Zm-3.72,15.12a5.49,5.49,0,0,0,2.26-2.71v-2.88h-5.76c-3.17,0-4.75,1.07-4.75,3.19a2.86,2.86,0,0,0,1.21,2.45,5.48,5.48,0,0,0,3.34.9A7,7,0,0,0,274.79,434.23Z"/><path class="cls-4" d="M294.16,418a10.36,10.36,0,0,1,4.63-.94v3.62a7.4,7.4,0,0,0-5.62,1.77,7.17,7.17,0,0,0-1.73,5.15v10.27h-3.73V417.21h3.58v3.46A6.31,6.31,0,0,1,294.16,418Z"/><path class="cls-4" d="M322.64,409v28.86h-3.58v-3.26a8,8,0,0,1-3.15,2.6,9.71,9.71,0,0,1-4.2.9,10.85,10.85,0,0,1-5.37-1.32,9.48,9.48,0,0,1-3.71-3.72,11.86,11.86,0,0,1,0-11,9.56,9.56,0,0,1,3.71-3.7,10.85,10.85,0,0,1,5.37-1.32,9.8,9.8,0,0,1,4.08.84,7.93,7.93,0,0,1,3.12,2.47V409Zm-7.08,24.92a6.48,6.48,0,0,0,2.49-2.57,8.45,8.45,0,0,0,0-7.59,6.37,6.37,0,0,0-2.49-2.55,7.53,7.53,0,0,0-7.1,0,6.5,6.5,0,0,0-2.49,2.55,8.37,8.37,0,0,0,0,7.59,6.62,6.62,0,0,0,2.49,2.57,7.38,7.38,0,0,0,7.1,0Z"/><path class="cls-4" d="M330.77,437.38a11,11,0,0,1-3.66-1.73l1.56-3a11.17,11.17,0,0,0,3.31,1.56,13.85,13.85,0,0,0,3.93.58q4.9,0,4.9-2.8a1.82,1.82,0,0,0-.66-1.48,4.22,4.22,0,0,0-1.66-.8c-.66-.17-1.6-.35-2.82-.56a27.18,27.18,0,0,1-4.06-.9,6.21,6.21,0,0,1-2.71-1.71,4.76,4.76,0,0,1-1.12-3.38,5.28,5.28,0,0,1,2.33-4.5,10.51,10.51,0,0,1,6.26-1.69,17.17,17.17,0,0,1,4.13.51,11.18,11.18,0,0,1,3.38,1.36l-1.59,3a10.74,10.74,0,0,0-6-1.64,6.84,6.84,0,0,0-3.61.78,2.36,2.36,0,0,0-1.25,2.06,2,2,0,0,0,.7,1.6,4.45,4.45,0,0,0,1.73.85c.69.18,1.66.39,2.9.63a31.65,31.65,0,0,1,4,.91,5.92,5.92,0,0,1,2.62,1.65,4.6,4.6,0,0,1,1.09,3.27,5.13,5.13,0,0,1-2.39,4.45,11.23,11.23,0,0,1-6.51,1.66A17.47,17.47,0,0,1,330.77,437.38Z"/></g><g id="frameworks"><g id="frameworks-2" data-name="frameworks"><path class="cls-4" d="M585.67,711.61H569.78l-11.57,18.31-9.92-18.31H511.92l46.29,79.29,46.29-79.29Zm-62.24,6.61h11.11l23.67,41,23.64-41H593l-34.75,59.56-34.78-59.56Z"/><path class="cls-4" d="M312.22,675.62c-1-.33-2-.63-2.93-.92q.24-1,.45-2c2.22-10.76.76-19.42-4.17-22.27-4.75-2.73-12.5.11-20.34,6.94-.78.66-1.54,1.37-2.26,2.07-.49-.47-1-.94-1.5-1.39-8.22-7.3-16.45-10.37-21.38-7.49-4.74,2.74-6.15,10.89-4.16,21.08.2,1,.42,2,.67,3-1.16.33-2.3.69-3.36,1.07-9.65,3.34-16.57,8.62-16.57,14.07,0,5.64,7.37,11.29,17.4,14.72.81.27,1.63.54,2.46.78-.27,1.08-.51,2.15-.73,3.25-1.89,10-.41,18,4.32,20.7s13.08-.07,21.06-7.06c.64-.56,1.27-1.14,1.9-1.75.8.77,1.63,1.51,2.46,2.24,7.73,6.64,15.37,9.34,20.08,6.61,4.88-2.82,6.47-11.36,4.41-21.77-.16-.79-.34-1.61-.54-2.44.58-.16,1.14-.34,1.7-.52,10.42-3.45,18-9,18-14.76,0-5.47-7.12-10.78-16.94-14.16Zm-24.44-15.34c6.72-5.85,13-8.14,15.84-6.5,3.05,1.75,4.23,8.83,2.31,18.14-.13.61-.25,1.21-.41,1.8a92.89,92.89,0,0,0-12.16-1.91,89.78,89.78,0,0,0-7.7-9.59C286.37,661.55,287.05,660.91,287.78,660.28Zm-20.9,38.88c.92,1.57,1.86,3.14,2.85,4.67a78.61,78.61,0,0,1-8.38-1.35,85.25,85.25,0,0,1,2.94-8c.83,1.59,1.68,3.16,2.59,4.72Zm-5.48-21.73c2.6-.58,5.37-1,8.24-1.41-1,1.5-1.9,3-2.78,4.58s-1.75,3.11-2.57,4.7c-1.13-2.69-2.09-5.33-2.89-7.87Zm5,12.44c1.2-2.49,2.5-4.93,3.87-7.33s2.85-4.74,4.41-7c2.71-.2,5.47-.31,8.29-.31s5.6.11,8.29.31c1.53,2.28,3,4.61,4.39,7s2.69,4.82,3.92,7.3q-1.81,3.74-3.9,7.37c-1.38,2.4-2.84,4.73-4.37,7-2.7.2-5.5.29-8.33.29s-5.58-.09-8.24-.25q-2.35-3.43-4.44-7c-1.39-2.41-2.68-4.85-3.89-7.34ZM299,699.12c.92-1.59,1.79-3.2,2.63-4.82a84,84,0,0,1,3.06,8,78.78,78.78,0,0,1-8.49,1.44c1-1.51,1.89-3.07,2.8-4.62Zm2.6-13.82c-.85-1.59-1.72-3.18-2.62-4.73s-1.81-3.05-2.77-4.55c2.91.36,5.69.85,8.3,1.44A80.05,80.05,0,0,1,301.58,685.3ZM283,665a78.46,78.46,0,0,1,5.35,6.47c-3.58-.17-7.17-.17-10.75,0C279.32,669.12,281.15,667,283,665ZM262,653.91c3-1.77,9.77.75,16.87,7,.45.4.9.83,1.37,1.27a90.15,90.15,0,0,0-7.74,9.59,94,94,0,0,0-12.14,1.88c-.24-.93-.44-1.86-.64-2.8-1.69-8.75-.57-15.34,2.28-17Zm-4.43,47.61c-.75-.21-1.5-.45-2.24-.7A37,37,0,0,1,244,695.18a8.08,8.08,0,0,1-3.39-5.4c0-3.3,5.71-7.53,13.94-10.4,1-.37,2.08-.69,3.13-1a97.29,97.29,0,0,0,4.42,11.49A100.7,100.7,0,0,0,257.57,701.52Zm21.07,17.7a33,33,0,0,1-10.19,6.38,8,8,0,0,1-6.38.24c-2.87-1.67-4.06-8-2.44-16.62.2-1,.42-2,.67-3A90.44,90.44,0,0,0,272.57,708a95.07,95.07,0,0,0,7.8,9.65c-.58.56-1.16,1.1-1.73,1.6Zm4.42-4.38c-1.84-2-3.68-4.2-5.47-6.56,1.73.07,3.52.11,5.33.11s3.68,0,5.49-.13A78.38,78.38,0,0,1,283.06,714.84Zm23.61,5.41a8,8,0,0,1-3,5.66c-2.87,1.66-9-.51-15.61-6.18-.75-.65-1.51-1.35-2.29-2.08a88.85,88.85,0,0,0,7.62-9.68,87.12,87.12,0,0,0,12.32-1.9c.18.75.35,1.49.49,2.21a32.74,32.74,0,0,1,.45,12ZM310,700.84c-.51.16-1,.32-1.54.47a90.8,90.8,0,0,0-4.6-11.53,90.51,90.51,0,0,0,4.42-11.36c.94.27,1.85.56,2.71.85,8.42,2.89,14.33,7.19,14.33,10.47C325.28,693.29,319,697.86,310,700.84Zm-27-2.71a8.28,8.28,0,1,0-8.28-8.28,8.28,8.28,0,0,0,8.28,8.28Z"/><path class="cls-4" d="M403.63,767.93H417.5l-6.94-16.68-6.93,16.68Zm6.93-43-37.83,13.54,5.79,50.19,32,17.82,32-17.82,5.79-50.19Zm23.7,62.22h-8.84l-4.77-11.91H400.51l-4.77,11.91h-8.86L410.56,734Z"/></g><path class="cls-4" d="M405,670.44a5.69,5.69,0,0,1,1.12,3.6,5.19,5.19,0,0,1-2.2,4.48,10.92,10.92,0,0,1-6.38,1.56H386.85v-22.4h10a10,10,0,0,1,5.94,1.54,5,5,0,0,1,2.09,4.26,5.59,5.59,0,0,1-.81,3,5.39,5.39,0,0,1-2.2,2A5.72,5.72,0,0,1,405,670.44Zm-14.95-10.16v7.16h6.56a6.61,6.61,0,0,0,3.79-.91,3.35,3.35,0,0,0,0-5.34,6.61,6.61,0,0,0-3.79-.91Zm11.46,16.32a3.14,3.14,0,0,0,1.37-2.82c0-2.5-1.82-3.74-5.47-3.74h-7.36v7.45h7.36A7.65,7.65,0,0,0,401.51,676.6Z"/><path class="cls-4" d="M425.89,672.63H412.13a5.33,5.33,0,0,0,2,3.6,6.46,6.46,0,0,0,4.18,1.36,6.28,6.28,0,0,0,4.89-2.05l1.7,2a7.44,7.44,0,0,1-2.87,2.05,10.73,10.73,0,0,1-8.59-.4,7.72,7.72,0,0,1-3.21-3.09,8.81,8.81,0,0,1-1.14-4.48,9,9,0,0,1,1.1-4.44,7.86,7.86,0,0,1,3-3.09,8.63,8.63,0,0,1,4.37-1.11,8.47,8.47,0,0,1,4.34,1.11,7.62,7.62,0,0,1,3,3.09A9.32,9.32,0,0,1,426,671.7C426,671.93,425.93,672.24,425.89,672.63Zm-12-5.73a5.4,5.4,0,0,0-1.75,3.52H423a5.43,5.43,0,0,0-1.74-3.5,5.73,5.73,0,0,0-7.39,0Z"/><path class="cls-4" d="M431.08,679.72a8.8,8.8,0,0,1-3-1.43l1.28-2.43a9.15,9.15,0,0,0,2.72,1.28,11.14,11.14,0,0,0,3.23.48q4,0,4-2.3a1.5,1.5,0,0,0-.54-1.22,3.53,3.53,0,0,0-1.36-.66c-.55-.13-1.32-.29-2.32-.46a22.06,22.06,0,0,1-3.35-.74,5.1,5.1,0,0,1-2.22-1.4,3.93,3.93,0,0,1-.93-2.79,4.34,4.34,0,0,1,1.92-3.69,8.59,8.59,0,0,1,5.15-1.4,14.19,14.19,0,0,1,3.4.42,9.2,9.2,0,0,1,2.78,1.12l-1.31,2.43a8.88,8.88,0,0,0-4.9-1.34,5.6,5.6,0,0,0-3,.64,1.92,1.92,0,0,0-1,1.69,1.61,1.61,0,0,0,.58,1.32,3.64,3.64,0,0,0,1.42.7c.57.15,1.36.32,2.39.51a28.24,28.24,0,0,1,3.31.75,5,5,0,0,1,2.16,1.36,3.83,3.83,0,0,1,.89,2.69,4.24,4.24,0,0,1-2,3.67,9.37,9.37,0,0,1-5.36,1.36A14.32,14.32,0,0,1,431.08,679.72Z"/><path class="cls-4" d="M455.78,679.09a4.46,4.46,0,0,1-1.66.88,7.12,7.12,0,0,1-2.05.31,5.43,5.43,0,0,1-4-1.38,5.26,5.26,0,0,1-1.41-3.94v-9.31h-2.88v-2.53h2.88v-3.71h3.07v3.71h4.87v2.53h-4.87v9.19a3,3,0,0,0,.69,2.11,2.57,2.57,0,0,0,2,.73,3.66,3.66,0,0,0,2.4-.8Z"/><path class="cls-4" d="M471.55,661.65v1.47h4.93v2.53h-4.86v14.43h-3.07V665.65h-2.88v-2.53h2.88v-1.5a5.4,5.4,0,0,1,1.47-4,5.59,5.59,0,0,1,4.13-1.47,7,7,0,0,1,1.92.25,4.84,4.84,0,0,1,1.53.74l-.93,2.34a3.76,3.76,0,0,0-2.36-.8Q471.55,658.68,471.55,661.65Z"/><path class="cls-4" d="M487.27,663.73a8.58,8.58,0,0,1,3.8-.77v3a6.29,6.29,0,0,0-.7,0,5.15,5.15,0,0,0-3.92,1.49,5.87,5.87,0,0,0-1.42,4.24v8.44H482v-17h2.95V666A5.2,5.2,0,0,1,487.27,663.73Z"/><path class="cls-4" d="M506.39,664.69a6.7,6.7,0,0,1,1.87,5.15v10.24h-2.91v-2.24a4.88,4.88,0,0,1-2.2,1.81,8.24,8.24,0,0,1-3.37.63,7,7,0,0,1-4.56-1.38,4.74,4.74,0,0,1-.08-7.22c1.09-.9,2.81-1.36,5.18-1.36h4.87v-.6a3.9,3.9,0,0,0-1.16-3,4.82,4.82,0,0,0-3.39-1.06,9,9,0,0,0-2.94.5,7.62,7.62,0,0,0-2.43,1.32l-1.28-2.3a9.47,9.47,0,0,1,3.13-1.62A13.27,13.27,0,0,1,501,663,7.7,7.7,0,0,1,506.39,664.69Zm-3.06,12.43a4.52,4.52,0,0,0,1.86-2.22v-2.37h-4.74q-3.9,0-3.9,2.63a2.37,2.37,0,0,0,1,2,4.54,4.54,0,0,0,2.75.74A5.64,5.64,0,0,0,503.33,677.12Z"/><path class="cls-4" d="M540.24,664.82a7.42,7.42,0,0,1,1.87,5.5v9.76H539v-9.4a5.41,5.41,0,0,0-1.13-3.72,4.18,4.18,0,0,0-3.25-1.24,4.84,4.84,0,0,0-3.71,1.45,5.85,5.85,0,0,0-1.38,4.18v8.73H526.5v-9.4a5.36,5.36,0,0,0-1.14-3.72,4.18,4.18,0,0,0-3.25-1.24,4.87,4.87,0,0,0-3.71,1.45,5.85,5.85,0,0,0-1.37,4.18v8.73H514v-17h2.95v2.53a6,6,0,0,1,2.43-2,8.1,8.1,0,0,1,3.42-.69,7.52,7.52,0,0,1,3.52.8,5.57,5.57,0,0,1,2.37,2.34,6.47,6.47,0,0,1,2.67-2.3,8.68,8.68,0,0,1,3.86-.84A6.88,6.88,0,0,1,540.24,664.82Z"/><path class="cls-4" d="M563.14,672.63H549.38a5.32,5.32,0,0,0,2,3.6,6.48,6.48,0,0,0,4.18,1.36,6.28,6.28,0,0,0,4.9-2.05l1.69,2a7.41,7.41,0,0,1-2.86,2.05,10.73,10.73,0,0,1-8.59-.4,7.8,7.8,0,0,1-3.22-3.09,8.81,8.81,0,0,1-1.14-4.48,8.92,8.92,0,0,1,1.11-4.44,7.79,7.79,0,0,1,3-3.09,8.63,8.63,0,0,1,4.37-1.11,8.43,8.43,0,0,1,4.33,1.11,7.71,7.71,0,0,1,3,3.09,9.43,9.43,0,0,1,1.07,4.54Q563.2,672,563.14,672.63Zm-12-5.73a5.43,5.43,0,0,0-1.74,3.52h10.88a5.39,5.39,0,0,0-1.75-3.5,5.73,5.73,0,0,0-7.39,0Z"/><path class="cls-4" d="M592.8,663.12l-6.33,17h-3l-4.89-12.86-5,12.86h-2.95l-6.3-17h2.91l4.93,13.51,5.12-13.51H580l5,13.57,5.06-13.57Z"/><path class="cls-4" d="M598.14,679.16a8.2,8.2,0,0,1-3.15-3.09,9.39,9.39,0,0,1,0-8.93,8,8,0,0,1,3.15-3.07,9.84,9.84,0,0,1,9.08,0,8,8,0,0,1,3.13,3.07,9.31,9.31,0,0,1,0,8.93,8.22,8.22,0,0,1-3.13,3.09,9.76,9.76,0,0,1-9.08,0Zm7.48-2.32a5.32,5.32,0,0,0,2-2.12,7,7,0,0,0,0-6.24,5.24,5.24,0,0,0-2-2.09,6.17,6.17,0,0,0-5.86,0,5.35,5.35,0,0,0-2,2.09,6.86,6.86,0,0,0,0,6.24,5.43,5.43,0,0,0,2,2.12,6.1,6.1,0,0,0,5.86,0Z"/><path class="cls-4" d="M621.06,663.73a8.59,8.59,0,0,1,3.81-.77v3a6.62,6.62,0,0,0-.71,0,5.15,5.15,0,0,0-3.92,1.49,5.87,5.87,0,0,0-1.42,4.24v8.44h-3.07v-17h2.94V666A5.2,5.2,0,0,1,621.06,663.73Z"/><path class="cls-4" d="M635.23,672.18l-3.52,3.26v4.64h-3.07V656.34h3.07v15.23l9.25-8.45h3.71l-7.13,7,7.84,10H641.6Z"/><path class="cls-4" d="M648.67,679.72a8.89,8.89,0,0,1-3-1.43l1.28-2.43a9.39,9.39,0,0,0,2.72,1.28,11.25,11.25,0,0,0,3.24.48q4,0,4-2.3a1.47,1.47,0,0,0-.55-1.22,3.39,3.39,0,0,0-1.36-.66c-.54-.13-1.31-.29-2.32-.46a21.9,21.9,0,0,1-3.34-.74,5.1,5.1,0,0,1-2.22-1.4,3.93,3.93,0,0,1-.93-2.79,4.34,4.34,0,0,1,1.92-3.69,8.59,8.59,0,0,1,5.15-1.4,14,14,0,0,1,3.39.42,9.27,9.27,0,0,1,2.79,1.12l-1.32,2.43a8.83,8.83,0,0,0-4.89-1.34,5.66,5.66,0,0,0-3,.64,1.93,1.93,0,0,0-1,1.69,1.63,1.63,0,0,0,.57,1.32,3.68,3.68,0,0,0,1.43.7c.56.15,1.36.32,2.38.51a27.77,27.77,0,0,1,3.31.75,4.89,4.89,0,0,1,2.16,1.36,3.79,3.79,0,0,1,.9,2.69,4.25,4.25,0,0,1-2,3.67,9.34,9.34,0,0,1-5.36,1.36A14.37,14.37,0,0,1,648.67,679.72Z"/></g></g></g></svg>